<?xml version="1.0" encoding="UTF-8"?>
<svg id="_圖層_1" data-name="圖層_1" xmlns="http://www.w3.org/2000/svg" xmlns:xlink="http://www.w3.org/1999/xlink" version="1.1" viewBox="0 0 141.02 40.9">
  <!-- Generator: Adobe Illustrator 29.6.1, SVG Export Plug-In . SVG Version: 2.1.1 Build 9)  -->
  <defs>
    <style>
      .st0 {
        fill: none;
      }

      .st1 {
        fill: url(#linear-gradient2);
      }

      .st2 {
        fill: url(#linear-gradient1);
      }

      .st3 {
        fill: url(#linear-gradient9);
      }

      .st4 {
        fill: url(#linear-gradient3);
      }

      .st5 {
        fill: url(#linear-gradient6);
      }

      .st6 {
        fill: url(#linear-gradient8);
      }

      .st7 {
        fill: url(#linear-gradient7);
      }

      .st8 {
        fill: url(#linear-gradient5);
      }

      .st9 {
        fill: url(#linear-gradient4);
      }

      .st10 {
        fill: url(#linear-gradient12);
      }

      .st11 {
        fill: url(#linear-gradient11);
      }

      .st12 {
        fill: url(#linear-gradient10);
      }

      .st13 {
        fill: url(#linear-gradient);
      }

      .st14 {
        fill: #fff;
      }

      .st15 {
        fill: #6d2267;
      }
    </style>
    <linearGradient id="linear-gradient" x1="6.44" y1="20.5" x2="41.46" y2="20.5" gradientUnits="userSpaceOnUse">
      <stop offset="0" stop-color="#c4d01d"/>
      <stop offset=".6" stop-color="#97b423"/>
      <stop offset="1" stop-color="#4e8b37"/>
    </linearGradient>
    <linearGradient id="linear-gradient1" x1="21.56" y1="20.56" x2="41.97" y2="20.56" xlink:href="#linear-gradient"/>
    <linearGradient id="linear-gradient2" x1="3031.18" y1="4107.48" x2="3061.96" y2="4107.48" gradientTransform="translate(-4814.37 -1663.67) rotate(-34.23)" gradientUnits="userSpaceOnUse">
      <stop offset="0" stop-color="#91598d"/>
      <stop offset=".31" stop-color="#82437d"/>
      <stop offset=".74" stop-color="#722a6d"/>
      <stop offset="1" stop-color="#6d2267"/>
    </linearGradient>
    <linearGradient id="linear-gradient3" x1="3031.18" y1="4106.61" x2="3048.81" y2="4106.61" xlink:href="#linear-gradient2"/>
    <linearGradient id="linear-gradient4" x1="3048.68" y1="4124.15" x2="3056.52" y2="4116.31" xlink:href="#linear-gradient2"/>
    <linearGradient id="linear-gradient5" x1="3035.59" y1="4102.31" x2="3049.07" y2="4099.93" xlink:href="#linear-gradient2"/>
    <linearGradient id="linear-gradient6" x1="3047.14" y1="4098.85" x2="3056.39" y2="4104.19" xlink:href="#linear-gradient2"/>
    <linearGradient id="linear-gradient7" x1="3031.3" y1="4121.48" x2="3046.71" y2="4121.48" xlink:href="#linear-gradient2"/>
    <linearGradient id="linear-gradient8" x1="3048.47" y1="4090.51" x2="3036.07" y2="4090.51" xlink:href="#linear-gradient2"/>
    <linearGradient id="linear-gradient9" x1="3047.18" y1="4114.29" x2="3047.18" y2="4130.47" xlink:href="#linear-gradient2"/>
    <linearGradient id="linear-gradient10" x1="3048.02" y1="4108.15" x2="3061.96" y2="4108.15" xlink:href="#linear-gradient2"/>
    <linearGradient id="linear-gradient11" x1="3047.39" y1="4095.47" x2="3052.92" y2="4089.94" xlink:href="#linear-gradient2"/>
    <linearGradient id="linear-gradient12" x1="3046.61" y1="4097.12" x2="3034.9" y2="4117.4" xlink:href="#linear-gradient2"/>
  </defs>
  <g>
    <g>
      <path class="st15" d="M48.75,17.74h4.05v1.15h-2.59v1.8h2.46v1.15h-2.46v3.2h-1.46v-7.29Z"/>
      <path class="st15" d="M53.67,19.94c.54-.25,1.27-.41,1.87-.41,1.64,0,2.32.68,2.32,2.27v.69c0,.54.01.95.02,1.35.01.41.03.78.06,1.2h-1.23c-.05-.28-.05-.64-.06-.8h-.02c-.32.6-1.02.93-1.66.93-.95,0-1.88-.57-1.88-1.6,0-.8.39-1.27.92-1.53.53-.26,1.22-.31,1.81-.31h.77c0-.87-.39-1.16-1.21-1.16-.6,0-1.19.23-1.66.58l-.04-1.2ZM55.31,24.13c.43,0,.76-.19.98-.48.23-.3.29-.69.29-1.11h-.61c-.63,0-1.56.1-1.56.93,0,.46.39.66.89.66Z"/>
      <path class="st15" d="M62.59,20.81c-.25-.11-.52-.2-.95-.2-.87,0-1.42.69-1.42,1.7s.47,1.75,1.45,1.75c.4,0,.84-.15,1.08-.25l.06,1.16c-.41.13-.82.18-1.4.18-1.76,0-2.65-1.2-2.65-2.84s.92-2.79,2.6-2.79c.56,0,.97.06,1.36.18l-.13,1.11Z"/>
      <path class="st15" d="M68.48,25.03h-1.33v-.73h-.02c-.43.52-1.03.86-1.76.86-1.27,0-1.83-.9-1.83-2.11v-3.39h1.4v2.87c0,.66.01,1.55.91,1.55,1.01,0,1.23-1.1,1.23-1.79v-2.63h1.4v5.38Z"/>
      <path class="st15" d="M69.76,17.2h1.4v7.83h-1.4v-7.83Z"/>
      <path class="st15" d="M72.87,20.68h-1.03v-1.02h1.03v-1.08l1.4-.45v1.52h1.24v1.02h-1.24v2.51c0,.46.13.89.66.89.25,0,.49-.05.64-.15l.04,1.11c-.29.08-.62.13-1.03.13-1.1,0-1.7-.68-1.7-1.74v-2.74Z"/>
      <path class="st15" d="M78.78,23.58h.02l1.29-3.93h1.42l-2.02,5.34c-.45,1.19-.77,2.36-2.23,2.36-.33,0-.67-.05-.99-.15l.09-1.03c.18.06.38.09.72.09.56,0,.91-.39.91-.96l-2.06-5.65h1.55l1.29,3.93Z"/>
      <path class="st15" d="M87.5,19.53c1.6,0,2.82,1.08,2.82,2.85,0,1.55-1.03,2.78-2.82,2.78s-2.81-1.23-2.81-2.78c0-1.78,1.22-2.85,2.81-2.85ZM87.5,24.07c1.08,0,1.36-.96,1.36-1.86,0-.82-.44-1.6-1.36-1.6s-1.35.79-1.35,1.6c0,.89.28,1.86,1.35,1.86Z"/>
      <path class="st15" d="M91.71,20.68h-1.03v-1.02h1.03v-.75c0-1.08.61-1.83,1.71-1.83.35,0,.75.05,1.02.11l-.11,1.16c-.13-.07-.3-.19-.61-.19-.47,0-.62.41-.62.82v.67h1.22v1.02h-1.22v4.35h-1.4v-4.35Z"/>
      <path class="st15" d="M98.08,17.74h2.34l1.73,5.52h.02l1.73-5.52h2.34v7.29h-1.4v-6.01h-.02l-1.96,6.01h-1.4l-1.96-6.01-.02.02v5.99h-1.4v-7.29Z"/>
      <path class="st15" d="M112.04,24.73c-.51.28-1.1.43-1.85.43-1.78,0-2.81-1.02-2.81-2.79,0-1.56.82-2.84,2.5-2.84,1.99,0,2.56,1.37,2.56,3.25h-3.72c.06.87.67,1.36,1.53,1.36.68,0,1.26-.25,1.79-.54v1.14ZM111.1,21.82c-.04-.68-.35-1.26-1.14-1.26s-1.18.54-1.24,1.26h2.38Z"/>
      <path class="st15" d="M117.03,24.43h-.02c-.42.52-.99.73-1.65.73-1.65,0-2.26-1.36-2.26-2.83s.61-2.8,2.26-2.8c.7,0,1.19.24,1.61.75h.02v-3.08h1.4v7.83h-1.36v-.61ZM115.74,24.07c.93,0,1.23-.98,1.23-1.74s-.36-1.71-1.25-1.71-1.16.99-1.16,1.71.26,1.74,1.18,1.74Z"/>
      <path class="st15" d="M119.67,17.34h1.4v1.34h-1.4v-1.34ZM119.67,19.65h1.4v5.38h-1.4v-5.38Z"/>
      <path class="st15" d="M125.87,20.81c-.25-.11-.52-.2-.95-.2-.87,0-1.42.69-1.42,1.7s.47,1.75,1.45,1.75c.4,0,.84-.15,1.08-.25l.06,1.16c-.41.13-.82.18-1.4.18-1.76,0-2.65-1.2-2.65-2.84s.92-2.79,2.6-2.79c.56,0,.97.06,1.36.18l-.13,1.11Z"/>
      <path class="st15" d="M126.93,17.34h1.4v1.34h-1.4v-1.34ZM126.93,19.65h1.4v5.38h-1.4v-5.38Z"/>
      <path class="st15" d="M129.6,19.65h1.33v.73h.02c.44-.62,1.03-.86,1.76-.86,1.27,0,1.83.9,1.83,2.11v3.39h-1.4v-2.87c0-.66-.01-1.55-.91-1.55-1.01,0-1.23,1.1-1.23,1.79v2.63h-1.4v-5.38Z"/>
      <path class="st15" d="M140.14,24.73c-.51.28-1.1.43-1.85.43-1.78,0-2.81-1.02-2.81-2.79,0-1.56.82-2.84,2.5-2.84,1.99,0,2.56,1.37,2.56,3.25h-3.72c.06.87.67,1.36,1.53,1.36.68,0,1.26-.25,1.79-.54v1.14ZM139.2,21.82c-.04-.68-.35-1.26-1.14-1.26s-1.18.54-1.24,1.26h2.38Z"/>
      <path class="st15" d="M49.14,28.4h-1.18v-.48h2.9v.48h-1.18v3.31h-.54v-3.31Z"/>
      <path class="st15" d="M51.39,27.64h.51v1.7h.01c.18-.29.5-.46.89-.46.72,0,1.04.44,1.04,1.19v1.64h-.51v-1.43c0-.65-.14-.96-.59-.99-.58,0-.84.47-.84,1.14v1.28h-.51v-4.07Z"/>
      <path class="st15" d="M56.82,31.6c-.2.07-.42.18-.87.18-.98,0-1.43-.6-1.43-1.5,0-.82.52-1.4,1.3-1.4.92,0,1.22.67,1.22,1.56h-1.98c0,.55.43.92.91.92.34,0,.73-.17.85-.28v.51ZM56.49,30.06c0-.42-.25-.77-.69-.77-.5,0-.71.41-.74.77h1.43Z"/>
      <path class="st15" d="M61.78,28.55c-.24-.14-.5-.21-.78-.21-.87,0-1.45.63-1.45,1.48s.64,1.48,1.43,1.48c.27,0,.64-.07.82-.18l.03.53c-.29.12-.64.14-.86.14-1.2,0-2-.77-2-1.98s.85-1.94,2-1.94c.29,0,.58.04.85.16l-.04.53Z"/>
      <path class="st15" d="M62.41,27.64h.51v1.7h.01c.18-.29.5-.46.89-.46.72,0,1.04.44,1.04,1.19v1.64h-.51v-1.43c0-.65-.14-.96-.59-.99-.58,0-.84.47-.84,1.14v1.28h-.51v-4.07Z"/>
      <path class="st15" d="M66.28,28.33h-.58v-.58h.58v.58ZM65.74,28.95h.51v2.77h-.51v-2.77Z"/>
      <path class="st15" d="M67.13,28.95h.49v.44h.01c.15-.31.52-.5.91-.5.72,0,1.04.44,1.04,1.19v1.64h-.51v-1.43c0-.65-.14-.96-.59-.99-.58,0-.84.47-.84,1.14v1.28h-.51v-2.77Z"/>
      <path class="st15" d="M72.56,31.6c-.2.07-.42.18-.87.18-.98,0-1.43-.6-1.43-1.5,0-.82.52-1.4,1.3-1.4.92,0,1.22.67,1.22,1.56h-1.98c0,.55.43.92.91.92.34,0,.73-.17.85-.28v.51ZM72.23,30.06c0-.42-.25-.77-.69-.77-.5,0-.71.41-.74.77h1.43Z"/>
      <path class="st15" d="M73.29,31.17c.2.13.49.2.63.2.23,0,.52-.1.52-.4,0-.5-1.2-.46-1.2-1.24,0-.57.43-.85.98-.85.24,0,.43.05.63.11l-.04.44c-.11-.07-.42-.14-.54-.14-.26,0-.49.11-.49.34,0,.56,1.2.4,1.2,1.29,0,.59-.47.86-.97.86-.26,0-.53-.03-.76-.15l.03-.46Z"/>
      <path class="st15" d="M77.74,31.6c-.2.07-.42.18-.87.18-.98,0-1.43-.6-1.43-1.5,0-.82.52-1.4,1.3-1.4.92,0,1.22.67,1.22,1.56h-1.98c0,.55.43.92.91.92.34,0,.73-.17.85-.28v.51ZM77.41,30.06c0-.42-.25-.77-.69-.77-.5,0-.71.41-.74.77h1.43Z"/>
      <path class="st15" d="M83.04,30.15c0,1.06-.54,1.63-1.47,1.63s-1.47-.57-1.47-1.63v-2.22h.54v2.15c0,.73.23,1.23.93,1.23s.93-.5.93-1.23v-2.15h.54v2.22Z"/>
      <path class="st15" d="M83.94,28.95h.49v.44h.01c.15-.31.52-.5.91-.5.72,0,1.04.44,1.04,1.19v1.64h-.51v-1.43c0-.65-.14-.96-.59-.99-.58,0-.84.47-.84,1.14v1.28h-.51v-2.77Z"/>
      <path class="st15" d="M87.8,28.33h-.58v-.58h.58v.58ZM87.26,28.95h.51v2.77h-.51v-2.77Z"/>
      <path class="st15" d="M89.9,31.71h-.61l-.99-2.77h.56l.75,2.26h.01l.76-2.26h.51l-.99,2.77Z"/>
      <path class="st15" d="M93.46,31.6c-.2.07-.42.18-.87.18-.98,0-1.43-.6-1.43-1.5,0-.82.52-1.4,1.3-1.4.92,0,1.22.67,1.22,1.56h-1.98c0,.55.43.92.91.92.34,0,.73-.17.85-.28v.51ZM93.12,30.06c0-.42-.25-.77-.69-.77-.5,0-.71.41-.74.77h1.43Z"/>
      <path class="st15" d="M94.35,28.95h.48v.43h.01c.14-.29.43-.49.72-.49.15,0,.23.02.34.04v.46c-.09-.04-.2-.05-.28-.05-.46,0-.75.43-.75,1.13v1.26h-.51v-2.77Z"/>
      <path class="st15" d="M96.33,31.17c.2.13.49.2.63.2.23,0,.52-.1.52-.4,0-.5-1.2-.46-1.2-1.24,0-.57.43-.85.98-.85.24,0,.43.05.63.11l-.04.44c-.11-.07-.42-.14-.54-.14-.26,0-.49.11-.49.34,0,.56,1.2.4,1.2,1.29,0,.59-.47.86-.97.86-.26,0-.53-.03-.76-.15l.03-.46Z"/>
      <path class="st15" d="M99.23,28.33h-.58v-.58h.58v.58ZM98.68,28.95h.51v2.77h-.51v-2.77Z"/>
      <path class="st15" d="M101.58,29.36h-.73v1.51c0,.32.2.49.43.49.16,0,.27-.05.35-.1v.43c-.11.03-.27.08-.43.08-.53,0-.85-.25-.85-.8v-1.62h-.62v-.41h.62v-.64l.51-.16v.8h.73v.41Z"/>
      <path class="st15" d="M102.14,32.46c.07.02.15.04.24.04.46,0,.61-.63.61-.68,0-.06-.07-.2-.1-.29l-.94-2.58h.56l.74,2.29h.01l.76-2.29h.52l-1.02,2.83c-.19.53-.39,1.15-1.06,1.15-.16,0-.25-.02-.35-.04l.03-.42Z"/>
      <path class="st15" d="M107.69,28.88c.84,0,1.41.61,1.41,1.45,0,.79-.58,1.45-1.41,1.45s-1.41-.66-1.41-1.45c0-.84.56-1.45,1.41-1.45ZM107.69,31.37c.6,0,.86-.54.86-1.04,0-.53-.32-1.04-.86-1.04s-.87.51-.87,1.04c0,.49.27,1.04.87,1.04Z"/>
      <path class="st15" d="M110.06,29.36h-.65v-.41h.65v-.26c0-.67.17-1.11.93-1.11.13,0,.24.02.34.03l-.02.41c-.06-.02-.16-.03-.24-.03-.44,0-.49.28-.49.66v.3h.73v.41h-.73v2.36h-.51v-2.36Z"/>
      <path class="st15" d="M113.32,27.93h.54v1.58h1.81v-1.58h.54v3.79h-.54v-1.73h-1.81v1.73h-.54v-3.79Z"/>
      <path class="st15" d="M118.4,28.88c.84,0,1.41.61,1.41,1.45,0,.79-.58,1.45-1.41,1.45s-1.41-.66-1.41-1.45c0-.84.56-1.45,1.41-1.45ZM118.4,31.37c.6,0,.86-.54.86-1.04,0-.53-.32-1.04-.86-1.04s-.87.51-.87,1.04c0,.49.27,1.04.87,1.04Z"/>
      <path class="st15" d="M120.48,28.95h.49v.44h.01c.15-.31.52-.5.91-.5.72,0,1.04.44,1.04,1.19v1.64h-.51v-1.43c0-.65-.14-.96-.59-.99-.58,0-.84.47-.84,1.14v1.28h-.51v-2.77Z"/>
      <path class="st15" d="M126.24,31.59c0,.84-.43,1.32-1.43,1.32-.29,0-.55-.04-.99-.19l.05-.47c.39.18.62.25,1,.25.54,0,.86-.36.86-.95v-.27h-.01c-.22.29-.58.43-.93.43-.79,0-1.18-.65-1.18-1.36s.4-1.47,1.24-1.47c.49,0,.76.18.91.48h.01v-.41h.47v2.65ZM125.73,30.36c0-.57-.27-1.07-.81-1.07s-.77.56-.77,1.03c0,.52.29.98.77.98s.81-.42.81-.94Z"/>
      <path class="st15" d="M128.59,27.93h.54v1.67l1.62-1.67h.72l-1.78,1.79,1.92,2h-.79l-1.69-1.86v1.86h-.54v-3.79Z"/>
      <path class="st15" d="M133.17,28.88c.84,0,1.41.61,1.41,1.45,0,.79-.58,1.45-1.41,1.45s-1.41-.66-1.41-1.45c0-.84.56-1.45,1.41-1.45ZM133.17,31.37c.6,0,.86-.54.86-1.04,0-.53-.32-1.04-.86-1.04s-.87.51-.87,1.04c0,.49.27,1.04.87,1.04Z"/>
      <path class="st15" d="M135.26,28.95h.49v.44h.01c.15-.31.52-.5.91-.5.72,0,1.04.44,1.04,1.19v1.64h-.51v-1.43c0-.65-.14-.96-.59-.99-.58,0-.84.47-.84,1.14v1.28h-.51v-2.77Z"/>
      <path class="st15" d="M141.02,31.59c0,.84-.43,1.32-1.43,1.32-.29,0-.55-.04-.99-.19l.05-.47c.39.18.62.25,1,.25.54,0,.86-.36.86-.95v-.27h-.01c-.22.29-.58.43-.93.43-.79,0-1.18-.65-1.18-1.36s.4-1.47,1.24-1.47c.49,0,.76.18.91.48h.01v-.41h.47v2.65ZM140.51,30.36c0-.57-.27-1.07-.81-1.07s-.77.56-.77,1.03c0,.52.29.98.77.98s.81-.42.81-.94Z"/>
    </g>
    <g>
      <path class="st15" d="M51.65,15.03v-.29h-2.24v.29s-.33,0-.33,0v-2.26c-.23.12-.47.22-.72.31l-.25-.28c.68-.21,1.35-.56,1.83-1.16h-1.57v-.32h1.99s0-.5,0-.5c-.54.03-1.09.09-1.65.09l-.23-.32,1.16-.03c.38-.01.77-.05,1.14-.1l.87-.12c.18-.03.36-.08.53-.12l.25.25c-.54.17-1.15.26-1.74.33v.55h2.01v.32s-2.01,0-2.01,0v1.08h1.28v2.32s-.34,0-.34,0ZM50.37,11.62c-.3.46-.74.82-1.19,1.08h1.19s0-1.08,0-1.08ZM51.65,13.04h-2.23v.5h2.23v-.5ZM51.65,14.41v-.55h-2.23v.55s2.23,0,2.23,0ZM52.69,12.98c-.53-.48-1.15-.82-1.82-.99.08-.09.16-.17.24-.27.67.18,1.26.52,1.8.99l-.22.26Z"/>
      <path class="st15" d="M55.86,12.42c-.16-.29-.47-.55-.79-.66l.2-.24c.33.1.7.38.85.68l-.26.22ZM55.12,14.82c.43-.45.69-1.29.79-1.93l.3.1c-.1.72-.35,1.42-.77,2l-.33-.17ZM56.1,11.2c-.14-.3-.57-.56-.81-.63l.25-.22c.31.11.62.31.81.61l-.26.24ZM57.48,14.81c-.26,0-.42-.13-.42-.34v-1.6c-.2.15-.35.28-.56.39l-.22-.27c.42-.19.78-.52.98-.93h-.9v-.31h.85v-.67h-.64v-.32h.64v-.63h.34v.63h1.02v-.63h.34v.63h.63v.32h-.63v.67h.86v.31h-.87c.14.33.61.74,1.11.97l-.23.27c-.24-.11-.49-.29-.68-.49v1.06h-1.71v.47c0,.1.05.16.19.16h1.49c.3,0,.26-.32.27-.54h.34c-.03.35-.03.85-.5.85h-1.69ZM57.62,12.06c-.07.21-.2.39-.35.57h1.66c-.16-.18-.28-.37-.4-.57h-.91ZM57.39,13.56h1.38v-.62h-1.38v.62ZM57.55,11.08v.67h1.02v-.67h-1.02Z"/>
      <path class="st15" d="M62.42,13.55v-2.39h1.83v-1.03s.35,0,.35,0v1.02h1.82v2.38h-.36v-.39h-1.45v1.88h-.36v-1.88h-1.47v.41h-.36ZM64.24,11.48h-1.47v1.35h1.47v-1.35ZM66.05,11.48h-1.45v1.35h1.45v-1.35Z"/>
      <path class="st15" d="M68.81,14.76c.77-.25,1.54-.53,2.17-1.1-.59-.61-.89-1.42-1.05-2.25h-.9v-.33h4.34v.33h-.88c-.15.82-.45,1.62-1.01,2.24.62.54,1.37.83,2.14,1.07l-.24.28c-.77-.24-1.51-.56-2.14-1.1-.14.08-.27.22-.41.31-.55.36-1.14.63-1.76.84l-.26-.29ZM70.28,11.41c.02.19.08.41.14.6,0,.02.02.04.02.05.11.32.24.62.43.9.11.15.22.32.36.43.51-.55.78-1.26.91-1.99h-1.86ZM71.26,11.02c-.2-.3-.47-.57-.79-.73l.24-.21c.12.04.22.13.33.2.19.14.36.35.5.53l-.29.21Z"/>
      <path class="st15" d="M77.91,11.48c.04-.44.05-.93.04-1.39.12.02.24.03.36.05.02.46.01.91-.03,1.34h2v.35s-1.64,0-1.64,0c.12.88.47,1.69,1.18,2.3.22.19.46.34.7.48l-.25.29c-.74-.43-1.43-1.16-1.7-1.96-.12-.35-.21-.72-.26-1.11-.05.01-.02,0-.04,0-.03.13-.04.17-.07.29-.14.48-.3.97-.55,1.39-.27.44-.63.81-1.06,1.11-.14.09-.27.19-.42.25-.09-.1-.18-.21-.26-.31.77-.34,1.44-1.06,1.72-1.85.1-.29.22-.61.23-.88h-1.7v-.34h1.75Z"/>
      <path class="st15" d="M85.26,14.64c0,.22-.08.32-.28.36-.25.03-.47.03-.73.02l-.25-.34h.7c.2-.03.22-.08.22-.2v-.4h-2.28v-.3h2.3v-.22c.27-.09.53-.19.8-.28h-2.21v-.31h2.93v.29c-.38.18-.78.32-1.19.46v.06h2.17v.3h-2.17v.54ZM85.81,11.96v-.28s.8,0,.8,0l.04-.37h-.85v-.3h.88s.03-.31.03-.31h-1.04v-.3h1.39s-.21,2.03-.21,2.03h.37v.75s-.32,0-.32,0v-.44h-3.8v.47h-.33v-.79h.37s-.19-1.86-.19-1.86c.4-.05.76-.18,1.08-.42l.19.25c-.27.21-.59.33-.92.4l.02.25h.88v.29h-.85l.04.38h.8v.29h-.77l.04.42h3.04l.05-.45h-.77ZM85.52,12.34c-.13-.15-.3-.29-.47-.4h-.03c-.18.15-.4.27-.6.37l-.23-.21c.17-.11.39-.19.56-.33-.15-.09-.33-.13-.49-.18l.19-.22c.11,0,.22.07.33.1l.23.1c.11-.09.21-.21.32-.31l.21.18c-.09.09-.16.2-.27.29.15.11.32.22.46.37l-.22.23ZM84.3,11.01c.16-.08.33-.18.47-.29-.13-.07-.28-.09-.41-.14l-.1-.02.13-.24c.22.05.43.11.64.2h.03c.12-.12.24-.26.34-.39l.22.17c-.08.13-.18.24-.29.35.14.1.27.2.4.32l-.2.25c-.13-.14-.27-.27-.44-.36-.18.12-.34.24-.54.35l-.23-.2Z"/>
      <path class="st15" d="M89.56,12.91v-.31h4.91v.31h-1.82v.26h1.36v1.86h-.34v-.24h-3.27v.28s-.33,0-.33,0v-1.9s1.33,0,1.33,0v-.26h-1.84ZM91.37,11.65c.27.05.45.11.67.24l-.09.22c-.07-.01-.12-.07-.18-.09-.2-.08-.4-.15-.62-.15-.21.16-.46.21-.72.23l-.07-.29c.26,0,.63-.05.79-.27h-.75v-.2s.77,0,.77,0v-.26h-.34c-.07.09-.15.16-.24.22l-.19-.18c.15-.09.34-.29.41-.46h-.57s0,1.49,0,1.49h1.9v.25h-2.22s0-2.01,0-2.01h2.26v.26h-1.17c-.02.08-.04.14-.07.21h.96s0,.23,0,.23h-.46s0,.26,0,.26h.66v.2h-.68s-.04.1-.04.1ZM90.5,13.74h.22c.22-.06.48-.08.59-.3h-.9s0,1.06,0,1.06h3.26s0-1.06,0-1.06h-1c0,.05-.01.09,0,.13.02.06.06.09.14.1h.67s0,.25,0,.25h-.72c-.11,0-.2-.03-.27-.09-.12-.1-.15-.24-.14-.38h-.67c-.12.31-.6.6-1.04.61l-.14-.31ZM90.87,14.08h2.31v.25h-2.31v-.25ZM91.71,13.16h.62v-.26s-.62,0-.62,0v.26ZM93.78,10.37v.46c0,.09.03.09.14.09h.43v.27h-.58c-.2,0-.27-.06-.28-.22v-.34h-.68c0,.28-.08.55-.31.72h1.41v.26c-.1.14-.27.34-.42.46.28.12.59.16.92.16l-.15.28c-.38-.02-.74-.1-1.05-.26-.27.14-.57.23-.88.28l-.15-.26c.28-.03.54-.1.78-.2-.14-.14-.28-.27-.37-.44h-.15v-.23l-.2.08-.16-.26c.3-.04.43-.25.43-.56v-.28h1.28ZM92.88,11.63c.1.12.2.24.34.3.09-.05.17-.12.25-.2.04-.03.07-.08.1-.1h-.69Z"/>
      <path class="st15" d="M99.28,14.64c0,.22-.08.32-.28.36-.26.03-.47.03-.73.02l-.25-.34h.71c.2-.03.22-.08.22-.2v-.4h-2.28v-.3h2.3v-.22c.27-.09.53-.19.8-.28h-2.21v-.31h2.93v.29c-.38.18-.78.32-1.19.46v.06h2.17v.3h-2.16v.54ZM99.83,11.96v-.28s.8,0,.8,0l.04-.37h-.85v-.3h.88s.03-.31.03-.31h-1.04v-.3h1.39s-.21,2.03-.21,2.03h.37v.75s-.32,0-.32,0v-.44h-3.8v.47h-.33v-.79h.37s-.19-1.86-.19-1.86c.4-.05.76-.18,1.08-.42l.19.25c-.27.21-.59.33-.92.4l.02.25h.88v.29h-.85l.04.38h.8v.29h-.77l.04.42h3.04l.05-.45h-.77ZM99.54,12.34c-.13-.15-.3-.29-.47-.4h-.03c-.18.15-.4.27-.6.37l-.23-.21c.17-.11.39-.19.56-.33-.15-.09-.33-.13-.49-.18l.19-.22c.11,0,.22.07.33.1l.23.1c.11-.09.21-.21.32-.31l.21.18c-.09.09-.16.2-.27.29.15.11.32.22.46.37l-.22.23ZM98.32,11.01c.16-.08.33-.18.47-.29-.13-.07-.28-.09-.41-.14l-.1-.02.13-.24c.22.05.43.11.63.2h.03c.12-.12.24-.26.34-.39l.22.17c-.08.13-.18.24-.29.35.14.1.27.2.4.32l-.2.25c-.13-.14-.27-.27-.44-.36-.18.12-.34.24-.54.35l-.23-.2Z"/>
      <path class="st15" d="M104.68,11.94c.12.17.28.33.36.52.16.3.17.75-.02,1.04-.16.19-.42.25-.65.18l-.13-.04-.07-.38c.18.04.44.22.6,0,.17-.35.03-.79-.24-1.05l-.22-.21.48-1.3h-.67s0,4.36,0,4.36h-.34v-4.69s1.36,0,1.36,0v.31l-.45,1.24ZM107.23,14.79c-.22,0-.31-.18-.33-.29v-1.56h-.5c-.02.61-.14,1.28-.66,1.68-.27.21-.56.37-.87.46l-.24-.29c.28-.06.53-.16.76-.31.43-.27.64-.71.66-1.2,0-.1.02-.22.02-.33h-.72v-.32h2.66v.32h-.77v1.35c0,.08.03.14.12.17h.43c.16-.03.18-.22.21-.35l.07-.42.33.15c-.13.51-.14.93-.64.94h-.53ZM107.78,11.54v-.49h-2.2v.53h-.34v-.85h1.33c-.16-.21-.42-.34-.67-.41l.2-.24c.31.06.6.24.81.52l-.17.12h1.38s0,.82,0,.82h-.34ZM107.69,11.69v.32h-2.02v-.32h2.02Z"/>
    </g>
  </g>
  <g>
    <g>
      <path class="st13" d="M39.28.27c-2.42-.66-19.71,1.31-28.69,14.13-5.85,8.35-5.92,17.79,2.3,23.55,8.22,5.76,17.07,2.46,22.91-5.89,8.98-12.82,4.92-29.74,3.47-31.79Z"/>
      <path class="st2" d="M39.28.27c1.45,2.05,5.51,18.97-3.47,31.79-5.85,8.35-14.69,11.65-22.91,5.89-.2-.14-.39-.28-.58-.42,2.32-5.78,5.92-12.38,10.55-18.99C28.23,10.88,34.04,4.53,39.28.27Z"/>
    </g>
    <g>
      <path class="st1" d="M2.35.1c2.43-.63,19.69,1.57,28.49,14.52,5.73,8.43,5.68,17.87-2.62,23.51-8.3,5.64-17.1,2.23-22.83-6.2C-3.41,18.99.87,2.13,2.35.1Z"/>
      <path class="st4" d="M2.36.09s0,0,0,0C.87,2.13-3.41,18.99,5.39,31.93c4.12,6.05,9.82,9.52,15.78,8.9,3.42-4.52,2.21-13.82-5.76-25.54C11.55,9.62,6.87,4.18,2.36.09Z"/>
      <path class="st9" d="M20.28,23.86c.3.62.64,1.22,1.04,1.8,2.99,4.4,8.05,6.47,12.61,5.59,1.26-3.23,1.2-6.84.01-10.48-5.52-.7-10.1.69-13.66,3.09Z"/>
      <path class="st8" d="M10.72,9.01c-.68-.28-4.1-1.38-7.09.3C-.56,11.65-.38,16.47.88,18.33c2.35,3.46,5.56,3.63,9.33,2.45,2.4-.75,5.81-3.32,7.43-1.97-.68-1.14-1.42-2.32-2.23-3.51-1.46-2.15-3.05-4.27-4.69-6.29Z"/>
      <path class="st5" d="M12.26,5.13c-1.35,1.21-1.67,2.93-1.54,3.87h0c1.64,2.02,3.23,4.14,4.69,6.29.81,1.19,1.55,2.36,2.23,3.51,0,0,0,0,0,0,.98-1.52,1.51-2.56,2.36-4.56,1.08-2.53,2.44-5.37.25-8.59-1.89-2.78-5.83-2.48-7.99-.53Z"/>
      <path class="st7" d="M11.31,38.07c3.03,2.11,6.4,3.12,9.87,2.76,2.53-3.35,2.52-9.33-.9-16.97-5.45,3.67-8.52,9.7-8.97,14.21Z"/>
      <path class="st6" d="M3.63,9.3c2.99-1.68,6.41-.57,7.09-.3C8.02,5.69,5.16,2.63,2.36.09c0,0,0,0,0,0C1.47,1.3-.39,7.7.07,15.41c0,0,.01,0,.02,0-.03-2.1.86-4.61,3.54-6.11Z"/>
      <path class="st3" d="M21.31,25.66c-.38-.56-.72-1.14-1-1.72,3.39,7.61,3.39,13.55.86,16.89,2.34-.24,4.71-1.11,7.05-2.7,2.82-1.92,4.68-4.27,5.69-6.87-4.56.88-9.61-1.19-12.61-5.59Z"/>
      <path class="st12" d="M18.59,4.16s0,0-.01,0c.64.33,1.22.82,1.68,1.49,2.19,3.21.83,6.05-.25,8.59-.85,2-1.39,3.05-2.36,4.56,0,0,0,0,0,0,1.04,1.75,1.91,3.44,2.64,5.06,3.56-2.4,8.13-3.79,13.66-3.09-.68-2.07-1.72-4.14-3.09-6.16-3.3-4.86-7.8-8.2-12.25-10.45Z"/>
      <path class="st11" d="M10.72,9.01h0c-.13-.94.19-2.66,1.54-3.87,1.64-1.47,4.28-2,6.29-.98,0,0,.03.02.03.01,0,0,0,0,.01,0C11.18.43,3.87-.3,2.35.1c0,0,0,0,0,0,2.8,2.54,5.67,5.6,8.37,8.92,0,0,0,0,0,0Z"/>
      <path class="st10" d="M10.21,20.78c-3.76,1.18-6.97,1.01-9.33-2.45-.46-.67-.77-1.73-.79-2.92h-.02c.31,5.31,1.73,11.24,5.32,16.52,1.73,2.54,3.73,4.62,5.92,6.14.45-4.5,3.52-10.54,8.97-14.21-.07-.18-1.4-3.11-2.63-5.05-1.63-1.35-5.04,1.22-7.43,1.97Z"/>
    </g>
    <g>
      <g>
        <path class="st14" d="M14.41,29.67h.22v.87h1.13v-.87h.22v1.96h-.22v-.88h-1.13v.88h-.22v-1.96Z"/>
        <path class="st14" d="M16.51,30.66h0c0-.55.41-1.02,1.01-1.02s1,.47,1,1.01h0c0,.55-.41,1.02-1.01,1.02s-1-.47-1-1.01ZM18.29,30.66h0c0-.45-.33-.82-.78-.82s-.77.36-.77.81h0c0,.45.33.82.77.82s.77-.36.77-.81Z"/>
        <path class="st14" d="M19.04,29.67h.21l1.24,1.58v-1.58h.22v1.96h-.18l-1.27-1.61v1.61h-.22v-1.96Z"/>
        <path class="st14" d="M21.22,30.66h0c0-.54.4-1.02.99-1.02.33,0,.54.09.73.26l-.14.17c-.15-.13-.32-.23-.6-.23-.44,0-.75.37-.75.81h0c0,.47.3.82.78.82.22,0,.43-.09.57-.2v-.49h-.6v-.2h.81v.78c-.18.16-.46.3-.79.3-.62,0-1-.45-1-1.01Z"/>
        <path class="st14" d="M24.5,29.67h.22v1.17l1.13-1.17h.29l-.84.86.88,1.11h-.28l-.76-.95-.42.42v.53h-.22v-1.96Z"/>
        <path class="st14" d="M26.35,30.66h0c0-.55.41-1.02,1.01-1.02s1,.47,1,1.01h0c0,.55-.41,1.02-1.01,1.02s-1-.47-1-1.01ZM28.13,30.66h0c0-.45-.33-.82-.78-.82s-.77.36-.77.81h0c0,.45.33.82.78.82s.77-.36.77-.81Z"/>
        <path class="st14" d="M28.88,29.67h.21l1.24,1.58v-1.58h.22v1.96h-.18l-1.27-1.61v1.61h-.22v-1.96Z"/>
        <path class="st14" d="M31.06,30.66h0c0-.54.4-1.02.99-1.02.33,0,.54.09.73.26l-.14.17c-.15-.13-.32-.23-.6-.23-.44,0-.75.37-.75.81h0c0,.47.3.82.78.82.22,0,.43-.09.57-.2v-.49h-.6v-.2h.81v.78c-.18.16-.46.3-.79.3-.62,0-1-.45-1-1.01Z"/>
      </g>
      <g>
        <path class="st14" d="M4.65,16.46v-.03c0-2.98,2.25-5.42,5.47-5.42,1.98,0,3.16.66,4.13,1.62l-1.47,1.69c-.81-.73-1.63-1.18-2.68-1.18-1.77,0-3.04,1.47-3.04,3.26v.03c0,1.8,1.24,3.3,3.04,3.3,1.2,0,1.93-.48,2.76-1.23l1.47,1.48c-1.08,1.15-2.28,1.87-4.3,1.87-3.09,0-5.38-2.38-5.38-5.39Z"/>
        <path class="st14" d="M22.07,11.18v6.01c0,1.66-.85,2.52-2.26,2.52s-2.26-.88-2.26-2.59v-5.93h-3.58c.7,0,1.27.57,1.27,1.27v4.72c0,3.09,1.72,4.66,4.54,4.66s4.6-1.56,4.6-4.73v-5.92h-2.31Z"/>
      </g>
      <g>
        <path class="st14" d="M10.22,25.91h0c0-1.06.75-1.93,1.82-1.93,1.23,0,1.79.95,1.79,2,0,.08,0,.18-.01.27h-2.56c.1.47.43.72.9.72.35,0,.6-.11.89-.38l.6.53c-.34.43-.84.69-1.5.69-1.11,0-1.92-.78-1.92-1.9ZM12.82,25.6c-.06-.47-.34-.78-.78-.78s-.71.31-.8.78h1.57Z"/>
        <path class="st14" d="M14.14,25.89h0c0-1.24.8-1.92,1.68-1.92.56,0,.9.25,1.15.55v-1.81h1.04v5.01h-1.04v-.53c-.25.34-.6.6-1.15.6-.86,0-1.68-.67-1.68-1.9ZM16.97,25.89h0c0-.62-.4-1.03-.89-1.03s-.9.4-.9,1.02h0c0,.63.41,1.03.9,1.03s.89-.4.89-1.02Z"/>
        <path class="st14" d="M20.21,25.91h0c0-1.06.8-1.93,1.93-1.93.69,0,1.13.23,1.47.62l-.64.69c-.23-.25-.47-.41-.84-.41-.52,0-.89.46-.89,1h0c0,.58.36,1.03.93,1.03.35,0,.59-.15.84-.39l.61.62c-.36.39-.77.67-1.5.67-1.11,0-1.92-.85-1.92-1.9Z"/>
        <path class="st14" d="M25.69,24.04h1.04v.52c.24-.31.55-.59,1.08-.59.79,0,1.25.52,1.25,1.37v2.38h-1.04v-2.05c0-.49-.23-.75-.63-.75s-.65.25-.65.75v2.05h-1.04v-3.68Z"/>
        <path class="st14" d="M29.51,25.91h0c0-1.06.75-1.93,1.82-1.93,1.23,0,1.79.95,1.79,2,0,.08,0,.18-.01.27h-2.56c.1.47.43.72.9.72.35,0,.6-.11.89-.38l.6.53c-.34.43-.84.69-1.5.69-1.11,0-1.92-.78-1.92-1.9ZM32.1,25.6c-.06-.47-.34-.78-.78-.78s-.71.31-.8.78h1.57Z"/>
        <path class="st14" d="M8.49,22.92l-1.26,2.03-1.26-2.03h-1.72c.32,0,.58.26.58.58v4.22h1.04v-3.12l1.34,2.03h.03l1.35-2.05v3.14h1.05v-4.81h-1.14Z"/>
        <g>
          <path class="st14" d="M19.18,22.71h-.52v.34c0,.32.26.58.57.58h.53v-.34c0-.32-.26-.58-.58-.58Z"/>
          <rect class="st14" x="18.69" y="24.04" width="1.04" height="3.68"/>
        </g>
        <g>
          <path class="st14" d="M24.46,22.71h-.51v.34c0,.32.25.58.57.58h.53v-.34c0-.32-.26-.58-.58-.58Z"/>
          <rect class="st14" x="23.97" y="24.04" width="1.04" height="3.68"/>
        </g>
      </g>
    </g>
  </g>
  <rect class="st0" x="41.46" y="17.76" width="7.28" height="7.28"/>
</svg>