<?xml version="1.0" encoding="UTF-8"?>
<svg id="_圖層_1" data-name="圖層_1" xmlns="http://www.w3.org/2000/svg" xmlns:xlink="http://www.w3.org/1999/xlink" version="1.1" viewBox="0 0 384.18 107.07">
  <!-- Generator: Adobe Illustrator 29.6.1, SVG Export Plug-In . SVG Version: 2.1.1 Build 9)  -->
  <defs>
    <style>
      .st0, .st1 {
        fill: none;
      }

      .st2 {
        fill: #f1c47d;
      }

      .st3 {
        fill: #23627b;
      }

      .st1 {
        stroke: #ead9af;
        stroke-miterlimit: 10;
        stroke-width: 1.25px;
      }

      .st4 {
        clip-path: url(#clippath);
      }
    </style>
    <clipPath id="clippath">
      <circle class="st0" cx="53.38" cy="53.33" r="53.33" transform="translate(-16.85 25.73) rotate(-23.52)"/>
    </clipPath>
  </defs>
  <g>
    <circle class="st2" cx="53.38" cy="53.33" r="53.33" transform="translate(-16.85 25.73) rotate(-23.52)"/>
    <g class="st4">
      <path class="st3" d="M121.1,77.66c.25,14.42-.62,50.04-.62,50.04,1.66,1.13,5.38,7.06,1.57,9.67-3.81,2.6-9.74-2.58-9.74-2.58-15.28,2.95-40.55,3.79-40.55,3.79,0,0-25.28.02-40.65-2.41,0,0-5.74,5.38-9.65,2.91-3.9-2.47-.38-8.53,1.24-9.71,0,0-1.24-35.59-1.49-50.01s.62-23.79.62-23.79c-1.66-1.13-5.38-8.79-1.57-11.39s11.46,2.58,11.46,2.58c15.28-2.95,38.82-3.79,38.82-3.79,0,0,23.56-.02,38.93,2.41,0,0,7.47-5.38,11.37-2.91,3.9,2.47.38,10.26-1.24,11.44,0,0,1.24,9.33,1.49,23.75Z"/>
      <path class="st2" d="M19.23,9.72L3.71,1.34-14.26,40.88l7.89,11.81c2.69,18.13,11.86,32.29,23.82,41.58,1.64,1.27,3.39,2.45,5.22,3.54,4.85,2.94,10.2,5.28,15.97,6.85.04.01.07.02.11.03h0c7.08,1.91,14.71,2.52,22.84,1.84,1.63-.14,2.32-.82,2.26-1.9-.07-1.26-1.14-1.68-3.41-1.95,0,0-5.63-.64-6.21-.78-.99-.24-.86-1.52.31-1.48,1.41.11,6.24.04,7.85-.13,2.58-.28,3.13-1.26,2.91-2.39-.28-1.43-1.92-1.63-4.07-1.64-2.13-.01-5.23-.02-6.82-.18-.54-.06-.99-.34-.99-.82,0-.62.9-.71.9-.71,4.08-.49,9.5-.93,9.2-3.34-.22-1.8-2.19-1.78-3.06-1.73-.87.05-7.5.65-10.23.41-3.28-.29-6.64-.37-.95-4.52,1.11-.81,3.12-2.49,1.66-4.37-1.51-1.95-3.54-1.07-5.54.3-5.45,3.73-14.03.99-20.32-4.33-13.57-11.86-18.35-37.21-5.86-67.24Z"/>
      <path class="st2" d="M108.86,59.44c-11.49,7.72-22.34,12.34-34.48,9.16-5.03-1.32-11.3-5.91-11.71-12.5-.15-2.42-.7-4.57-3.16-4.56-2.38,0-2.47,2.62-2.43,3.99.21,7.04-1.91,4.43-4.15,2.02-1.86-2.01-5.46-7.61-5.95-8.33-.49-.71-1.68-2.28-3.24-1.36-2.09,1.24.9,5.8,3.01,9.32,0,0,.48.76,0,1.15-.38.3-.88.12-1.25-.27-1.11-1.15-3.01-3.59-4.33-5.27-1.33-1.69-2.49-2.86-3.79-2.2-1.03.52-1.47,1.55-.11,3.76.85,1.38,3.76,5.23,4.71,6.28.75.9-.18,1.78-.98,1.15-.47-.37-4.42-4.42-4.42-4.42-1.61-1.62-2.6-2.21-3.63-1.5-.89.61-1.01,1.57-.11,2.95,4.45,6.84,9.61,12.48,15.47,16.9h0s.06.05.09.07c4.78,3.59,9.91,6.38,15.21,8.41,1.98.77,3.99,1.44,6,1.95,14.67,3.75,31.49,2.3,47.45-6.7"/>
    </g>
    <path class="st3" d="M73.74,21.38c-1.47,0-2.88-.52-4.02-1.48-2.63-2.22-2.96-6.16-.74-8.78.51-.6,1.4-.67,2-.17.6.51.67,1.4.17,2-1.21,1.43-1.02,3.57.41,4.79.69.59,1.57.87,2.48.79.9-.07,1.72-.5,2.3-1.19.51-.6,1.4-.67,2-.17.6.51.67,1.4.17,2-1.07,1.27-2.58,2.05-4.24,2.18-.18.01-.35.02-.52.02Z"/>
    <path class="st3" d="M92.13,37.67c-1.47,0-2.88-.52-4.02-1.48-2.63-2.22-2.96-6.16-.74-8.78.51-.6,1.4-.67,2-.17.6.51.67,1.4.17,2-1.21,1.43-1.02,3.57.41,4.79.69.59,1.57.87,2.48.79.9-.07,1.72-.5,2.3-1.19.51-.6,1.4-.67,2-.17.6.51.67,1.4.17,2-1.07,1.27-2.58,2.05-4.24,2.18-.17.01-.35.02-.52.02Z"/>
    <path class="st3" d="M79.82,31.69c.92.82.63,2.37-.55,2.73-1.49.46-2.93-.14-4.18-1.25-1.26-1.11-2.02-2.46-1.74-4,.22-1.21,1.72-1.69,2.64-.87l3.83,3.39Z"/>
  </g>
  <g>
    <path class="st3" d="M152.08,42.81c-1.84-.79-3.43-1.78-4.69-2.66.52.58.93,1.32.93,2.17v2.74c0,1.84-1.59,3.32-3.43,3.32h-8c-1.84,0-3.4-1.48-3.4-3.32v-2.74c0-.8.36-1.48.82-2.06-1.32.88-2.93,1.84-4.66,2.6-.41.19-.9-.03-1.1-.44s0-.9.41-1.1c2.44-1.1,4.74-2.6,6.14-3.65h-5.56c-.41,0-.74-.36-.74-.77s.33-.77.74-.77h7.02v-1.04h-3.26c-.41,0-.74-.36-.74-.77s.33-.74.74-.74h3.26v-1.07h-3.67c-.41,0-.74-.3-.74-.71s.33-.77.74-.77h3.67v-.44c0-.47.38-.85.85-.85s.85.38.85.85v.44h5.37v-.44c0-.47.38-.85.85-.85s.88.38.88.85v.44h3.73c.41,0,.71.36.71.77s-.3.71-.71.71h-3.73v1.07h3.23c.41,0,.74.33.74.74s-.33.77-.74.77h-3.23v1.04h6.69c.41,0,.77.36.77.77s-.36.77-.77.77h-5.18c1.81,1.42,3.75,2.66,5.87,3.59.41.19.63.69.44,1.1-.19.41-.69.63-1.1.44ZM152.68,32.23c0,.47-.41.82-.88.82s-.88-.38-.88-.85l.03-1.04c.03-.88-.71-1.64-1.59-1.64h-17.02c-.88,0-1.59.8-1.59,1.67v1.04c0,.47-.38.82-.85.82s-.9-.36-.9-.85v-1.04c0-1.84,1.45-3.26,3.34-3.26h7.95v-1.15c0-.52.41-.93.93-.93s.9.41.9.93v1.15h7.24c1.81,0,3.32,1.45,3.32,3.29v1.04ZM136.81,50.05c-1.34.38-3.87.96-5.32,1.18-.47.08-.9-.27-.99-.74-.08-.47.25-.88.71-.96,1.73-.27,3.45-.63,5.13-1.1.44-.14.93.14,1.07.58.14.44-.17.9-.6,1.04ZM146.63,44.29v-1.15h-11.43v1.15h11.43ZM146.51,41.75c-.25-.66-.88-1.21-1.62-1.21h-8c-.74,0-1.37.55-1.62,1.21h11.24ZM135.28,45.69c.22.69.88,1.18,1.62,1.18h8c.74,0,1.4-.49,1.62-1.18h-11.24ZM144.32,37.69h-6.58c-.36.36-1.51,1.23-1.89,1.51.33-.11.69-.19,1.04-.19h8c.47,0,.93.11,1.34.27-1.07-.82-1.73-1.43-1.92-1.59ZM143.64,33.61v-1.1h-5.37v1.1h5.37ZM143.64,36.18v-1.12h-5.37v1.12h5.37ZM150.43,51.28c-1.18-.25-4.09-1.01-5.02-1.29-.44-.14-.77-.6-.63-1.04.11-.44.57-.68,1.07-.58,1.51.38,3.32.88,4.96,1.23.47.11.74.52.63.99-.11.47-.55.8-1.01.69Z"/>
    <path class="st3" d="M159.52,49.94c-.25.44-.85.66-1.29.41s-.63-.82-.38-1.26c.6-1.12,1.34-2.74,1.84-3.97.19-.47.77-.74,1.23-.55.47.19.72.74.52,1.21-.44,1.12-1.37,3.15-1.92,4.17ZM177.06,50.98c-.47.08-.93-.27-.99-.74-.08-.55.3-.9.8-1.01,1.7-.36,2.55-1.95,2.68-3.65.11-1.4-.57-2.71-2.14-2.71h-12.83c-2.5,0-4.39-1.56-4.39-4.11v-7.32c0-2.22,1.95-4.19,4.17-4.19h15.1c.49,0,.88.38.88.88s-.38.88-.88.88h-8.36v3.02h6.82c.47,0,.85.38.85.85s-.38.88-.85.88h-6.82v2.63h6.82c.47,0,.85.38.85.85s-.38.88-.85.88h-6.82v3.04h6.3c2.52,0,4.19,2.03,4.03,4.58-.19,2.74-1.84,4.88-4.39,5.26ZM169.3,32.02v-2.99h-4.93c-1.23,0-2.33,1.15-2.33,2.41v.58h7.26ZM169.3,36.37v-2.63h-7.26v2.63h7.26ZM169.3,41.11v-3.01h-7.26v.66c0,1.62,1.02,2.36,2.55,2.36h4.71ZM167.16,48.35c.14.47-.11.96-.57,1.12-.47.14-.93-.11-1.1-.58l-.96-2.88c-.17-.47.11-.96.57-1.12.47-.16.99.11,1.12.58l.93,2.88ZM172.15,47.45c.19.41,0,.93-.41,1.12-.41.19-.9,0-1.1-.41l-1.12-2.41c-.19-.41,0-.93.41-1.12.41-.19.9,0,1.1.41l1.12,2.41ZM176.76,46.13c.25.38.14.9-.25,1.15-.38.25-.93.14-1.18-.25l-1.18-1.84c-.25-.38-.11-.9.27-1.15.38-.25.9-.14,1.15.25l1.18,1.84Z"/>
    <path class="st3" d="M209.6,33.52c-4.55-2.11-8.25-4.44-10-5.59-.27-.19-.63-.27-.96-.27s-.69.11-.99.3c-1.76,1.12-5.43,3.37-10,5.51-.44.19-.96.03-1.15-.41-.19-.44-.03-.96.41-1.15,4.47-2.08,8.08-4.33,9.81-5.43.57-.38,1.26-.55,1.92-.55s1.32.16,1.89.55c1.7,1.12,5.37,3.43,9.79,5.48.44.19.63.71.44,1.15-.19.44-.71.6-1.15.41ZM205.19,40.9h-13.37c-2.03,0-3.56-1.51-3.56-3.51s1.53-3.51,3.56-3.51h13.35c2.03,0,3.56,1.51,3.56,3.51s-1.53,3.51-3.54,3.51ZM197.51,39.28v-3.78h-5.7c-1.12,0-1.84.77-1.84,1.89s.71,1.89,1.84,1.89h5.7ZM206.75,47.39c0,1.89-1.67,3.4-3.56,3.4h-9.29c-1.89,0-3.51-1.51-3.51-3.4v-1.59c0-1.89,1.62-3.4,3.51-3.4h9.29c1.89,0,3.56,1.51,3.56,3.4v1.59ZM204.97,45.72c-.05-.93-.82-1.7-1.78-1.7h-9.29c-.96,0-1.73.77-1.78,1.7h12.85ZM204.97,47.28h-12.85v.11c0,.99.8,1.78,1.78,1.78h9.29c.99,0,1.78-.8,1.78-1.78v-.11ZM193.73,38.46l-1.01-.96c-.33-.3-.33-.85-.03-1.18.3-.33.85-.33,1.18-.03l1.01.96c.33.3.33.85.03,1.18-.3.33-.85.33-1.18.03ZM202.34,32.54h-7.62c-.44,0-.79-.38-.79-.82s.35-.79.79-.79h7.62c.44,0,.79.36.79.79s-.35.82-.79.82ZM205.16,35.5h-5.98v3.78h5.98c1.12,0,1.86-.77,1.86-1.89s-.74-1.89-1.86-1.89ZM203.11,38.57c-.33.33-.85.33-1.18,0-.33-.33-.33-.85,0-1.18l1.07-1.07c.33-.33.85-.33,1.18,0,.33.33.33.85,0,1.18l-1.07,1.07Z"/>
    <path class="st3" d="M238.75,43.44h-7.95c2.36,2.08,5.04,3.81,7.92,5.1.44.19.63.69.44,1.12-.19.44-.69.63-1.12.44-5.1-2.27-8.41-5.34-9.43-6.39v6.55c0,.49-.38.88-.88.88s-.9-.38-.9-.88v-6.41c-.93.88-4.47,4-9.76,6.19-.44.19-.9-.03-1.1-.47-.19-.44.03-.93.47-1.12,3.89-1.62,6.77-3.75,8.28-5.02h-8.03c-.47,0-.82-.38-.82-.85s.35-.82.82-.82h10.14v-1.78c-1.51-.14-2.68-1.42-2.68-2.99v-5.26c0-1.51,1.1-2.8,2.55-2.99l.71-1.95c.17-.47.66-.69,1.12-.52.47.16.71.68.55,1.15l-.49,1.32c1.48.16,2.66,1.42,2.66,2.99v5.26c0,1.53-1.15,2.82-2.63,2.99v1.78h10.14c.47,0,.82.36.82.82s-.36.85-.82.85ZM223.65,38.37c.17.41,0,.88-.41,1.04-.6.27-.96-.11-1.18-.55l-5.32.55c-.44.05-.82-.25-.85-.71-.03-.44.3-.85.74-.88l.6-.03c.6-.77,1.73-2.44,2.11-3.02l-2.52-2.49c-.58-.58-.03-1.56.74-1.37l2.28-3.45c.25-.38.79-.49,1.18-.25.38.25.47.79.22,1.18l-2.39,3.65,1.42,1.4,1.62-2.33c.27-.38.77-.47,1.15-.19.38.27.47.77.19,1.15l-3.89,5.54,2.17-.16c-.19-.47-.17-.99.35-1.21.41-.16.88,0,1.04.41l.74,1.73ZM229.59,33.52v-1.78c0-.74-.6-1.34-1.34-1.34h-1.12c-.74,0-1.34.6-1.34,1.34v1.78h3.81ZM229.59,35.19h-3.81v1.81c0,.74.6,1.37,1.34,1.37h1.12c.74,0,1.34-.63,1.34-1.37v-1.81ZM239.19,38.73c.17.41-.03.88-.44,1.04-.52.22-.9-.05-1.18-.66l-5.15.55c-.44.05-.85-.27-.88-.74-.03-.44.3-.82.74-.85l.3-.03c.63-.8,1.34-1.95,2-2.93l-2.5-2.66c-.55-.58.03-1.51.77-1.34l2.3-3.43c.25-.38.79-.49,1.18-.22.38.27.49.79.22,1.18l-2.44,3.62,1.4,1.48,1.64-2.38c.25-.38.77-.49,1.15-.22.38.27.44.79.19,1.18l-3.81,5.56,2.33-.22-.11-.25c-.19-.41.03-.9.44-1.07.41-.16.88.03,1.04.44l.79,1.95Z"/>
    <path class="st3" d="M252.38,44.27c0,2.14-1.67,3.7-3.73,3.7s-3.73-1.56-3.73-3.7v-13.46c0-2.17,1.56-3.75,3.73-3.75s3.73,1.59,3.73,3.75v13.46ZM250.68,33.52v-2.71c0-1.21-.8-2.06-2.03-2.06s-2.03.85-2.03,2.06v2.71h4.06ZM250.68,39.36v-4.17h-4.06v4.17h4.06ZM250.68,41.03h-4.06v3.23c0,1.18.9,1.97,2.03,1.97s2.03-.8,2.03-1.97v-3.23ZM267.92,50.08c-.33.36-.77.58-1.26.58-.82,0-1.48-.6-1.97-1.18-2.08-2.47-2.91-5.87-3.32-9.02h-4.91v7.54l4-1.32c.44-.14.93.08,1.07.52.14.44-.11.96-.55,1.1l-7.15,2.27c-.44.14-.93-.08-1.07-.55-.14-.44.11-.96.55-1.1l1.42-.44v-17.84c0-2.06,1.62-3.73,3.67-3.73h5.56c2.19,0,3.64,1.7,3.64,3.81s-1.48,3.78-3.64,3.78h-1.24c0,1.45.08,2.91.19,4.25h4.88c.47,0,.88.36.88.82s-.41.88-.88.88h-4.69c.35,2.71,1.12,5.78,2.9,7.89.19.22.36.36.47.44.22.14.28-.03.38-.27s.19-.58.25-.85c.11-.47.52-.79,1.01-.71s.82.52.74,1.01c-.14.71-.47,1.56-.96,2.11ZM263.97,28.67h-5.56c-1.1,0-1.95.88-1.95,1.97v2.19h7.51c1.21,0,1.89-.93,1.89-2.11s-.69-2.06-1.89-2.06ZM261.18,38.76c-.11-1.37-.17-2.8-.17-4.25h-4.55v4.25h4.72Z"/>
    <path class="st3" d="M296.65,37.22h-2.93v4.93h2.52c.47,0,.82.41.82.88s-.36.82-.82.82h-21.38c-.47,0-.82-.36-.82-.82s.36-.88.82-.88h2.44v-4.93h-3.26c-.47,0-.85-.41-.85-.88s.38-.85.85-.85h3.26v-4.41c-.41.52-.79,1.07-1.23,1.59-.3.36-.85.38-1.21.08-.36-.3-.41-.79-.11-1.15,1.37-1.65,2.91-3.81,3.78-5.15.25-.38.82-.52,1.21-.27.38.25.49.77.25,1.18-.19.3-.63,1.01-.93,1.4h16.72c.47,0,.85.36.85.82s-.38.88-.85.88h-2.05v5.04h2.93c.47,0,.85.38.85.85s-.38.88-.85.88ZM275.5,50.19c-.33.36-.85.41-1.21.08-.35-.33-.41-.85-.08-1.21.82-.93,1.76-2.25,2.25-3.07.25-.41.79-.63,1.21-.38s.52.82.27,1.23c-.6,1.04-1.7,2.49-2.44,3.34ZM282.18,35.52v-5.07h-3.18v5.07h3.18ZM282.18,42.16v-4.96h-3.18v4.96h3.18ZM284.1,49.56c.11.47-.19.9-.66,1.01s-.93-.19-1.02-.66l-.57-2.8c-.08-.47.17-.88.63-.99s.9.16,1.01.63l.6,2.8ZM287.14,35.52v-5.07h-3.29v5.07h3.29ZM287.14,42.16v-4.96h-3.29v4.96h3.29ZM290.24,49.36c.16.44-.06.88-.49,1.04-.44.16-.93-.08-1.1-.52l-.93-2.71c-.14-.44.05-.9.49-1.07.44-.16.9.08,1.07.52l.96,2.74ZM291.99,35.52v-5.07h-3.21v5.07h3.21ZM291.99,42.16v-4.96h-3.21v4.96h3.21ZM296.57,50c-.36.27-.9.22-1.18-.16-.58-.77-1.56-2.44-1.86-3.04-.22-.41-.05-.9.35-1.12.41-.22.9-.08,1.12.36.33.63,1.07,1.95,1.73,2.82.28.38.22.88-.16,1.15Z"/>
    <path class="st3" d="M326.43,40.46c0,.47-.38.88-.85.88s-.9-.36-.9-.82v-.74c-.03-.88-.71-1.62-1.59-1.62h-17.46c-.88,0-1.56.74-1.56,1.62v.88c0,.47-.41.85-.88.85-.44,0-.88-.38-.88-.82l.03-.9c.05-1.78,1.51-3.21,3.29-3.21h1.32v-4.55c0-1.51,1.32-2.66,2.82-2.66h2.96l.41-.99h-9.59c-.47,0-.82-.36-.82-.82s.35-.82.82-.82h21.63c.47,0,.82.36.82.82s-.35.82-.82.82h-10.09l-.41.99h4.47c1.51,0,2.82,1.18,2.82,2.66v4.55h1.12c1.78,0,3.34,1.43,3.34,3.21v.69ZM325.09,50.95c-5.04-.05-8.55-.9-10.91-1.81-3.26,1.07-6.66,1.67-10.09,2.03-.44.05-.82-.27-.88-.71-.05-.44.27-.8.71-.85,3.07-.3,5.78-.85,8.06-1.48-1.04-.58-1.51-1.01-1.56-1.04-.33-.3-.36-.79-.05-1.12.3-.33.79-.33,1.12-.05.77.66,1.78,1.15,2.71,1.53,1.89-.66,3.37-1.42,4.25-2.03h-8.14c-.82.47-1.84,1.01-2.9,1.51-.38.19-.88.03-1.07-.38-.19-.41,0-.88.41-1.07,1.81-.82,3.54-1.81,5.18-2.91-1.21-.33-2.14-1.07-2.14-2.38v-.63c0-.44.38-.82.82-.82s.79.38.79.82v.63c0,.82,1.37,1.1,2.85,1.1,2.16,0,3.32-.36,3.7-.74.17-.36.58-.52.96-.41.44.14.69.58.55,1.01-.05.22-.35.68-1.12,1.04-.77.36-1.97.66-4.09.66-.41,0-.79-.03-1.15-.05.25.38.11.85-.25,1.1h5.98c1.42,0,2.11,1.7.93,2.6-.77.58-1.92,1.21-3.29,1.78,2.08.58,4.96,1.04,8.63,1.1.44,0,.79.36.79.8s-.38.79-.82.79ZM306.5,42.7c-.27.36-.82.44-1.18.16-.36-.27-.44-.82-.17-1.18l1.48-1.89c.27-.36.82-.41,1.18-.14.35.27.41.82.14,1.18l-1.45,1.86ZM320.32,31.85c-.05-.58-.6-1.04-1.18-1.04h-9.37c-.57,0-1.07.44-1.18,1.04h11.73ZM320.35,34.24v-1.01h-11.76v1.01h11.76ZM320.35,36.65v-1.04h-11.76v1.04h11.76ZM315.49,39.42c.3.33.28.82-.05,1.12-.33.3-.82.27-1.12-.05l-.68-.74c-.3-.33-.3-.85.03-1.15.33-.3.82-.27,1.12.05l.71.77ZM323.5,41.06c.3.36.27.88-.08,1.18-.35.3-.88.27-1.18-.08l-1.37-1.59c-.3-.36-.25-.88.11-1.18.35-.3.88-.27,1.18.08l1.34,1.59Z"/>
    <path class="st3" d="M341.54,32.67h-9.95c-.47,0-.85-.38-.85-.85s.38-.85.85-.85h9.95c.47,0,.85.38.85.85s-.38.85-.85.85ZM341.32,46.95c0,1.89-1.59,3.67-3.67,3.67h-1.84c-1.95,0-3.7-1.56-3.7-3.65v-1.15c0-2.03,1.64-3.67,3.67-3.67h1.86c2.03,0,3.67,1.64,3.67,3.67v1.12ZM340.47,28.84h-7.43c-.47,0-.88-.41-.88-.88s.41-.88.88-.88h7.43c.47,0,.88.41.88.88s-.41.88-.88.88ZM340.31,36.51h-7.26c-.47,0-.82-.38-.82-.85s.36-.85.82-.85h7.26c.47,0,.85.38.85.85s-.38.85-.85.85ZM340.31,40.21h-7.26c-.47,0-.82-.38-.82-.85s.36-.82.82-.82h7.26c.47,0,.85.36.85.82s-.38.85-.85.85ZM339.52,45.83c0-1.07-.8-1.95-1.86-1.95h-1.86c-1.07,0-1.86.85-1.86,1.92v1.15c0,1.07.82,1.92,1.89,1.92h1.81c1.26,0,1.89-1.43,1.89-1.92v-1.12ZM354.75,36.15h-4.33v13.92c0,.52-.44.96-.96.96s-.93-.44-.93-.96v-13.92h-4.63c-.49,0-.9-.44-.9-.93s.41-.9.9-.9h4.63v-7.15c0-.52.41-.93.93-.93s.96.41.96.93v7.15h4.33c.49,0,.9.41.9.9s-.41.93-.9.93Z"/>
    <path class="st3" d="M375.87,31.82h-.9c-.17,1.56-1.51,2.77-3.12,2.77h-2.85v1.07h4.99c.38,0,.71.3.71.69s-.33.71-.71.71h-4.99v1.04h6.83c.41,0,.71.33.71.74s-.3.71-.71.71h-15.32c-.41,0-.74-.3-.74-.71s.33-.74.74-.74h6.82v-1.04h-5.18c-.38,0-.71-.33-.71-.71s.33-.69.71-.69h5.18v-1.07h-5.1c-.41,0-.74-.33-.74-.74s.33-.71.74-.71h5.1v-1.32h-6.66c-.38,0-.71-.33-.71-.71s.33-.71.71-.71h6.66v-1.26l-5.1.03c-.41,0-.74-.33-.74-.74s.33-.71.74-.71h5.1v-.74c0-.47.36-.82.82-.82s.85.36.85.82v.71h2.85c1.59,0,2.88,1.18,3.1,2.71h.93c.38,0,.71.33.71.71s-.33.71-.71.71ZM375.38,49.86l-14.39.77c-.44.03-.77-.3-.79-.74-.03-.44.27-.77.71-.79l14.39-.77c.44-.03.8.27.82.71.03.44-.3.79-.74.82ZM374.72,44.38c0,1.73-1.4,3.12-3.13,3.12h-7.02c-1.73,0-3.12-1.4-3.12-3.12v-.6c0-1.73,1.4-3.12,3.12-3.12h7.02c1.73,0,3.13,1.4,3.13,3.12v.6ZM367.45,43.31v-1.23h-2.88c-.77,0-1.37.52-1.56,1.23h4.44ZM367.45,46.05v-1.32h-4.44c.17.77.77,1.32,1.56,1.32h2.88ZM373.48,30.4c-.19-.71-.85-1.26-1.64-1.26h-2.85v1.26h4.5ZM368.99,31.82v1.32h2.85c.79,0,1.48-.55,1.64-1.32h-4.5ZM373.15,43.31c-.19-.71-.79-1.23-1.56-1.23h-2.49v1.23h4.06ZM369.1,44.73v1.32h2.49c.8,0,1.4-.55,1.56-1.32h-4.06ZM379.49,44.49c0,.47-.38.85-.85.85s-.85-.38-.85-.85v-14.86c0-.47.38-.85.85-.85s.85.38.85.85v14.86ZM383.51,47.17c0,1.67-.96,3.29-2.68,3.59-.47.08-.9-.25-.99-.71-.08-.49.27-.88.74-.99.88-.19,1.21-1.07,1.21-1.89v-19.9c0-.47.38-.85.85-.85s.88.38.88.85v19.9Z"/>
  </g>
  <g>
    <path class="st3" d="M129.18,83.82c-.59-.33-1.05-.79-1.4-1.37-.11-.17-.16-.33-.16-.48,0-.22.09-.42.27-.58s.36-.24.55-.24c.26,0,.53.15.8.45.47.69,1.09,1.04,1.87,1.04.65,0,1.21-.22,1.66-.66.45-.44.68-.98.68-1.62v-7.83c0-.24.09-.44.27-.61.18-.17.39-.25.63-.25.26,0,.47.08.63.24.16.16.24.37.24.62v7.83c0,.73-.18,1.39-.53,2-.36.61-.85,1.09-1.47,1.45-.63.36-1.32.54-2.1.54-.7,0-1.35-.17-1.94-.5Z"/>
    <path class="st3" d="M146.19,81.97c-.42.74-.98,1.32-1.7,1.73s-1.51.62-2.38.62-1.66-.21-2.38-.62c-.72-.42-1.29-.99-1.7-1.73-.42-.74-.62-1.57-.62-2.5s.21-1.77.62-2.52c.42-.75.98-1.33,1.7-1.75.72-.42,1.51-.62,2.38-.62s1.66.21,2.38.62c.72.42,1.29,1,1.7,1.75.42.75.63,1.59.63,2.52s-.21,1.76-.63,2.5ZM144.72,77.75c-.27-.51-.63-.9-1.09-1.18-.46-.28-.97-.42-1.53-.42s-1.07.14-1.53.42c-.46.28-.82.67-1.09,1.18-.27.51-.4,1.08-.4,1.72s.14,1.2.4,1.69c.27.5.63.89,1.09,1.17.46.28.97.42,1.53.42s1.07-.14,1.53-.42c.46-.28.82-.67,1.09-1.17.27-.5.4-1.06.4-1.69s-.13-1.22-.4-1.72Z"/>
    <path class="st3" d="M155.19,75.03c.63.3.94.68.94,1.14,0,.2-.07.38-.2.54-.13.16-.3.24-.5.24-.15,0-.28-.02-.37-.07-.09-.05-.21-.12-.37-.23-.07-.07-.18-.15-.34-.25-.14-.07-.34-.13-.61-.18s-.5-.07-.71-.07c-.62,0-1.17.14-1.64.43-.48.29-.85.68-1.11,1.19-.26.51-.39,1.07-.39,1.69s.13,1.2.38,1.7c.26.5.61.89,1.08,1.18.46.29.99.43,1.59.43s1.12-.09,1.5-.29c.08-.05.2-.12.34-.23.12-.09.22-.17.31-.21s.2-.07.33-.07c.24,0,.43.07.56.22.14.15.21.34.21.58s-.16.5-.47.74c-.32.24-.74.44-1.27.6s-1.1.23-1.7.23c-.9,0-1.7-.21-2.39-.63-.69-.42-1.22-1-1.6-1.75-.38-.74-.56-1.57-.56-2.49s.2-1.74.59-2.49c.39-.74.94-1.33,1.64-1.75.7-.42,1.51-.63,2.41-.63s1.72.15,2.35.45Z"/>
    <path class="st3" d="M165.85,83.29c0,.24-.09.44-.28.6-.18.16-.38.24-.58.24-.26,0-.47-.09-.63-.29l-3.51-3.73-1.07.96v2.21c0,.24-.08.44-.24.61s-.36.25-.6.25c-.25,0-.46-.08-.62-.25-.16-.17-.24-.37-.24-.61v-11.49c0-.24.08-.44.24-.61.16-.17.37-.25.62-.25.24,0,.44.08.6.25s.24.37.24.61v7.24l4.37-4.01c.2-.18.41-.27.63-.27.2,0,.38.09.55.26.17.17.25.35.25.54,0,.24-.11.45-.34.64l-3.09,2.75,3.42,3.71c.18.19.27.4.27.62Z"/>
    <path class="st3" d="M175.39,79.66c-.17.15-.36.22-.59.22h-6.28c.08.87.41,1.56.99,2.09.58.52,1.28.79,2.11.79.57,0,1.03-.08,1.39-.25s.67-.38.95-.64c.18-.11.35-.16.52-.16.2,0,.37.07.51.21.14.14.2.31.2.5,0,.25-.12.48-.35.68-.35.35-.8.64-1.38.88-.57.24-1.15.36-1.75.36-.96,0-1.81-.2-2.54-.61-.73-.4-1.3-.97-1.7-1.69-.4-.73-.6-1.55-.6-2.46,0-1,.2-1.88.61-2.63.41-.76.95-1.33,1.62-1.74.67-.4,1.4-.61,2.17-.61s1.47.2,2.14.59c.67.39,1.2.93,1.61,1.62.4.69.61,1.46.62,2.32-.01.21-.1.4-.27.54ZM169.56,76.71c-.49.37-.81.95-.96,1.74h5.26v-.14c-.06-.63-.34-1.15-.85-1.55-.51-.4-1.08-.61-1.72-.61s-1.24.19-1.73.56Z"/>
    <path class="st3" d="M185.11,74.96c.16.17.24.37.24.61v7.71c0,1.49-.41,2.6-1.23,3.34-.82.74-1.9,1.11-3.25,1.11-.44,0-.88-.04-1.3-.12-.43-.08-.78-.2-1.05-.34-.44-.2-.66-.48-.66-.82,0-.06.01-.14.04-.23.07-.2.17-.36.3-.46s.28-.16.45-.16c.09,0,.18.02.27.05.37.17.7.3.98.39.28.09.62.14,1,.14,1.84,0,2.77-.95,2.77-2.84v-.36c-.32.43-.73.76-1.24,1-.5.24-1.08.36-1.74.36-.99,0-1.76-.32-2.31-.95-.56-.63-.83-1.46-.83-2.48v-5.33c0-.25.08-.46.23-.62s.36-.24.61-.24.46.08.61.25.24.37.24.61v4.89c0,.78.17,1.37.52,1.74.34.38.87.56,1.57.56s1.24-.21,1.68-.64c.44-.43.66-.98.66-1.66v-4.89c0-.25.08-.46.23-.62.15-.16.35-.24.6-.24s.46.08.62.25Z"/>
    <path class="st3" d="M202.35,73.1c0,.21-.07.41-.21.59-.14.19-.34.29-.59.29-.17,0-.33-.04-.48-.13-.74-.42-1.54-.62-2.39-.62s-1.68.2-2.36.59c-.69.39-1.22.94-1.6,1.65-.38.71-.57,1.52-.57,2.44,0,.99.2,1.84.59,2.55.39.71.93,1.26,1.62,1.63.69.38,1.46.56,2.32.56s1.68-.21,2.39-.64c.14-.07.3-.11.46-.11.26,0,.47.1.62.3.14.18.21.37.21.57,0,.14-.04.28-.11.4-.08.13-.18.22-.31.3-.46.26-.98.47-1.56.62s-1.14.23-1.7.23c-1.15,0-2.21-.26-3.18-.77-.97-.51-1.74-1.26-2.32-2.23s-.87-2.12-.87-3.43c0-1.2.28-2.29.83-3.26.55-.97,1.31-1.73,2.28-2.28.97-.55,2.05-.83,3.25-.83s2.24.29,3.25.86c.28.16.43.39.43.71Z"/>
    <path class="st3" d="M205.77,83.9c-.17.17-.37.25-.61.25s-.44-.08-.6-.25-.24-.37-.24-.61v-11.49c0-.24.08-.44.25-.61.17-.17.37-.25.61-.25s.44.08.6.25c.16.17.24.37.24.61v11.49c0,.24-.08.44-.25.61Z"/>
    <path class="st3" d="M216.19,75.05c.16.17.24.37.24.61v4.75c0,1.24-.34,2.2-1.03,2.88-.69.68-1.65,1.03-2.9,1.03s-2.19-.34-2.87-1.03c-.68-.68-1.02-1.64-1.02-2.88v-4.75c0-.24.08-.44.24-.61.16-.17.36-.25.6-.25s.46.08.61.25c.16.17.24.37.24.61v4.75c0,1.56.73,2.34,2.19,2.34.73,0,1.28-.2,1.66-.59.38-.39.57-.98.57-1.75v-4.75c0-.24.08-.44.24-.61.16-.17.36-.25.6-.25.25,0,.46.08.62.25Z"/>
    <path class="st3" d="M225.84,75.21c.66.42,1.17.99,1.54,1.73.37.74.56,1.57.56,2.5s-.19,1.77-.56,2.52c-.38.75-.89,1.33-1.54,1.75-.65.42-1.37.62-2.16.62-.62,0-1.19-.14-1.73-.41-.54-.27-.97-.61-1.3-1.02v.52c0,.24-.08.44-.24.61s-.37.25-.61.25-.44-.08-.6-.24c-.16-.16-.24-.37-.24-.62v-11.61c0-.25.08-.45.23-.62.15-.16.36-.24.61-.24s.46.08.61.25.24.37.24.61v4.35c.28-.43.7-.8,1.25-1.11.55-.31,1.13-.46,1.75-.46.81,0,1.54.21,2.19.62ZM224.93,82.32c.44-.29.78-.69,1.03-1.2.24-.51.37-1.07.37-1.69s-.12-1.18-.37-1.68-.59-.89-1.03-1.18c-.44-.29-.93-.43-1.48-.43s-1.06.14-1.5.43c-.44.29-.78.67-1.03,1.17s-.37,1.06-.37,1.69.12,1.2.37,1.69c.24.5.59.9,1.03,1.19.44.29.94.44,1.5.44s1.04-.14,1.48-.44Z"/>
    <path class="st3" d="M236.55,83.96c-.67-.24-1.3-.64-1.91-1.19-.25-.21-.38-.46-.38-.73,0-.21.08-.41.25-.58.17-.17.36-.26.59-.26.2,0,.37.07.52.2.47.44.97.76,1.47.97.51.21,1.08.31,1.72.31.75,0,1.38-.17,1.9-.52.52-.34.77-.78.77-1.3-.01-.62-.27-1.1-.77-1.44-.51-.34-1.28-.62-2.31-.85-1.22-.25-2.17-.66-2.83-1.23-.66-.57-.99-1.36-.99-2.37,0-.7.18-1.32.55-1.85.37-.53.88-.94,1.53-1.22.66-.29,1.39-.43,2.21-.43.74,0,1.43.12,2.09.36.66.24,1.18.55,1.59.95.27.24.41.49.41.77,0,.21-.08.4-.24.57s-.35.25-.58.25c-.17,0-.3-.05-.41-.14-.31-.31-.74-.57-1.28-.78-.55-.21-1.07-.32-1.57-.32-.8,0-1.43.16-1.9.49-.47.33-.7.76-.7,1.29,0,.58.23,1.03.7,1.34.47.31,1.17.57,2.09.78.93.2,1.69.44,2.28.71s1.04.65,1.37,1.14c.32.49.48,1.12.48,1.91,0,.69-.2,1.3-.58,1.84-.39.54-.91.95-1.58,1.25-.67.3-1.4.45-2.19.45-.87,0-1.64-.12-2.3-.37Z"/>
    <path class="st3" d="M246.82,83.9c-.17.17-.37.25-.61.25s-.44-.08-.6-.25-.24-.37-.24-.61v-11.49c0-.24.08-.44.25-.61.17-.17.37-.25.61-.25s.44.08.6.25c.16.17.24.37.24.61v11.49c0,.24-.08.44-.25.61Z"/>
    <path class="st3" d="M257.51,79.66c-.17.15-.36.22-.59.22h-6.28c.08.87.41,1.56.99,2.09.58.52,1.28.79,2.11.79.57,0,1.03-.08,1.39-.25s.67-.38.95-.64c.18-.11.35-.16.52-.16.2,0,.37.07.51.21.14.14.2.31.2.5,0,.25-.12.48-.35.68-.35.35-.8.64-1.38.88-.57.24-1.15.36-1.75.36-.96,0-1.81-.2-2.54-.61-.73-.4-1.3-.97-1.7-1.69-.4-.73-.6-1.55-.6-2.46,0-1,.2-1.88.61-2.63.41-.76.95-1.33,1.62-1.74s1.4-.61,2.17-.61,1.47.2,2.14.59c.67.39,1.2.93,1.61,1.62.4.69.61,1.46.62,2.32-.01.21-.1.4-.27.54ZM251.67,76.71c-.49.37-.81.95-.96,1.74h5.26v-.14c-.06-.63-.34-1.15-.85-1.55-.51-.4-1.08-.61-1.72-.61s-1.24.19-1.73.56Z"/>
    <path class="st3" d="M267.68,79.66c-.17.15-.36.22-.59.22h-6.28c.08.87.41,1.56.99,2.09.58.52,1.28.79,2.12.79.57,0,1.03-.08,1.39-.25.36-.17.67-.38.95-.64.18-.11.35-.16.52-.16.2,0,.37.07.51.21.14.14.21.31.21.5,0,.25-.12.48-.36.68-.34.35-.8.64-1.37.88-.57.24-1.15.36-1.75.36-.96,0-1.81-.2-2.54-.61-.73-.4-1.29-.97-1.69-1.69-.4-.73-.6-1.55-.6-2.46,0-1,.21-1.88.61-2.63.41-.76.95-1.33,1.63-1.74.67-.4,1.39-.61,2.17-.61s1.47.2,2.14.59c.67.39,1.2.93,1.6,1.62.41.69.61,1.46.63,2.32-.01.21-.1.4-.27.54ZM261.84,76.71c-.49.37-.81.95-.96,1.74h5.26v-.14c-.06-.63-.34-1.15-.85-1.55s-1.08-.61-1.72-.61-1.24.19-1.73.56Z"/>
    <path class="st3" d="M276.79,75.25c.66.41,1.17.98,1.54,1.72.37.74.56,1.57.56,2.5s-.19,1.76-.56,2.49c-.38.73-.89,1.31-1.54,1.72-.65.42-1.37.62-2.16.62-.62,0-1.19-.14-1.73-.41-.54-.27-.97-.61-1.3-1v3.96c0,.24-.08.44-.24.61s-.37.25-.61.25-.44-.08-.6-.24c-.16-.16-.24-.37-.24-.62v-11.22c0-.25.08-.46.23-.62s.36-.25.61-.25.46.08.61.25.24.37.24.62v.52c.28-.42.7-.77,1.25-1.07s1.13-.45,1.75-.45c.81,0,1.54.21,2.19.62ZM275.88,82.31c.44-.29.78-.68,1.03-1.17.24-.49.37-1.05.37-1.67s-.12-1.17-.37-1.67-.59-.88-1.03-1.17c-.44-.29-.93-.43-1.48-.43s-1.06.14-1.5.42c-.44.28-.78.67-1.03,1.17-.24.5-.37,1.06-.37,1.68s.12,1.18.37,1.68c.24.5.59.89,1.03,1.17.44.28.94.42,1.5.42s1.04-.14,1.48-.43Z"/>
    <path class="st3" d="M300.86,71.85c.19.17.28.39.28.66,0,.1-.02.2-.05.3l-3.69,10.79c-.05.17-.15.29-.3.38s-.31.14-.47.15c-.17,0-.33-.05-.48-.14s-.27-.23-.34-.41l-2.78-6.51-2.76,6.51c-.07.18-.19.32-.34.41s-.32.14-.5.14c-.17-.01-.32-.07-.46-.16s-.24-.22-.29-.38l-3.69-10.79c-.04-.11-.05-.21-.05-.3,0-.26.1-.48.29-.65.2-.17.41-.26.63-.26.19,0,.36.05.52.15.15.1.25.24.3.4l3.02,8.94,2.59-6.35c.07-.17.18-.3.32-.39.14-.09.3-.14.48-.14s.34.05.48.14c.14.1.25.23.32.39l2.52,6.35,3-8.94c.05-.18.15-.31.3-.41.15-.09.33-.14.54-.14.22,0,.43.08.62.25Z"/>
    <path class="st3" d="M310.48,79.66c-.17.15-.36.22-.59.22h-6.28c.08.87.41,1.56.99,2.09.58.52,1.28.79,2.11.79.57,0,1.03-.08,1.39-.25s.67-.38.95-.64c.18-.11.35-.16.52-.16.2,0,.37.07.51.21.14.14.2.31.2.5,0,.25-.12.48-.35.68-.35.35-.8.64-1.38.88-.57.24-1.15.36-1.75.36-.96,0-1.81-.2-2.54-.61-.73-.4-1.3-.97-1.7-1.69-.4-.73-.6-1.55-.6-2.46,0-1,.2-1.88.61-2.63.41-.76.95-1.33,1.62-1.74s1.4-.61,2.17-.61,1.47.2,2.14.59c.67.39,1.2.93,1.61,1.62.4.69.61,1.46.62,2.32-.01.21-.1.4-.27.54ZM304.64,76.71c-.49.37-.81.95-.96,1.74h5.26v-.14c-.06-.63-.34-1.15-.85-1.55-.51-.4-1.08-.61-1.72-.61s-1.24.19-1.73.56Z"/>
    <path class="st3" d="M314.29,83.9c-.17.17-.37.25-.61.25s-.44-.08-.6-.25c-.16-.17-.24-.37-.24-.61v-11.49c0-.24.08-.44.25-.61.17-.17.37-.25.61-.25s.44.08.6.25.24.37.24.61v11.49c0,.24-.08.44-.25.61Z"/>
    <path class="st3" d="M318.81,83.9c-.17.17-.37.25-.61.25s-.44-.08-.6-.25c-.16-.17-.24-.37-.24-.61v-11.49c0-.24.08-.44.25-.61.17-.17.37-.25.61-.25s.44.08.6.25.24.37.24.61v11.49c0,.24-.08.44-.25.61Z"/>
    <path class="st3" d="M333.63,72.16c.54.34.96.8,1.28,1.38.31.58.47,1.22.47,1.93s-.16,1.35-.47,1.95c-.32.59-.74,1.06-1.28,1.41-.54.35-1.12.52-1.75.52h-3.35v3.94c0,.24-.08.44-.23.61s-.35.25-.59.25c-.25,0-.45-.08-.6-.24-.15-.16-.22-.37-.22-.61v-10.78c0-.24.08-.44.25-.61.17-.17.37-.25.61-.25h4.14c.63,0,1.21.17,1.75.51ZM332.77,77.41c.27-.21.49-.48.65-.83.16-.35.24-.71.24-1.11,0-.61-.18-1.12-.53-1.54-.35-.42-.77-.63-1.26-.63h-3.35v4.42h3.35c.32,0,.62-.1.89-.31Z"/>
    <path class="st3" d="M342.84,74.82c.22.16.34.36.34.6,0,.29-.08.5-.22.65-.15.15-.33.22-.54.22-.11,0-.27-.04-.48-.11-.25-.08-.45-.12-.59-.12-.37,0-.73.13-1.08.38-.35.26-.64.61-.86,1.05-.22.45-.33.94-.33,1.49v4.3c0,.24-.08.44-.24.61-.16.17-.37.25-.61.25s-.45-.08-.61-.24c-.15-.16-.23-.37-.23-.61v-7.64c0-.24.08-.44.24-.61.16-.17.36-.25.6-.25s.46.08.61.25c.16.17.24.37.24.61v.91c.26-.58.66-1.06,1.18-1.42.52-.36,1.12-.55,1.79-.56.31,0,.57.08.8.24Z"/>
    <path class="st3" d="M352.58,81.97c-.42.74-.98,1.32-1.7,1.73s-1.51.62-2.38.62-1.66-.21-2.38-.62c-.72-.42-1.29-.99-1.7-1.73-.42-.74-.62-1.57-.62-2.5s.21-1.77.62-2.52c.42-.75.98-1.33,1.7-1.75.72-.42,1.51-.62,2.38-.62s1.66.21,2.38.62c.72.42,1.29,1,1.7,1.75.42.75.63,1.59.63,2.52s-.21,1.76-.63,2.5ZM351.1,77.75c-.27-.51-.63-.9-1.09-1.18-.46-.28-.97-.42-1.53-.42s-1.07.14-1.53.42c-.46.28-.82.67-1.09,1.18-.27.51-.4,1.08-.4,1.72s.14,1.2.4,1.69c.27.5.63.89,1.09,1.17.46.28.97.42,1.53.42s1.07-.14,1.53-.42c.46-.28.82-.67,1.09-1.17.27-.5.4-1.06.4-1.69s-.13-1.22-.4-1.72Z"/>
    <path class="st3" d="M353.76,87.43c-.15-.16-.22-.34-.22-.55v-.16c0-.39.24-.65.73-.77.76-.21,1.14-.81,1.14-1.78v-8.51c0-.24.08-.44.24-.61.16-.17.37-.25.61-.25s.44.08.6.25c.16.17.24.37.24.61v8.94c0,.62-.13,1.16-.38,1.62s-.6.82-1.03,1.07c-.43.25-.89.38-1.37.38-.22,0-.41-.08-.56-.23ZM355.51,73.34c-.15-.13-.22-.32-.22-.6v-.29c0-.29.08-.49.24-.61.16-.12.41-.18.74-.18s.57.06.72.19c.15.13.22.32.22.6v.29c0,.29-.08.49-.23.61-.15.12-.4.18-.73.18s-.59-.06-.74-.19Z"/>
    <path class="st3" d="M367.76,79.66c-.17.15-.36.22-.59.22h-6.28c.08.87.41,1.56.99,2.09.58.52,1.28.79,2.12.79.57,0,1.03-.08,1.39-.25.36-.17.67-.38.95-.64.18-.11.35-.16.52-.16.2,0,.37.07.51.21.14.14.21.31.21.5,0,.25-.12.48-.36.68-.34.35-.8.64-1.37.88-.57.24-1.15.36-1.75.36-.96,0-1.81-.2-2.54-.61-.73-.4-1.29-.97-1.69-1.69-.4-.73-.6-1.55-.6-2.46,0-1,.21-1.88.61-2.63.41-.76.95-1.33,1.63-1.74.67-.4,1.39-.61,2.17-.61s1.47.2,2.14.59c.67.39,1.2.93,1.6,1.62.41.69.61,1.46.63,2.32-.01.21-.1.4-.27.54ZM361.92,76.71c-.49.37-.81.95-.96,1.74h5.26v-.14c-.06-.63-.34-1.15-.85-1.55-.51-.4-1.08-.61-1.72-.61s-1.24.19-1.73.56Z"/>
    <path class="st3" d="M376.4,75.03c.62.3.93.68.93,1.14,0,.2-.07.38-.2.54s-.3.24-.5.24c-.16,0-.28-.02-.37-.07-.09-.05-.21-.12-.37-.23-.07-.07-.19-.15-.34-.25-.14-.07-.34-.13-.6-.18-.26-.05-.5-.07-.72-.07-.62,0-1.16.14-1.64.43-.47.29-.84.68-1.11,1.19-.26.51-.39,1.07-.39,1.69s.13,1.2.38,1.7c.25.5.61.89,1.08,1.18s.99.43,1.59.43,1.12-.09,1.5-.29c.08-.05.2-.12.34-.23.12-.09.22-.17.31-.21s.2-.07.33-.07c.24,0,.42.07.56.22.14.15.21.34.21.58s-.16.5-.47.74-.74.44-1.27.6c-.53.15-1.1.23-1.7.23-.9,0-1.7-.21-2.39-.63-.69-.42-1.22-1-1.6-1.75s-.56-1.57-.56-2.49.2-1.74.59-2.49c.39-.74.94-1.33,1.64-1.75.7-.42,1.5-.63,2.41-.63s1.72.15,2.35.45Z"/>
    <path class="st3" d="M381.69,76.46v5.32c0,.59.27.89.8.89.08,0,.2-.02.34-.06.14-.04.26-.06.34-.06.15,0,.29.07.39.2.11.13.16.3.16.5,0,.25-.14.46-.43.64-.29.18-.61.27-.96.27-.39,0-.75-.04-1.08-.12-.33-.08-.62-.29-.88-.63-.26-.34-.38-.85-.38-1.54v-5.39h-1.03c-.22,0-.41-.07-.56-.22-.15-.15-.22-.34-.22-.56s.07-.41.22-.55c.15-.14.34-.21.56-.21h1.03v-1.5c0-.24.08-.44.24-.61.16-.17.37-.25.61-.25s.44.08.6.25c.16.17.24.37.24.61v1.5h1.48c.23,0,.41.07.56.22s.22.34.22.56-.07.41-.22.55-.34.21-.56.21h-1.48Z"/>
  </g>
  <line class="st1" x1="128.92" y1="61.02" x2="384.18" y2="61.02"/>
</svg>