<?xml version="1.0" encoding="UTF-8"?>
<svg id="_圖層_1" data-name="圖層_1" xmlns="http://www.w3.org/2000/svg" version="1.1" viewBox="0 0 192.35 33.78">
  <!-- Generator: Adobe Illustrator 29.6.1, SVG Export Plug-In . SVG Version: 2.1.1 Build 9)  -->
  <defs>
    <style>
      .st0 {
        fill: #deaa14;
      }

      .st1 {
        fill: #221714;
        fill-rule: evenodd;
      }

      .st2 {
        fill: #6c2267;
      }

      .st3 {
        fill: #f0e2af;
      }
    </style>
  </defs>
  <g>
    <g>
      <path class="st1" d="M58.91,10.71c-.04-.05-.11-.08-.2-.08-1.13-.13-2.11-.39-2.88-.77-.72-.35-1.5-.89-2.3-1.56.47-.05,1.02-.09,1.68-.1,1.03-.02,1.24-.05,1.31-.06.18-.05.21-.15.21-.22,0-.17-.1-.31-.29-.41-.17-.1-.37-.15-.58-.15-.16,0-.51.06-1.05.2,0,0-1.16.23-1.54.3.03-.17.09-.56.09-.56,0,0,.05-.09.05-.09h0l.08-.19c0-.16-.16-.3-.49-.43.77-.19,1.46-.34,2.02-.43.16,0,.17-.11.17-.14,0-.08-.04-.19-.52-.53-.34-.25-.59-.36-.75-.36-.03,0-.11,0-.15.06,0,.01-.07.21-.09.28-.3.28-1.22.72-2.75,1.32l-.11.04.14.18h.05c.46-.03.95-.11,1.45-.25h0s.12.6.12.6c.04.2.07.39.07.58,0,0,0,0,0,.01-.14.02-1.65.26-1.65.26-.78.14-1.43.22-1.94.26h-.2s.15.16.15.16c.3.29.56.43.78.43.06,0,.21-.01.81-.14,0,0,.78-.17,1.18-.25-.95,1.35-2.3,2.43-4.05,3.22l-.05.02v.12s0,.12.15.12c.29,0,.65-.09,1.12-.28.46-.19.87-.4,1.22-.64.35-.23.69-.5,1.01-.8.32-.3.61-.61.88-.93,0,0,.39-.52.61-.81-.02.36-.06.69-.14.96-.1.37-.15.59-.15.7,0,.2.08.43.25.68h0s.04.04.04.04l.03.02s.13.05.13.05c.12,0,.21-.14.31-.49.09-.29.14-.63.14-1.03,0,0-.03-.68-.05-1.03.25.3.71.77,1.43,1.45.89.84,1.49,1.25,1.83,1.25s1.14-.12,2.39-.37h.05s.02-.06.02-.06c0-.02,0-.04,0-.06,0-.04-.01-.07-.03-.09ZM54.8,11.02c-.35-.15-.6-.22-.77-.22-.03,0-.64.22-.64.22-.48.14-.92.24-1.32.3l-.64.08-.22-.05-.37-.06c-.24,0-.26.14-.26.19,0,.03.18.44.18.44.05.13.09.34.11.61l.04.95c0,.37-.02.64-.07.8l-.07.44c0,.26.05.51.15.74.13.29.22.4.32.4.11,0,.19-.09.28-.97.07,0,.16.02.16.02l.87-.1.75-.1c.1,0,.19.03.25.1.08.08.15.19.21.33l.21.53.17.47h.05s.18.05.18.05l.03-.03c.5-.41.75-1.11.75-2.09l-.04-1.44c0-.62.07-.81.12-.87.14-.18.15-.25.15-.3,0-.15-.17-.29-.56-.45ZM54.14,14.47c-.07-.07-.14-.14-.14-.14-.15-.16-.3-.24-.45-.24-.19,0-.53.06-1.05.17-.44.1-.75.15-.96.17,0-.16-.01-.94-.02-1.08.4,0,.85-.04,1.33-.12.82-.13.83-.15.86-.19,0,0,.05-.12.05-.12,0-.11-.08-.21-.24-.29-.14-.08-.3-.11-.46-.11-.18,0-.41.05-.68.15l-.52.17s-.21.05-.34.08c0-.09,0-.17,0-.27,0-.23-.01-.49-.03-.76.27,0,.54-.03.8-.09.74-.16,1.24-.24,1.49-.24.09,0,.17.03.23.08.06.05.09.1.1.18l.05.67.04.98c0,.62-.03.89-.06,1.02Z"/>
      <path class="st1" d="M74.76,12.14c-1.26-.38-2.17-.73-2.7-1.05-.5-.3-1.2-.83-2.07-1.57.59-.09,1.18-.16,1.74-.17l1.14-.04c.23-.02.27-.12.27-.19,0-.1-.08-.22-.27-.37-.17-.15-.37-.22-.59-.22-.41,0-1.06.12-1.93.36.07-.23.32-1.08.35-1.18.09-.01.36-.05.36-.05,0,0,.66-.07.66-.07.25-.02.57-.08.57-.3,0-.16-.1-.35-.57-.35-.15,0-.41.05-.75.12.12-.26.56-1.25.56-1.25v-.03c-.06-.13-.23-.25-.55-.39-.3-.13-.52-.19-.66-.19h-.03s-.02.02-.02.02c-.08.07-.1.15-.1.2l.1.31c.06.12.09.29.09.49,0,.12-.05.48-.15,1.03-.1.02-1.34.26-1.53.3,0-.14.02-.5.02-.5l.05-.7-.04-.02c-.33-.23-.66-.35-.99-.35-.22,0-.24.13-.24.18,0,.03,0,.03.19.37.11.2.19.44.24.72,0,0,.07.3.1.46-.16.03-1.35.27-1.35.27l.14.12c.19.17.42.26.68.26.13,0,.33-.04.58-.11.02.16.13.94.15,1.08-.8.16-1.55.27-2.24.33h-.16s.09.14.09.14c.18.25.46.38.83.38.21,0,.44-.04.7-.11,0,0,.24-.06.41-.1-.45,1.28-1.4,2.47-2.87,3.55l-.04.03c.05-.14.1-.28.17-.44,0,0,1.13-2.41,1.13-2.41h-.27s-.79,1-.79,1c-.34.46-.59.76-.73.88-.13.11-.26.17-.39.17-.21.01-.31.08-.31.19,0,.17.07.47.21.92.15.5.3.72.49.72.24,0,.3-.35.32-.47.03-.14.07-.31.14-.5l.15.11h.04c1-.3,1.81-.92,2.45-1.85.06.31.1.67.1,1.09l-.04,1.01c0,.37.14.73.41,1.05.28.33.85.49,1.75.49.56,0,1.1-.06,1.61-.18.56-.13.83-.32.83-.59,0-.13-.09-.23-.28-.31l-.38-.1c-.1,0-.22.04-.36.11-.11.06-.33.13-.65.19-.32.06-.67.1-1.04.1-.4,0-.7-.04-.9-.11-.17-.07-.27-.23-.3-.49,0,0-.04-.52-.05-.73.1,0,.24.02.24.02.12,0,.45-.04.99-.14.84-.15.9-.22.94-.26l.09-.21c0-.15-.15-.24-.26-.28.06-.13.21-.46.21-.46.05-.11.13-.2.24-.27.16-.11.22-.19.22-.26,0-.13-.14-.27-.46-.44-.3-.17-.49-.25-.62-.25-.04,0-.54.23-.54.23l-.57.19c-.21.05-.42.08-.61.08,0,0-.09-.01-.17-.03.13-.16.41-.52.41-.52.44-.56.44-.58.44-.62,0-.08-.07-.17-.32-.36.27-.05.93-.18,1.01-.2.07.07,1.22,1.36,1.22,1.36.43.48.8.86,1.14,1.15.34.3.57.47.69.52,0,0,.41.07.41.07.13,0,.47-.04,1.04-.13.88-.13.92-.2.92-.3,0-.04-.02-.1-.12-.13ZM65.07,13.64s.05-.04.08-.06c0,0,.01,0,.02,0h0s-.1.07-.1.07ZM68.25,11.8c.17,0,.4-.03.7-.1l.69-.11s.04,0,.05.04c0,0,.03.27.03.27l-.03.4-.08.24s-.05.06-.33.13l-.55.13s-.31.04-.47.06v-1.06ZM68.7,9.2c0-.17-.02-.99-.02-1.12.12-.02,1.19-.23,1.4-.27-.05.21-.25,1.09-.27,1.18-.1.02-.94.17-1.11.2ZM66.22,7.93c.13,0,.36-.06.36-.43,0-.31-.14-.56-.42-.75-.27-.18-.61-.28-1.04-.28l-.42.04.11.13c.88,1.15,1.22,1.29,1.41,1.29ZM65.12,10.24c.15,0,.41-.06.41-.49,0-.26-.1-.49-.3-.68-.19-.19-.61-.32-1.27-.38l-.16-.02.07.14c.45.95.86,1.42,1.26,1.42Z"/>
      <path class="st1" d="M88.06,7.85c-.41-.3-.7-.44-.9-.44-.04,0-.1.01-.47.15-.23.09-.92.21-2.01.35.03-.88.09-1.49.17-1.79l.06-.29c0-.18-.13-.34-.4-.5-.25-.14-.54-.24-.88-.3h-.02s-.02,0-.02,0c-.19.07-.24.2-.24.29v.11c.19.25.31.53.4.86.09.33.13.91.14,1.71-.85.13-1.46.2-1.79.2l-.8-.08-.83-.09-.02.02s-.09.08-.09.19l.05.19c.18.18.32.38.42.63.11.25.21.8.29,1.63.09.92.28,1.35.6,1.35.15,0,.22-.21.26-.72.13-.01,1.76-.16,1.93-.17,0,.18-.03,1.81-.03,1.81l-.06,1.9c0,.15.05.47.15.97.14.68.22.81.34.81h.04l.06-.04c.14-.12.32-.47.32-2.07,0,0-.04-2.99-.05-3.42,1.14-.09,1.98-.13,2.48-.13.15,0,.47,0,.47-.19,0-.17-.08-.37-.39-.47.52-.81.9-1.31,1.1-1.46.32-.23.38-.33.38-.41,0-.08-.05-.18-.62-.6ZM87.05,8.61c0,.15-.05.45-.14.9-.09.42-.23.69-.43.79-.2.1-.82.2-1.82.29,0-.18.01-2,.01-2.15.93-.15,1.59-.23,1.97-.23.24,0,.31.05.34.09.05.06.08.17.08.31ZM83.88,8.54v2.11c-.14.01-1.77.17-1.93.18,0-.78-.05-1.46-.13-2.01.15-.02,1.89-.26,2.07-.29Z"/>
      <path class="st1" d="M99.22,6.63c.55.44.95.66,1.23.66.17,0,.38-.11.38-.62,0-.21-.12-.41-.35-.59-.22-.18-.47-.28-.72-.32-.24-.04-.64-.06-1.24-.08h-.09s-.02.1-.02.1c0,.09.06.24.81.85ZM105.54,14.39c-1.39-.14-2.52-.4-3.35-.78-.81-.38-1.54-.9-2.19-1.56.12-.28.26-.66.39-1.16l.29-1.02c.05-.13.1-.23.16-.29l.14-.24c0-.1-.09-.21-.31-.38-.12-.1-.25-.15-.38-.21.96-.17,1.98-.32,3.05-.43.23-.14.33-.26.33-.38,0-.14-.12-.27-.38-.38-.23-.1-.47-.15-.73-.15-.41,0-.82.11-1.23.33-1.44.62-3.26.95-5.41.98h-.17s.09.14.09.14c.22.33.57.5,1.04.5.49,0,1.45-.17,2.84-.51,0,.03-.04.05-.04.08,0,0,.04.44.04.44,0,.43-.14,1.1-.41,1.98-.15-.17-.61-.71-.61-.71-.33-.42-.59-.69-.78-.8-.19-.12-.38-.18-.57-.18-.13,0-.54,0-.54.26l.04.15h.03c.72.33,1.44.96,2.17,1.89-.73.97-2.13,1.61-4.18,1.9v.18c.33.1.64.16.93.16.39,0,.99-.12,1.8-.36.79-.23,1.45-.66,1.98-1.25.62.7,1.23,1.3,1.8,1.76.61.49,1.04.73,1.33.73.22,0,.68-.08,1.4-.24l1.41-.28v-.18Z"/>
      <path class="st1" d="M119.53,14.13c-.53-.13-1.04-.35-1.52-.67-.47-.32-.94-.74-1.37-1.25-.43-.5-.85-1.1-1.26-1.78,0-.05.03-.5.03-.61.48-.09,1.16-.18,2.05-.26l1.62-.17c.27-.04.3-.19.3-.27,0-.15-.13-.28-.42-.43-.26-.14-.58-.21-.94-.21-.03,0-.08,0-.88.29-.48.18-1.05.3-1.7.39.03-1.16.09-1.93.19-2.26.11-.37.17-.6.17-.72,0-.17-.07-.31-.21-.4-.12-.09-.31-.17-.56-.25-.25-.08-.5-.12-.75-.12-.16,0-.25.08-.25.22,0,.07.04.13.12.2.33.39.5,1.11.5,2.14,0,0-.03,1.18-.03,1.32-.14.02-3.15.43-3.15.43l.1.13c.23.3.58.44,1.04.44.27,0,.65-.06,1.14-.17,0,0,.6-.13.86-.19-.19,2.3-1.36,3.88-3.48,4.7l.03.17c.69.03,1.47-.27,2.32-.9.8-.6,1.39-1.52,1.75-2.73.5.91,1.08,1.78,1.71,2.59.93,1.17,1.31,1.31,1.51,1.31.67,0,1.65-.12,2.91-.35v-.18s-1.82-.42-1.82-.42Z"/>
      <path class="st1" d="M130.73,6.26c.15.1.24.19.3.27-.08.1-.78,1-.78,1l.26-.06c.36-.09.67-.3.95-.59.06.07.19.22.19.22.15.18.28.28.42.32h.04s.04-.01.04-.01c.12-.09.18-.19.18-.31,0-.21-.16-.45-.46-.72.07-.07.22-.25.22-.25.17-.19.25-.38.25-.57s-.22-.3-.72-.38l-.12-.02.02.12s0,.09,0,.14c0,.21-.08.44-.22.67-.1-.05-.31-.16-.31-.16-.22-.11-.41-.16-.57-.16h-.16s.08.14.08.14c.06.09.19.21.38.35ZM130.08,9.46l.26-.05c.31-.06.69-.33,1.16-.78.09.1.46.48.46.48l.26.06v-.08s.05-.2.05-.2c0-.19-.15-.42-.43-.69.05-.06.14-.18.14-.18.1-.13.15-.26.15-.38,0-.02,0-.04,0-.06v-.04s-.04-.02-.04-.02c-.16-.11-.28-.17-.38-.17s-.23.06-.28.34c-.02.13-.04.19-.06.22-.21-.13-.4-.21-.57-.21l-.39.05.2.13c.23.16.38.3.47.42-.08.1-.36.43-.36.43l-.63.73ZM136.31,9.37c-.28-.29-.51-.42-.72-.42l-.56.11c-.26.06-.61.09-1.01.11.04-.2.32-1.5.32-1.5.15-.68.24-.92.28-1,.06-.12.14-.2.22-.26.13-.09.18-.16.18-.23s-.04-.16-.5-.44c-.44-.28-.53-.3-.58-.3-.03,0-.05,0-.43.16-.22.09-.54.18-.95.27l-.19.04.16.12c.2.15.39.23.59.23l.33-.05.29-.05s.14,0,.14.25c0,.13-.03.28-.08.44-.32,0-.75.04-1.27.12l-.15.02.09.12c.13.18.33.27.58.27l.61-.05s.03,0,.06,0c-.03.14-.11.52-.13.62-.12.01-1.27.11-1.27.11l.03.11c.05.15.17.33.53.33l.4-.04s.13-.01.23-.03c-.03.17-.11.68-.13.79-.13.01-3.55.4-3.72.42-.02-.13-.08-.6-.09-.71.12-.03.37-.09.37-.09l.43-.11.05-.04.05-.03c.06-.04.1-.09.1-.16,0-.02,0-.05-.02-.07v-.02s-.03-.01-.03-.01c-.1-.08-.21-.12-.33-.12-.1,0-.25.04-.44.12-.15.06-.23.08-.29.09-.02-.12-.09-.5-.11-.61.11-.03.42-.13.42-.13.21-.07.48-.18.48-.37,0-.08-.03-.26-.32-.26-.13,0-.28.04-.47.13,0,0-.15.05-.25.09-.02-.11-.04-.26-.04-.26,0,0-.02-.27-.03-.36.08-.05.97-.59.97-.59v-.06c-.02-.15-.12-.27-.3-.37-.16-.1-.33-.15-.48-.15-.23,0-.25.12-.25.18,0,.26-.11.5-.31.73-.52,0-.74.07-.74.24l.14.21c.31.28.61,1.23.9,2.82-.15.03-1.11.22-1.21.23-.18-.31-.36-.5-.55-.54l-.11-.02v.12c.02.45-.05.81-.21,1.06-.18.28-.27.5-.27.68,0,.42.21.49.34.49.18,0,.38-.14.59-.44.19-.26.28-.57.3-.9.42-.11,1.53-.27,3.35-.47,1.88-.22,3.01-.32,3.37-.32l.43.02s.08.02.08.02c0,.03-.04.18-.55.66l.09.15.93-.26s.4-.03.4-.03c.31,0,.66-.03.66-.26,0-.06-.03-.15-.41-.53ZM135.06,12.1c-.23-.16-.52-.23-.86-.23-.23,0-.58.05-1.06.16-.46.1-.79.15-1,.15,0,0-.21.02-.21.02-.03,0-.05-.01-.07-.04.4-.35.82-.66,1.25-.92.27-.11.34-.25.34-.37,0-.02,0-.05,0-.07v-.03s-.03-.02-.03-.02c-.44-.35-.85-.53-1.21-.53-.03,0-.93.3-.93.3l-.96.22c-.32.05-.66.08-1,.07h-.2s.13.15.13.15c.26.3.58.44.94.43.02,0,1.74-.54,1.81-.56h.15s.03.08.03.12c0,.05-.07.26-.58.9-.19-.14-.4-.23-.61-.23s-.23.12-.23.17c0,.06.04.12.25.31.09.08.14.13.17.18-1.87.24-3.21.38-3.97.42h-.09s-.01.11-.01.11c0,.07.04.17.35.39.23.16.42.23.59.23.08,0,.32-.03,1.48-.29.8-.18,1.4-.28,1.81-.31.06.32.09.66.09,1.02,0,.92-.18,1.39-.53,1.39-.16,0-.55-.07-1.17-.21l-.07.16c.65.42,1.06.81,1.22,1.16l.04.08.08-.04c.76-.32,1.14-1.1,1.14-2.32,0-.35-.04-.79-.12-1.31.17,0,1.43-.05,1.43-.05l1.71.06c.25,0,.28-.15.28-.22,0-.14-.12-.29-.38-.46Z"/>
    </g>
    <g>
      <path class="st1" d="M49.87,25.02c0,.35-.02.59-.08.69-.06.09-.17.13-.39.14l-.44.03v.28c.48-.02.92-.03,1.37-.03.43,0,.86,0,1.34.03v-.28l-.44-.03c-.22,0-.33-.05-.39-.14-.06-.1-.08-.34-.08-.69v-3.91c0-.35,0-.65.04-.93h1.44c.28,0,.35.08.37.31l.04.73h.29c0-.5.02-1.01.07-1.49-.33,0-.67,0-1,0-.33,0-.67.02-1,.02h-1.34c-.67,0-1.33-.03-2-.03.05.48.06.99.06,1.49h.29l.04-.73c.02-.22.09-.31.37-.31h1.43c.03.28.04.57.04.93v3.91Z"/>
      <path class="st1" d="M53.41,25.18c0,.25,0,.44-.05.54-.04.08-.14.12-.3.13l-.42.03v.28c.33,0,.7-.03,1.15-.03s.82.02,1.15.03v-.28l-.42-.03c-.16,0-.26-.05-.3-.13-.04-.1-.05-.29-.05-.54v-1.96c0-.38.57-.87,1.14-.87.63,0,1.07.41,1.07,1.17v2.63c.21,0,.48-.03.74-.03s.53.02.76.03v-.28l-.38-.03c-.16,0-.26-.05-.3-.13-.04-.1-.05-.29-.05-.54v-1.78c0-1.01-.44-1.61-1.53-1.61-.37,0-.55.06-.75.23l-.69.59h-.02v-3.13l-.08-.07c-.46.19-.95.27-1.44.34v.26h.52c.2,0,.23.17.23.38v4.79Z"/>
      <path class="st1" d="M60.05,22.1c.67,0,.98.7.98,1.57-.67.04-1.44.06-2.2-.03-.05-1.01.51-1.54,1.22-1.54ZM60.09,21.79c-.32,0-.58.1-.91.25-.2.09-.4.23-.57.37-.42.33-.67.87-.67,1.77,0,1.25.74,2.14,2.14,2.14.63,0,1.42-.41,1.48-.52l.18-.31-.12-.09c-.35.21-.7.44-1.15.44-1.14,0-1.68-.74-1.68-1.82h1.35c.56,0,1.12-.04,1.68-.13.02-.13.02-.26.02-.39,0-1.05-.75-1.69-1.76-1.69Z"/>
      <path class="st1" d="M69.82,25.36l-.08-.09c-.43.32-1.21.56-1.88.56-1.83,0-3.05-1.18-3.05-3.02,0-1.57.92-2.84,2.66-2.84.34,0,.74.05,1.04.16.43.16.8.31.8.57v.67h.29c0-.48.08-.97.18-1.41-.44-.16-1.28-.38-2.14-.38-1.04,0-1.98.31-2.67.89-.71.58-1.13,1.43-1.13,2.49,0,2.1,1.5,3.37,3.72,3.37.56,0,1.48-.18,2.02-.5l.26-.46Z"/>
      <path class="st1" d="M70.72,25.18c0,.25,0,.44-.05.54-.04.08-.14.12-.3.13l-.42.03v.28c.32,0,.69-.03,1.15-.03s.82.02,1.15.03v-.28l-.42-.03c-.16,0-.26-.05-.3-.13-.04-.1-.05-.29-.05-.54v-1.96c0-.38.57-.87,1.14-.87.63,0,1.06.41,1.06,1.17v2.63c.21,0,.48-.03.74-.03s.53.02.76.03v-.28l-.38-.03c-.16,0-.26-.05-.3-.13-.04-.1-.05-.29-.05-.54v-1.78c0-1.01-.44-1.61-1.53-1.61-.37,0-.55.06-.75.23l-.69.59h-.02v-3.13l-.08-.07c-.46.19-.95.27-1.44.34v.26h.52c.2,0,.23.17.23.38v4.79Z"/>
      <path class="st1" d="M76.75,21.83l-.08-.04c-.34.15-.9.32-1.44.38v.26h.34c.19,0,.29.03.34.1.05.07.06.28.06.57v2.08c0,.25,0,.44-.05.54-.04.08-.14.12-.3.13l-.43.03v.28c.33,0,.7-.03,1.16-.03s.82.02,1.16.03v-.28l-.43-.03c-.16,0-.26-.05-.3-.13-.04-.1-.05-.29-.05-.54v-3.36ZM76.32,19.77c-.27,0-.51.25-.51.52s.24.51.51.51.52-.24.52-.51-.25-.52-.52-.52Z"/>
      <path class="st1" d="M79.02,23.22c0-.38.57-.87,1.14-.87.63,0,1.06.41,1.06,1.17v2.63c.21,0,.48-.03.74-.03s.53.02.76.03v-.28l-.38-.03c-.16,0-.26-.05-.3-.13-.04-.1-.05-.29-.05-.54v-1.78c0-1.01-.44-1.61-1.53-1.61-.37,0-.55.06-.75.23l-.69.59h-.02v-.79l-.08-.04c-.34.15-.9.32-1.44.38v.26h.34c.19,0,.29.03.34.1.05.07.06.28.06.57v2.08c0,.25,0,.44-.05.54-.04.08-.14.12-.3.13l-.42.03v.28c.32,0,.69-.03,1.15-.03s.82.02,1.15.03v-.28l-.42-.03c-.16,0-.26-.05-.3-.13-.04-.1-.05-.29-.05-.54v-1.96Z"/>
      <path class="st1" d="M84.88,22.1c.67,0,.98.7.98,1.57-.67.04-1.44.06-2.2-.03-.05-1.01.51-1.54,1.22-1.54ZM84.93,21.79c-.32,0-.58.1-.91.25-.2.09-.4.23-.58.37-.43.33-.67.87-.67,1.77,0,1.25.74,2.14,2.14,2.14.63,0,1.42-.41,1.48-.52l.18-.31-.12-.09c-.35.21-.7.44-1.15.44-1.14,0-1.68-.74-1.68-1.82h1.35c.56,0,1.12-.04,1.68-.13.02-.13.02-.26.02-.39,0-1.05-.75-1.69-1.76-1.69Z"/>
      <path class="st1" d="M87.07,24.81c0,.44,0,.88-.1,1.29.45.16.85.22,1.3.22,1.03,0,2.05-.54,2.05-1.56,0-.72-.52-1-1.62-1.18-.7-.12-1.01-.33-1.01-.73,0-.31.12-.75.91-.75.53,0,1.07.28,1.07.76v.21h.26c0-.37.02-.71.05-1.05-.36-.13-.76-.23-1.19-.23-.87,0-1.74.35-1.74,1.35,0,.56.34.84.79,1.01.44.17.95.27,1.36.37.29.07.45.32.45.61,0,.5-.5.84-1.08.84-.54,0-1.19-.21-1.19-.79v-.38h-.28Z"/>
      <path class="st1" d="M92.68,22.1c.67,0,.98.7.98,1.57-.67.04-1.44.06-2.2-.03-.05-1.01.51-1.54,1.22-1.54ZM92.73,21.79c-.32,0-.58.1-.91.25-.2.09-.4.23-.57.37-.43.33-.67.87-.67,1.77,0,1.25.74,2.14,2.14,2.14.63,0,1.42-.41,1.48-.52l.18-.31-.12-.09c-.35.21-.7.44-1.15.44-1.14,0-1.68-.74-1.68-1.82h1.35c.56,0,1.12-.04,1.68-.13.02-.13.02-.26.02-.39,0-1.05-.75-1.69-1.76-1.69Z"/>
      <path class="st1" d="M97.19,24.15c0,1.69.93,2.17,2.5,2.17,1.87,0,2.62-.8,2.62-2.78v-2.67c0-.35.02-.59.08-.69.05-.09.17-.12.39-.14l.41-.03v-.28c-.41,0-.74.03-1.11.03-.33,0-.7-.02-1.07-.03v.28l.41.03c.22.02.33.05.39.14.06.1.08.34.08.69v2.96c0,1.54-.91,1.92-1.91,1.92-1.22,0-1.91-.38-1.91-1.69v-3.18c0-.35.02-.59.08-.69.06-.09.17-.13.39-.14l.44-.03v-.28c-.48.02-.92.03-1.34.03-.45,0-.89,0-1.37-.03v.28l.44.03c.22,0,.33.05.39.14.06.1.08.34.08.69v3.28Z"/>
      <path class="st1" d="M104.4,23.22c0-.38.57-.87,1.14-.87.63,0,1.06.41,1.06,1.17v2.63c.21,0,.48-.03.74-.03s.53.02.76.03v-.28l-.38-.03c-.16,0-.26-.05-.3-.13-.04-.1-.05-.29-.05-.54v-1.78c0-1.01-.45-1.61-1.53-1.61-.37,0-.55.06-.75.23l-.69.59h-.02v-.79l-.08-.04c-.34.15-.9.32-1.44.38v.26h.34c.19,0,.29.03.34.1.05.07.07.28.07.57v2.08c0,.25,0,.44-.05.54-.04.08-.14.12-.3.13l-.42.03v.28c.32,0,.69-.03,1.15-.03s.82.02,1.15.03v-.28l-.42-.03c-.16,0-.26-.05-.29-.13-.04-.1-.05-.29-.05-.54v-1.96Z"/>
      <path class="st1" d="M109.66,21.83l-.08-.04c-.34.15-.9.32-1.44.38v.26h.34c.19,0,.29.03.34.1.05.07.06.28.06.57v2.08c0,.25,0,.44-.05.54-.04.08-.14.12-.3.13l-.42.03v.28c.33,0,.7-.03,1.16-.03s.82.02,1.16.03v-.28l-.43-.03c-.16,0-.26-.05-.3-.13-.04-.1-.05-.29-.05-.54v-3.36ZM109.22,19.77c-.27,0-.51.25-.51.52s.24.51.51.51.52-.24.52-.51-.25-.52-.52-.52Z"/>
      <path class="st1" d="M114.41,22.78c.13-.28.29-.6.52-.62l.29-.02v-.26c-.29,0-.58.03-.87.03s-.58-.02-.87-.03v.26l.38.02c.28,0,.3.28.05.92l-.39.98c-.18.44-.38.87-.57,1.3l-1.1-2.67c-.16-.39-.09-.52.15-.53l.45-.02v-.26c-.36,0-.71.03-1.07.03s-.72-.02-1.08-.03v.26l.31.02c.18,0,.23.18.29.31l1.59,3.73h.46c.13-.32.22-.67.38-1.01l1.09-2.41Z"/>
      <path class="st1" d="M117.4,22.1c.67,0,.98.7.98,1.57-.67.04-1.44.06-2.2-.03-.05-1.01.51-1.54,1.22-1.54ZM117.45,21.79c-.32,0-.58.1-.91.25-.2.09-.4.23-.57.37-.43.33-.67.87-.67,1.77,0,1.25.74,2.14,2.14,2.14.63,0,1.42-.41,1.48-.52l.18-.31-.12-.09c-.35.21-.7.44-1.15.44-1.14,0-1.68-.74-1.68-1.82h1.35c.56,0,1.12-.04,1.68-.13.02-.13.02-.26.02-.39,0-1.05-.75-1.69-1.76-1.69Z"/>
      <path class="st1" d="M120.18,25.18c0,.25,0,.44-.05.54-.04.08-.14.12-.3.13l-.42.03v.28c.33,0,.7-.03,1.16-.03s.82.02,1.31.03v-.28l-.48-.03c-.21,0-.35-.05-.39-.13-.04-.1-.05-.29-.05-.54v-1.59c0-.59.41-1.02.81-1.02.33,0,.53.2.63.43h.19l.08-1.12c-.07-.05-.27-.09-.43-.09-.24,0-.56.11-.78.38l-.5.59h-.02v-.93l-.08-.04c-.34.15-.9.32-1.44.38v.26h.34c.19,0,.29.03.34.1.05.07.06.28.06.57v2.08Z"/>
      <path class="st1" d="M122.97,24.81c0,.44,0,.88-.1,1.29.45.16.85.22,1.3.22,1.03,0,2.05-.54,2.05-1.56,0-.72-.52-1-1.62-1.18-.7-.12-1.01-.33-1.01-.73,0-.31.12-.75.91-.75.53,0,1.07.28,1.07.76v.21h.26c0-.37.02-.71.05-1.05-.36-.13-.76-.23-1.19-.23-.87,0-1.74.35-1.74,1.35,0,.56.34.84.79,1.01.44.17.95.27,1.36.37.29.07.44.32.44.61,0,.5-.5.84-1.08.84-.54,0-1.19-.21-1.19-.79v-.38h-.28Z"/>
      <path class="st1" d="M127.98,21.83l-.08-.04c-.34.15-.9.32-1.45.38v.26h.34c.19,0,.29.03.34.1.05.07.07.28.07.57v2.08c0,.25,0,.44-.05.54-.04.08-.14.12-.3.13l-.42.03v.28c.33,0,.7-.03,1.16-.03s.82.02,1.16.03v-.28l-.43-.03c-.16,0-.26-.05-.3-.13-.04-.1-.05-.29-.05-.54v-3.36ZM127.55,19.77c-.27,0-.51.25-.51.52s.24.51.51.51.52-.24.52-.51-.25-.52-.52-.52Z"/>
      <path class="st1" d="M129.56,22.6v2.67c0,.75.42.98.91.98.19,0,.52-.02.6-.11l.44-.49-.12-.16c-.13.07-.3.18-.55.18-.39,0-.51-.21-.51-.64v-2.43h1.18l.08-.5-1.27.06v-.35c0-.39.05-.91.1-1.31l-.11-.1c-.16.1-.45.25-.79.35.03.25.04.49.04.73v.65l-.72.32v.19l.7-.04Z"/>
      <path class="st1" d="M134.14,25.34l-1.06-2.57c-.19-.5-.04-.59.22-.6l.35-.02v-.26c-.36,0-.71.03-1.07.03s-.71-.02-1.07-.03v.26l.17.02c.2.02.33.1.48.45l1.53,3.74-.21.56c-.18.43-.47,1.18-1.01,1.21-.13,0-.36-.1-.47-.21h-.12l-.22.7c.1.06.31.14.46.14.78,0,1.11-.46,1.41-1.14l1.88-4.33c.35-.82.56-1.1.78-1.12l.26-.02v-.26c-.3,0-.58.03-.88.03s-.58-.02-.88-.03v.26l.24.02c.33.03.47.13.33.47l-1.1,2.7Z"/>
      <path class="st1" d="M139.99,26.32c1.42,0,2.43-1,2.43-2.42,0-1.18-.92-2.11-2.1-2.11-1.49,0-2.36.97-2.36,2.36,0,1.28.87,2.2,2.04,2.17ZM140.1,22.1c.89,0,1.45,1.02,1.45,2.21,0,.86-.36,1.7-1.2,1.7-1.18,0-1.54-1.29-1.54-2.26,0-.86.3-1.66,1.29-1.66Z"/>
      <path class="st1" d="M145.59,19.49c-.13-.05-.28-.1-.42-.1-.26,0-.59.11-.83.39l-.54.61c-.27.3-.39.72-.39,1.33v.39l-.64.29v.2l.64-.04v2.62c0,.25,0,.44-.05.54-.04.08-.14.12-.3.13l-.43.03v.28c.33,0,.7-.03,1.16-.03s.82.02,1.16.03v-.28l-.43-.03c-.16,0-.26-.05-.3-.13-.04-.1-.05-.29-.05-.54v-2.62h1.15l.07-.49-1.21.04v-.79c0-1.06.1-1.32.68-1.32.23,0,.44.1.61.26l.11-.05v-.71Z"/>
      <path class="st1" d="M153.85,20.87c0-.35.02-.59.08-.69.06-.09.17-.13.39-.14l.44-.03v-.28c-.48.02-.92.03-1.34.03-.45,0-.89,0-1.37-.03v.28l.44.03c.22,0,.33.05.39.14.06.1.08.34.08.69v1.65c-.11,0-.36.02-.77.02h-2.17c-.41,0-.66,0-.77-.02v-1.65c0-.35.02-.59.08-.69.06-.09.17-.13.39-.14l.44-.03v-.28c-.48.02-.92.03-1.34.03-.45,0-.89,0-1.37-.03v.28l.44.03c.22,0,.33.05.39.14.06.1.08.34.08.69v4.15c0,.35-.02.59-.08.69-.06.09-.17.13-.39.14l-.44.03v.28c.48-.02.92-.03,1.37-.03.43,0,.86,0,1.34.03v-.28l-.44-.03c-.22,0-.33-.05-.39-.14-.06-.1-.08-.34-.08-.69v-2.06c.11,0,.36-.02.77-.02h2.17c.41,0,.66,0,.77.02v2.06c0,.35-.02.59-.08.69-.06.09-.17.13-.39.14l-.44.03v.28c.48-.02.92-.03,1.37-.03.43,0,.86,0,1.34.03v-.28l-.44-.03c-.22,0-.33-.05-.39-.14-.06-.1-.08-.34-.08-.69v-4.15Z"/>
      <path class="st1" d="M157.03,26.32c1.42,0,2.43-1,2.43-2.42,0-1.18-.92-2.11-2.1-2.11-1.49,0-2.36.97-2.36,2.36,0,1.28.87,2.2,2.04,2.17ZM157.14,22.1c.89,0,1.45,1.02,1.45,2.21,0,.86-.36,1.7-1.2,1.7-1.19,0-1.54-1.29-1.54-2.26,0-.86.31-1.66,1.29-1.66Z"/>
      <path class="st1" d="M161.07,23.22c0-.38.57-.87,1.14-.87.63,0,1.06.41,1.06,1.17v2.63c.21,0,.48-.03.74-.03s.53.02.76.03v-.28l-.38-.03c-.16,0-.26-.05-.3-.13-.04-.1-.05-.29-.05-.54v-1.78c0-1.01-.44-1.61-1.53-1.61-.37,0-.55.06-.75.23l-.69.59h-.02v-.79l-.08-.04c-.34.15-.9.32-1.44.38v.26h.34c.19,0,.29.03.34.1.05.07.07.28.07.57v2.08c0,.25,0,.44-.05.54-.04.08-.14.12-.3.13l-.42.03v.28c.32,0,.69-.03,1.15-.03s.82.02,1.15.03v-.28l-.42-.03c-.16,0-.26-.05-.3-.13-.04-.1-.05-.29-.05-.54v-1.96Z"/>
      <path class="st1" d="M169.39,22.63l.23-.38-.04-.11-1.31.04c-.3-.27-.72-.39-1.13-.39-.35,0-.92.12-1.34.4-.42.27-.7.67-.7,1.26,0,.96.8,1.23,1.09,1.24v.02l-.71.55c-.08.11-.14.25-.14.39,0,.27.2.44.61.55l-.81.43c-.19.18-.26.47-.26.74,0,.82.87,1.39,1.99,1.39,1.57,0,2.51-1.01,2.51-1.99,0-.46-.26-1.15-1.09-1.15h-1.48c-.28,0-.7-.02-.7-.37,0-.2.3-.39.43-.52.06,0,.13.02.19.02.43,0,.89-.16,1.3-.44.37-.25.62-.65.62-1.15,0-.18-.03-.35-.1-.52h.85ZM167.86,23.45c0,.56-.4.98-.94.98-.59,0-1.05-.42-1.05-1.23,0-.61.3-1.09.93-1.09.77,0,1.06.67,1.06,1.34ZM166.93,28.47c-.74,0-1.35-.4-1.35-1.19,0-.58.52-.94.78-.97.42-.04.74-.04.98-.04,1.05,0,1.3.29,1.3.83,0,.74-.69,1.37-1.71,1.37Z"/>
      <path class="st1" d="M173.21,23.12l.09-.06,3.22,3.1c.29,0,.51-.03.73-.03s.44.02.61.03v-.28l-.2-.02c-.17-.02-.34-.17-.57-.38l-3.06-2.88,2.46-2.22c.23-.21.48-.34.72-.35l.39-.02v-.28c-.22,0-.48.03-.74.03s-.53-.02-.82-.03v.25c0,.07-.13.22-.27.36l-2.57,2.51v-1.98c0-.35.02-.59.08-.69.06-.09.17-.13.39-.14l.44-.03v-.28c-.48.02-.92.03-1.34.03-.45,0-.89,0-1.37-.03v.28l.45.03c.22,0,.33.05.39.14.06.1.08.34.08.69v4.15c0,.35-.02.59-.08.69-.05.09-.17.13-.39.14l-.45.03v.28c.48-.02.92-.03,1.37-.03.43,0,.86,0,1.34.03v-.28l-.44-.03c-.22,0-.33-.05-.39-.14-.06-.1-.08-.34-.08-.69v-1.9Z"/>
      <path class="st1" d="M179.76,26.32c1.42,0,2.43-1,2.43-2.42,0-1.18-.92-2.11-2.1-2.11-1.49,0-2.36.97-2.36,2.36,0,1.28.87,2.2,2.04,2.17ZM179.88,22.1c.89,0,1.45,1.02,1.45,2.21,0,.86-.36,1.7-1.2,1.7-1.19,0-1.54-1.29-1.54-2.26,0-.86.31-1.66,1.29-1.66Z"/>
      <path class="st1" d="M183.8,23.22c0-.38.57-.87,1.14-.87.63,0,1.06.41,1.06,1.17v2.63c.21,0,.48-.03.74-.03s.53.02.76.03v-.28l-.38-.03c-.16,0-.26-.05-.3-.13-.04-.1-.05-.29-.05-.54v-1.78c0-1.01-.44-1.61-1.53-1.61-.37,0-.55.06-.75.23l-.69.59h-.02v-.79l-.08-.04c-.34.15-.9.32-1.44.38v.26h.34c.19,0,.29.03.34.1.05.07.06.28.06.57v2.08c0,.25,0,.44-.05.54-.04.08-.14.12-.3.13l-.42.03v.28c.32,0,.7-.03,1.15-.03s.82.02,1.15.03v-.28l-.42-.03c-.16,0-.26-.05-.3-.13-.04-.1-.05-.29-.05-.54v-1.96Z"/>
      <path class="st1" d="M192.12,22.63l.23-.38-.04-.11-1.31.04c-.3-.27-.72-.39-1.13-.39-.35,0-.92.12-1.34.4-.42.27-.7.67-.7,1.26,0,.96.8,1.23,1.09,1.24v.02l-.71.55c-.08.11-.14.25-.14.39,0,.27.2.44.61.55l-.81.43c-.19.18-.26.47-.26.74,0,.82.87,1.39,1.99,1.39,1.56,0,2.51-1.01,2.51-1.99,0-.46-.26-1.15-1.09-1.15h-1.48c-.28,0-.7-.02-.7-.37,0-.2.3-.39.43-.52.06,0,.13.02.19.02.43,0,.89-.16,1.3-.44.37-.25.62-.65.62-1.15,0-.18-.03-.35-.1-.52h.85ZM190.6,23.45c0,.56-.4.98-.95.98-.59,0-1.05-.42-1.05-1.23,0-.61.3-1.09.93-1.09.77,0,1.06.67,1.06,1.34ZM189.67,28.47c-.74,0-1.35-.4-1.35-1.19,0-.58.52-.94.78-.97.42-.04.74-.04.98-.04,1.05,0,1.31.29,1.31.83,0,.74-.69,1.37-1.71,1.37Z"/>
    </g>
  </g>
  <g>
    <path class="st2" d="M21.4,26.9c.31,0,1.73-.51,2.29-.8,2.98-1.58,5.59-3.71,7.29-6.66,1.36-2.37,1.45-5.3,1.67-7.96.29-3.44.26-6.88.21-10.33,0-.25-4.94-.79-5.44-.84-2-.19-4.68-.31-6.02-.31s-4.02.12-6.02.31c-.51.05-5.44.59-5.44.84-.05,3.45-.08,6.89.21,10.33.22,2.66.31,5.58,1.67,7.96,1.7,2.95,4.31,5.09,7.29,6.66.56.29,1.98.8,2.29.8Z"/>
    <path class="st0" d="M28.13,14.24s.02,0,.03,0c-.01,0-.02,0-.03,0h0ZM27.49,14.65s.04.02.06.02c-.02,0-.04-.02-.06-.03h0ZM31.34,8.36s.01-.17.02-.18c.13-.04.68-.27.79-.97.02-.11.02-.23,0-.36l-.03.03c-.11.1-.45.42-.63.38-.05-.01-.08-.04-.1-.1,0-.7-.05-1.27-.13-1.99.2-.11.62-.42.62-1.09,0-.09,0-.18-.03-.28l-.03.04c-.11.13-.4.46-.57.44-.04,0-.07-.03-.1-.08v-.09c-.15-1.5-.46-2.23-1.07-2.55,0,0-.04-.01-.04-.02,0,.01.03.06.06.1.09.13.24.35.3.62.1.45.13.8.13,1.1,0,.34-.05.59-.1.79-.08.15-.2.24-.34.27-.34.08-.72-.29-.85-.6,0,0-.01-.02-.02-.02-.03,0-.07.08-.1.14-.11.4.03.9.3,1.1.1.07.26.13.45,0,.1-.07.17-.09.22-.08.03,0,.05.03.06.06-.13.36-.27.72-.43,1.07-.09.08-.2.13-.31.13-.38.02-.7-.44-.77-.78,0-.01,0-.02-.01-.02-.03,0-.09.07-.13.13-.19.39-.15.94.09,1.19.09.09.25.18.47.08.12-.05.2-.07.24-.04.02.01.04.03.04.07-.19.35-.39.7-.61,1.04-.08.05-.17.08-.28.08-.4,0-.67-.47-.7-.79,0-.01,0-.02-.01-.02-.03,0-.11.06-.16.12-.25.37-.29.89-.08,1.16.12.15.29.19.5.11.13-.05.2-.06.24-.03.01,0,.02.02.02.05-.22.29-.45.58-.69.86-.16.11-.32.15-.49.12-.43-.07-.69-.68-.69-1.09,0-.02,0-.03-.01-.03-.03-.01-.13.06-.18.11-.32.41-.41,1.05-.19,1.4.08.13.24.27.53.22.15-.03.24-.03.27.01.02.02.01.06-.02.1,0,0-.7.65-.7.65-.17.11-.44.22-.72.12-.47-.17-.64-.92-.55-1.38,0-.02,0-.04,0-.04-.04-.02-.16.04-.24.09-.45.39-.69,1.1-.52,1.55.06.17.21.37.55.36.19,0,.29.02.31.08.02.05-.02.11-.13.19-.09.05-.2.12-.29.23-.21.25-.3.46-.33.71l-.02.26c-.01.2-.03.41-.07.6-.04.19-.1.36-.17.5-.44.79-1.45,1.21-2.53,1.36v-1.49c1.3-.04,1.86-.61,1.86-1.88,0-1.08-.39-1.55-1.31-1.57-.18,0-.37.03-.56.09v-.83c.65-.3,1.39-.63,2.16-.83,1.77-.45,3.19-1.43,3.69-2.47.07-.15.12-.3.15-.46-.09.06-1.28.81-2.16,1l-.12.02c-.12.02-.24.05-.31,0-.03-.03-.04-.06-.04-.12,0-.48.26-.85.74-1.05l.05-.02c1.07-.45,1.91-.81,2.31-1.37.1-.15.18-.31.22-.49-.09.05-1.33.7-2.13.82h-.04c-.1.02-.26.05-.33-.03-.04-.05-.05-.13-.03-.23.09-.36.25-.58.53-.74.31-.18.65-.33.98-.48.55-.25,1.05-.47,1.3-.76.01-.02.03-.03.04-.05,0,0,0,0,0-.01.05-.07.08-.14.09-.22l-1.16.37-.23.07c-.33.11-.68.21-.79.1-.04-.04-.05-.11-.02-.2.06-.2.11-.31.2-.45.44-.62,1.32-1.28,2.38-1.09.18.03.27.02.27,0,0-.01-.03-.05-.17-.1-.8-.29-1.55-.26-2.22.08-1.23.63-2.24,2.32-3,5.03-.44,1.55-1.39,2.11-2.37,2.55v-3.45c.36-.14.67-.34.93-.61.75-.75,1.01-1.68.71-2.49-.25-.66-.83-1.11-1.48-1.16-.05,0-.11,0-.16,0v-.5c-1.23,0-3.77.11-5.75.3-.71.07-5.2.58-5.2.8-.02,1.17-.03,2.33-.03,3.49,0,2.16.05,4.29.23,6.44l.07.84c.18,2.35.37,4.78,1.54,6.81,1.47,2.58,3.82,4.73,6.98,6.4.2.1,1.1.57,1.86.73,0,0,0,0,.01,0,.03,0,.07.01.1.02.07.01.14.02.21.03v-3.7c1.05.02,2.68.03,3.12-.12.42-.14.69-.46.76-.9.08-.51-.12-1.07-.49-1.35-.05-.04-.12-.04-.14-.02-.01.02,0,.04.02.08.04.07.1.19.1.43,0,.22-.08.4-.23.54-.41.38-1.24.33-1.25.33h-.96s-.93-.01-.93-.01c.01,0,.02,0,.03,0h-.03c.54-.12.92-.52,1.08-.81.41-.75.07-1.25-.04-1.39-.02-.02-.03-.03-.03-.03h0s0,0,0,0c.06,0,.13,0,.19,0-.06,0-.12,0-.18,0,0,0,0,0,0,0,.24,0,.47-.03.67-.07-.15.03-.31.05-.48.06,1.99-.11,2.41-1.91,2.64-2.89l.04-.16c.07-.29.26-.8.69-.94.28-.09.46-.19.6-.27l.16-.09s.05-.02.06-.02c.25,0,.25.22.24.36,0,.06,0,.11.02.12,0,0,.03,0,.06-.02.22-.13.32-.53.35-.76,0-.02,0-.04,0-.05h0s0,0,0,0c.27.1.3.26.31.34,0,.02,0,.04.01.05,0,0,.03,0,.07-.04.2-.16.24-.53.25-.74h0s0-.02,0-.02c.34.02.37.21.38.3,0,.02,0,.05.01.05,0,0,.01,0,.06-.04.17-.18.17-.58.17-.75,0,0,0-.02,0-.02h0s0,0,0,0c.22.02.27.18.3.28,0,.03.02.07.03.07,0,0,.02,0,.05-.04.2-.26.19-.64.16-.78,0-.01,0-.02-.01-.03h0s0,0,0,0c.22.01.27.15.3.24,0,.03.02.05.03.06,0,0,.02,0,.06-.05.16-.2.15-.59.1-.8.29-.35.48-.64.53-.86.04-.16.06-.18.08-.18.03,0,.04.09.05.15-.05.52-.16,1.2-.31,1.89,0,0,0,0,0,.01,0,0,0,.01,0,.02-.02.1-.04.19-.07.29,0,0,0,0,0,0,0,0,0,0,0,.01-.1-.09-.35-.12-.4-.07-.03.03,0,.07.03.1.11.11.17.32.17.51,0,.03,0,.06,0,.08h0s0,0,0,0c-.12-.06-.32-.07-.36-.02-.02.03,0,.07.04.1.13.13.17.41.15.61,0,.03,0,.07,0,.1,0,0,0,0,0,0,0,0,0,0,0,.01-.1-.09-.35-.12-.4-.07-.03.03,0,.07.03.1.11.12.14.42.12.63,0,.04,0,.07,0,.1,0,0,0,0,0,0,0,0,0,0,0,.01-.11-.1-.3-.16-.35-.12-.02.02,0,.06.03.11.14.21.1.6.05.74-.64,1.42-1.35,2.15-2.12,2.16-.62.01-.96-.54-1-.94-.06-.58.5-.96.83-1.1.24-.1.39.04.45.1.2.24.17.4.12.49-.07.12-.24.19-.35.17-.18-.03-.33.04-.39.19-.06.14-.02.3.09.38.18.13.42.14.67.03.31-.14.59-.45.61-.7.05-.22-.03-.67-.21-.85-.39-.53-.88-.69-1.32-.42-.77.48-1.21,1.02-1.25,1.57-.04.5.23,1.02.81,1.53.69.61,1.81.23,2.31-.3,0,0,.06-.04.07-.04.13.05.74.23,1.29-.3.07-.07.13-.15.2-.24h-.05c-.16.02-.6.07-.7-.07-.03-.04-.03-.09,0-.15.32-.43.61-.98.87-1.64.13,0,.73-.09,1.01-.75.04-.1.08-.22.1-.35l-.05.03c-.15.09-.56.32-.69.22-.04-.03-.05-.1-.03-.2.15-.53.29-1.12.42-1.76.19-.03.75-.18.93-.92.02-.09.03-.19.04-.29l-.04.03c-.14.1-.52.35-.69.28-.04-.02-.07-.06-.08-.11.09-.57.16-1.18.23-1.84.09-.03.83-.27.83-1.21,0-.03,0-.07,0-.1-.01.01-.02.02-.02.02-.13.11-.46.42-.63.38-.04-.01-.07-.04-.09-.1l.08-1.52v-.24ZM21.39,1.53c.59.21.91.69.86,1.3-.05.59-.43,1.12-.86,1.18V1.53ZM21.39,11.2c.07,0,.14-.01.23-.01.58,0,.83.27.83.88,0,.44-.13.88-1.06.93v-1.79ZM24.13,15.92h0c-.37.62-.84,1.01-2.04,1.01,0,0-.31,0-.71,0v-.65h.64c.97,0,1.64-.13,1.92-.38.13-.11.17-.11.19-.1.03.02,0,.1,0,.12ZM30.64,6.43l-.02.28c-.27,4.09-1.54,5.57-2.74,6.48l-.04.03c-.38.28-.81.61-1.6.87h-.03c-.15.06-.6.2-.72.41-.12.2-.15.22-.17.2-.05-.03.05-.3.08-.36.09-.17.24-.26.52-.39.54-.25.61-.58.61-.75,0-.24-.18-.47-.4-.56-.18-.07-.35-.03-.45.09.05.02.17.08.19.28.03.31-.13.43-.28.45-.17.02-.37-.1-.4-.33-.06-.43.17-.71.31-.81.18-.12.29-.16.42-.2,0,0,.23-.08.23-.09.36-.06.61.13.74.24.05.04.09.07.11.07l.02-.02c.05-.11-.02-.53-.11-.75v-.02s.02,0,.02,0c.33-.05.5.18.6.31.03.05.07.09.08.08,0,0,.01-.01.02-.03.04-.13-.07-.59-.18-.81,0,0,0-.01,0-.02h0s0,0,0,0c.34-.1.54.09.66.19.04.04.08.07.09.06l.02-.02c.03-.12-.12-.55-.24-.77,0,0,.06-.07.07-.07.32-.13.53,0,.66.08.05.03.08.05.1.04l.02-.03c.03-.12-.13-.51-.26-.7,0,0,.06-.08.07-.08.26-.09.46-.02.58.02.05.02.09.03.11.02,0,0,.01-.01.02-.03.02-.11-.14-.47-.25-.6,0,0,.05-.08.06-.08.24-.08.43-.02.54.01l.1.02s.01-.02.01-.05c0-.14-.15-.49-.24-.57,0,0,0,0,0,0h0s0,0,0,0c.23-.19.45-.18.57-.17h.09s0-.02,0-.03c0-.09-.17-.34-.29-.43.28-.52.48-1.01.59-1.45.14-.55.16-.55.18-.55.03,0,.03.12,0,.55ZM27.44,11.09s.03,0,.05-.01c-.02,0-.03,0-.05,0h0ZM29.52,8.52s.06-.05.09-.07c-.03.02-.06.04-.1.06,0,0,0,0,0,0ZM29.6,15.4s.02.02.03.03h0s-.02-.02-.03-.03ZM28.08,4.06s-.03.02-.08.04c.04-.02.07-.03.08-.04,0,0,0,0,0,0ZM28.49,2.36h0s-.01,0-.03,0c.01,0,.03,0,.03,0ZM27.39,6.1s-.03.02-.09.06c.04-.02.07-.04.09-.05,0,0,0,0,0,0ZM21.69,21.54c-.09.04-.19.07-.3.09h.03c.09-.02.18-.06.26-.09ZM29.36,13.27s-.05-.02-.08-.02c0,0,0,0,0,0,.03,0,.06,0,.08.02ZM29.33,16.16s.02.02.04.03h0s-.02-.02-.04-.03ZM29.78,14.63s.03.01.04.02h0s-.02-.02-.04-.02ZM29.99,13.98s.02.02.03.03c0,0,0,0,0,0-.01,0-.02-.02-.03-.02ZM28.75,13.77h0s.03,0,.04,0c-.01,0-.02,0-.04,0Z"/>
    <path class="st2" d="M21.03,3.91c-.11-.11-.1-.6-.1-.61,0-.63-.53-.86-.99-.86-.49,0-.99.26-.99.68v1.62c0,.09-.03.16-.08.2-.05.04-.11.06-.19.06-.15,0-.3-.09-.3-.25v-.87c0-.99-1.11-1.14-1.77-1.14-.95,0-1.95.42-1.95,1.21v.43s0,3.57,0,3.57c0,.21-.13.37-.25.44-.1.06-.21.06-.29.02-.07-.04-.14-.14-.12-.39,0-.03-.01-.06-.04-.06-.03,0-.09.02-.12.12-.11.3-.11.57.02.81.16.31.49.49.66.53v.55h-.01c-.63-.01-1.39-.25-1.39-1.4V3.06c0-.84-.35-1.13-.64-1.22-.54-.17-1.24.2-1.54.63-.31.45-.22.86-.03,1.1.21.26.57.35.89.22,0,0,.06-.04.06-.08,0-.02-.03-.04-.07-.05-.22-.03-.35-.18-.35-.39,0-.23.2-.42.44-.42s.43.19.43.42v5.55c-.64-.01-.81.51-.81.82,0,.48.34.67.35.68.01,0,.05,0,.07-.01.02-.02.03-.05,0-.11-.08-.16-.08-.3,0-.4.1-.14.3-.18.46-.16.1.01.16.05.18.11.24.67.85,1.01,1.87,1.04.02,0,.06.02.1.06v.3c-.32.13-1.02.59-.99,1.91.02,1.01.22,2.41.41,2.55.02.01.03.02.05.01.85-.24,2.12-.25,2.76.13.09.05.14.12.13.17,0,.03-.02.06-.05.07-.03.01-.06,0-.09-.03-.28-.28-1.07-.31-1.3-.32-.88-.01-2.7.26-3.24,1.39-.31.65.31,1.96.65,2.38.02.03.07.03.1.01.03-.01.04-.03.04-.05-.13-.65.13-1.29.72-1.8.73-.62,1.79-.91,2.47-.66.09.03.15.09.16.15,0,.03,0,.06-.02.07-.02.01-.04.01-.07,0-.88-.38-1.79.2-1.8.2.38,2.3,3.18,2.24,5.22,2.2h.7s.78.77.67,1.42c-.04.26-.22.47-.53.62-.31.15-1.56.07-1.69-.03-.07-.06-.1-.22-.07-.42.04-.31.23-.73.61-.89.04-.01.06-.03.06-.05,0-.05-.14-.08-.23-.07-.71.09-1.22.45-1.41.99-.04.12-.06.18-.06.3-.02.23-.07.23-.37.26l-.16.02c-.56.07-.88.34-.95.8-.05.36.06.73.31,1.01.21.23.47.36.73.35.01,0,.04-.01.05-.04,0-.02,0-.06-.07-.09-.32-.18-.4-.48-.34-.69.06-.23.29-.38.58-.37,0,0,.13,0,.13.09v.09s.02.26.02.26c.12.69.65,1.3,1.29,1.47.02,0,.07-.01.08-.05,0-.03,0-.07-.11-.11-.34-.25-.46-.75-.46-1.13,0-.25.05-.46.13-.52.14-.11.66-.18.92.08.26.26.37.49.33.66-.03.11-.13.19-.3.24-.02,0-.03.04-.03.07,0,.01.02.06.08.05.68-.1.92-.64.92-1.06,0,0,0-.03,0-.04.01-.02.04-.03.09-.03h.5c.08,0,.18,0,.27.01v-5.77h-1.92c-.44,0-.61.19-.63.37-.01.24.24.53.73.59.03,0,.11.05.11.08,0,0,0,.03-.12.03-.33,0-1.01.01-1.26-.39-.15-.25-.16-.56-.02-.81.18-.32.57-.49,1.12-.49h1.99v-.77c-1,.15-2.04.07-2.7-.15-1.24-.4-2.27-1.53-1.85-2.91.06-.19.19-.39.41-.61.27-.27.54-.28.63-.28.04,0,.06,0,.07-.02.02-.04-.05-.13-.06-.13-.43-.51-2.22-.66-2.57-.51,0,0-.02-.01-.03-.02-.15-.26-.2-1.95.44-2.4.27-.18.55-.25.75-.18.16.06.28.2.35.43.08.26,0,.57-.18.69-.13.09-.29.06-.46-.08-.05-.04-.07-.1-.09-.15l-.02-.06s-.05-.08-.08-.08c0,0-.02,0-.03.03-.02.54.19.93.59,1.07.69.25,1.44-.01,1.91-.67.44-.61.62-1.64.19-2.01-.03-.02-.05-.03-.07-.02-.04.02-.02.12-.02.14,0,.57-.37.99-.73,1.05-.31.06-.57-.13-.72-.52,0,0,.01-.08.11-.08.32.03.54-.09.66-.33.14-.31.02-.73-.28-.99-.01,0-.07-.02-.1,0,0,0-.01.01-.01.03.04.38-.05.61-.27.66-.2.04-.44-.11-.49-.3-.06-.21.11-.4.46-.52.02,0,.02-.02.03-.03,0-.03-.02-.06-.03-.07-.46-.15-.94.01-1.11.37-.11.24,0,.66.25.78,0,0,.01.02,0,.04-.05.07-.29.17-.52.1-.16-.05-.36-.2-.36-.64v-2.64c0-.27.3-.42.59-.44.29-.02.63.07.67.33.06.33.01.42-.09.47-.2.1-.38-.06-.38-.06,0,0,0,0,0,0h0s0,0,0,.01c-.03.06-.03.13,0,.19.07.14.27.25.49.29.22.04.39.01.5-.08.08-.07.13-.18.13-.32v-.43c0-.2.11-.29.21-.3.09,0,.19.06.21.22v.57s0,.94,0,.94c0,.68.53.98,1.02.98s.99-.32.99-.92v-1.39c0-.26.1-.42.28-.44.18-.02.4.13.45.4.06.31.03.35-.05.51l-.05.09-.03.07c-.08.16-.11.23-.09.27.02.03.07.03.18.02.34-.04.64-.12.91-.23v-1.31s-.01,0-.02,0c-.12.02-.25.03-.35-.08ZM15.85,12.46c0,.41-.35.74-.78.74s-.77-.33-.77-.74.35-.73.77-.73.78.33.78.73ZM16.26,4.83h0s0,0,0,0c0,0,0,0,0,0ZM14.58,12.46c0,.26.22.47.5.47s.5-.21.5-.47-.22-.47-.5-.47-.5.21-.5.47ZM19.82,1.61c-.08.1-.14.21-.11.25.02.02.05,0,.1-.04.43-.37.94-.47,1.51-.29.03,0,.05.02.07.03v-.56c-1-.02-1.46.46-1.58.62ZM18.95,10.26c-.21.28-.32.95-.32,1.97,0,1.63,1.26,1.85,2.61,1.85.05,0,.1,0,.16,0v-1.11c-.05,0-.1,0-.16,0-1.15,0-1.58-.09-1.58-1.01,0-1.09.5-1.53,1.25-1.86l.48-.22s0,0,.01,0v-1.18c-.12.06-.25.11-.37.16-.75.33-1.53.66-2.08,1.39ZM13.54,15.1h.01s.02-.01.02-.01l-.18-1.23c0-.07,0-.11-.03-.14-.03-.02-.1-.02-.22.02h0c-1.74.57-1.75,1.23-1.61,2.44.01.08.12.22.16.22h0s0-.02,0-.02c.02-.11.09-.25.11-.31.51-.9,1.37-.98,1.72-.98ZM13.55,15.09h0s-.04,0-.06,0c.03,0,.05,0,.06,0ZM20.43,11.86c-.02.07.01.15.07.17.02,0,.08.02.13-.08l.05-.12c.12-.29.22-.55.71-.61v-.55c-.47.16-.89.54-.96,1.18Z"/>
    <g>
      <path class="st3" d="M42.51,29.18c-.08-1.03-.96-1.75-5.09-.8-.02-.47-.04-.89-.05-1.09-.04-.79-.88-1.23-2.59-1.17-.84.03-1.29.06-1.61.11-1.15-.89-1.49-2.3-1.43-3.57l1.66-1.92c.44-.34-1.04-1.86-2.48-1.43l-2.83,3.72s.09-.07.13-.1c-.69.87-.64,2.53.35,4.17-2.33.38-4.98.76-6.86.76-.11,0-.22,0-.33,0-.11,0-.22,0-.33,0-1.88,0-4.53-.37-6.86-.76.99-1.64,1.04-3.3.35-4.17.05.03.09.06.13.1l-2.83-3.72c-1.44-.43-2.93,1.09-2.48,1.43l1.66,1.92c.06,1.27-.28,2.68-1.43,3.57-.32-.05-.77-.08-1.61-.11-1.71-.06-2.56.38-2.59,1.17,0,.2-.03.62-.05,1.09-4.13-.96-5.01-.24-5.09.8-.07.85-.1,2.5,0,3.11.1.61,1.01,1.06,1.99,1.23,2.26.39,6.56-.11,9.86-3.03,2.08.48,4.62,1.1,8.95,1.1.11,0,.22,0,.33,0,.11,0,.22,0,.33,0,4.33,0,6.87-.61,8.95-1.1,3.3,2.92,7.6,3.42,9.87,3.03.98-.17,1.89-.62,1.99-1.23.1-.61.07-2.26,0-3.11Z"/>
      <path class="st2" d="M9.55,27.69c-.08.19-.31,1.45-.33,1.72.07,0,.17.02.18,0,.25-.58.37-1.18.42-1.81-.1,0-.22-.03-.27.09ZM10.72,27.7c.07.28-.01,1.7.2,2.11.05.09.17-.02.18-.1.09-.68.01-1.33-.12-2.01,0-.02-.17,0-.27,0ZM11.11,27.27s.03-.14,0-.17c-.48-.41-1.06-.2-1.59-.2-.14,0-.09.17-.1.28.07,0,.13,0,.2,0,.52-.07.98.19,1.5.08ZM42.69,29.16c-.04-.45-.21-.78-.53-1.01-.72-.52-2.18-.51-4.58.03,0-.24-.02-.51-.03-.81v-.09c-.03-.65-.54-1.41-2.77-1.33-.78.02-1.23.06-1.55.1-.59-.48-.93-1.08-1.1-1.62-.18-.55-.24-1.15-.22-1.71l1.62-1.87c.08-.07.22-.25.04-.6-.29-.58-1.48-1.46-2.69-1.1-.03,0-.06.03-.09.06l-2.83,3.72s-.04.09-.03.14c-.09.16-.17.33-.22.52-.08.28-.12.58-.12.89,0,.79.25,1.66.72,2.49-2.27.37-4.79.72-6.61.72-.11,0-.22,0-.33,0-.11,0-.23,0-.33,0-1.82,0-4.33-.35-6.61-.72.47-.84.72-1.71.72-2.49,0-.31-.04-.61-.12-.89-.05-.19-.13-.37-.22-.52.01-.05,0-.1-.03-.14l-2.83-3.72s-.05-.05-.09-.06c-1.21-.36-2.4.53-2.69,1.1-.18.34-.04.53.04.6l1.62,1.87c.02.57-.04,1.16-.22,1.71-.18.54-.51,1.14-1.1,1.62-.32-.04-.77-.07-1.55-.1-2.24-.07-2.74.68-2.77,1.33v.09c-.02.3-.03.56-.04.81-2.4-.54-3.86-.55-4.58-.03-.32.23-.49.56-.53,1.01-.07.83-.1,2.51,0,3.14.12.76,1.22,1.21,2.12,1.37,1.93.33,6.39.09,9.95-3.02.01,0,.02,0,.04,0,2.05.48,4.6,1.07,8.88,1.07.11,0,.22,0,.33,0,.11,0,.22,0,.33,0,4.27,0,6.83-.59,8.88-1.07.01,0,.02,0,.04,0,3.56,3.11,8.01,3.35,9.95,3.02.9-.16,2-.61,2.12-1.37.1-.63.07-2.31,0-3.14ZM34.8,26.28c1.08-.04,2.39.11,2.43,1.02v.09c.06,1.24.08,1.98.08,2.42,0,.17,0,.29,0,.38-.29-.22-.68-.28-1.14-.34-1.43-.2-2.59-.11-3.77.1l-.02-.12c.04-.09-.23-1.49-.19-1.55.1-.15.58,0,.57-.29,0-.26-.42-.14-.61-.16-.07,0-.07-.02-.08-.08-.02-.11-.13-.65-.23-.73-.08-.08-.21,0-.23.1-.05.17.22.82.11.82-.27.01-.54.24-.56.18-.05-.13-.05-.33-.15-.46-.13-.18-.57-.06-.58-.14-.01-.2.13-.18.21-.22.05-.03.11-.07.12-.13.01-.08.02-.2-.03-.26.15-.03.3-.05.44-.08l.29-.05c.58-.1.89-.18,1.14-.25.46-.12.71-.19,2.2-.23ZM37.17,30.91c-.18.2-.72.16-1.2.13-.48-.04-.93-.07-1.2.1,0-.08,0-.15,0-.24.01-.44.11-.75.21-.84.36.01.74.05,1.14.1.58.08.9.14,1.12.4.02.15,0,.27-.06.34ZM30.71,28.14c.07,0,.13.02.13.1,0,.09-.13.11-.16.12-.03.01-.12,0-.13-.03-.04-.12.03-.21.16-.19ZM30.45,27.88s-.02-.14,0-.14c.02,0,.13-.07.18-.04.03.03.06.08.05.12-.03.07-.17.13-.23.06ZM30.69,28.55c.02-.08.37.03.4-.21,0-.05.07.04.18.09.1.05.41-.11.6-.08.01,0,.28,1.42.22,1.63l-.59.1c-.02-.71-.35-1.43-.52-1.44-.16,0-.33.07-.29-.09ZM30.25,27.03s0-.03,0-.06c.08-.01.16-.03.23-.04,0,.03-.01.07-.04.09-.06.04-.15,0-.18.01ZM31.02,19.44c1.01-.27,2.02.47,2.26.94.03.06.05.12.05.16,0,.02,0,.04-.02.04,0,0-.02.01-.02.02,0,0-2.32,2.67-2.56,2.95-.45-.62-.96-1-1.49-1.07-.19-.03-.38-.01-.57.04.63-.82,2.28-2.99,2.34-3.08ZM27.93,24.44c0-.28.03-.54.1-.77.07-.25.18-.46.32-.64.27-.18.56-.26.84-.22.48.07.96.45,1.39,1.1.03.04.08.07.13.07.05,0,.1-.02.14-.06l.73-.84c.01.48.08.97.24,1.43.17.53.48,1.1.99,1.59-.1.02-.19.05-.29.07-.24.06-.55.14-1.12.24l-.29.05c-.33.06-.68.12-1.05.18-.06,0-.13,0-.22.04h0c-.38.07-.77.13-1.17.2-.51-.89-.74-1.75-.74-2.47ZM29.93,27.87l.04-.03s.11-.07.15-.02c.05.05.05.15,0,.2-.05.06-.19.03-.23-.03-.03-.04.02-.09.03-.11ZM29.77,27.22s-.01-.14-.06-.16c.08-.01.16-.03.24-.04.01.07.02.14-.01.18-.03.05-.12.05-.17.02ZM29.96,28.28c.05-.04.2-.05.23.02.02.03.04.08.02.11-.03.04-.14.07-.19.06-.01,0-.19-.09-.05-.19ZM24,28.76c.08.03.19.03.23-.03.08-.09-.04-.33.09-.34.4-.03.57.19.68.32.03.04-.57.52-.74.81-.2-.14-.54-.21-.8-.29,0,0-.04-.16.08-.3.16.16.34.35.61.35.28,0,.64-.53.51-.62-.2-.14-.34.53-.7.29-.13-.09-.33-.35-.1-.39.08-.02.04.17.12.2ZM17.61,27.76c.38.05.76.09,1.13.12-.26.26.08.86-.31,1.07-.06-.15-.19-.12-.3-.09-.15.04-.13.23-.08.29.15.15.59.1.47.45-.08.24-.25.47-.47.3-.45-.35-.43-.94-.27-1.49.02-.05,0-.29-.13-.43-.05-.05-.06-.17-.03-.22ZM17.32,28.09c.07.07.15.13.19.22.11.21-.09.3-.19.43-.09-.13-.22-.26-.18-.43.02-.09.11-.15.18-.22ZM9.47,20.61s-.02-.02-.02-.02c0,0-.02-.02-.02-.04,0-.04.02-.1.05-.16.24-.47,1.25-1.21,2.26-.94.07.09,1.71,2.26,2.34,3.08-.19-.05-.37-.07-.57-.04-.52.08-1.03.46-1.49,1.07-.24-.28-2.56-2.95-2.56-2.95ZM10.94,24.53c.15-.47.22-.95.24-1.43l.73.84s.08.06.14.06c.05,0,.1-.03.13-.07.43-.65.91-1.03,1.39-1.1.29-.04.57.03.84.22.14.18.25.39.32.64.06.23.1.48.1.77,0,.71-.23,1.58-.74,2.47-.87-.15-1.71-.29-2.44-.42l-.29-.05c-.57-.1-.87-.18-1.12-.24-.1-.03-.2-.05-.29-.07.52-.49.82-1.06.99-1.59ZM.39,29.19c.03-.35.15-.6.39-.77.62-.45,2.1-.42,4.37.1-.03.96-.03,1.48-.01,1.77.02.34.07.71.2.85.3.31.89.28,1.47.24.42-.03.89-.07,1.03.08.02.02.05.07.04.17-.01.16-.07.27-.18.35-.47.33-1.77-.03-2.82-.31-.47-.13-.91-.25-1.28-.31-1.19-.21-2.51-.38-3.16.13-.04.03-.08.08-.12.12-.02-.75,0-1.79.05-2.4ZM5.53,30.57c.22-.26.54-.32,1.12-.4.4-.06.78-.09,1.14-.1.1.09.2.4.21.84,0,.08,0,.16,0,.24-.27-.17-.72-.14-1.2-.1-.48.03-1.02.07-1.2-.13-.06-.07-.08-.18-.06-.34ZM2.24,33.35c-1-.17-1.76-.61-1.85-1.07.02-.24.11-.42.27-.54.52-.41,1.7-.27,2.9-.07.35.06.78.18,1.25.3,1.23.34,2.5.68,3.1.26.01-.01.03-.02.04-.04,0,0,0,0,.01,0,.29-.2.38-.8.36-1.3,0-.19-.03-.56-.16-.84,1.24,0,2.33.22,3.56.51-3.43,2.88-7.65,3.1-9.49,2.78ZM16.86,31.18c-1.92-.22-3.36-.55-4.62-.84-.68-.16-1.3-.3-1.93-.41,0-.76.18-1.57.07-2.32,0-.02-.17,0-.27,0,.04.73-.21,1.52-.16,2.27-1.04-.16-2.09-.21-3.35-.03-.46.06-.84.12-1.14.34,0-.09,0-.21,0-.38,0-.44.02-1.18.07-2.42v-.09c.04-.9,1.35-1.05,2.43-1.02,1.49.05,1.74.11,2.2.23.25.06.56.14,1.13.25.03.02.07.04.09.05.27.1.49.64.5,1,.02.73-.36,1.49-.04,2.21.01.03.12,0,.18,0-.16-.93.53-1.94.02-2.83-.04-.07-.02-.24.05-.29,1.5.26,3.34.58,5.1.81-.1.11-.3.38-.35.5-.14.4.21.79-.09,1.2-.13.18.14.46.11.6-.07.3-.62.54-.39.83.19.23.29-.39.43-.33.21.11.06.56-.03.67ZM17.24,29.22c.12-.04.21.23.26.39.03.1-.09.3-.17.28-.31-.09-.42-.54-.09-.67ZM23.81,31.34s0,.01,0,.02c-.65.03-1.35.05-2.1.05-.11,0-.22,0-.33,0-.11,0-.22,0-.33,0-1.43,0-2.66-.07-3.75-.18-.04-.1-.09-.42.03-.43.16-.01.38.2.47.06.2-.32-.21-.55-.47-.73.07-.07.16-.2.19-.19.44.27,1.2.35,1.28-.25.07-.57.42-1.19.11-1.77,0-.02,0-.03,0-.04.77.07,1.51.11,2.15.11.11,0,.22,0,.33,0,.11,0,.22,0,.33,0,.64,0,1.37-.04,2.14-.11v.05c0,.07.12.29-.18.32-.65.06-.85,1.63-.51,1.64.24.01.12-.25.17-.37.02-.06.54.12.73.27-.17.31-.23.68-.26,1.04,0,.13,0,.46,0,.5ZM24.1,31.34v-.08c.04-.36.09-.91.2-1.11.14-.24.35.2.37.25.07.21.24.74.25.87-.26.02-.53.04-.82.06ZM30.51,30.34c-1.4.33-3.05.71-5.32.91.02-.03.03-.05.02-.09,0,0-.12-.99-.68-1.47.18-.21.51-.64.65-.63.08,0,.01.4.09.45.05.04.27.04.28-.02.04-.42-.2-1.51-1.28-1.4l.02-.19v-.05c1.69-.17,3.54-.47,5.17-.75-.05.02-.08.05-.08.11,0,.22.24.31.42.28.05,0,.04.11,0,.16-.07.07-.31.12-.29.4.06.95.7.49.74.59.07.19-.4.09-.4.26,0,.24.56-.02.57.04.08.27-.64.09-.64.35,0,.27.73-.01.74.04.06.26-.41.09-.4.34,0,.11.18.1.27.07.2-.06.39-.12.55-.26.07.07.1.16.13.25.04.12.02.25.04.4,0,.02,0,.03,0,.05-.21.05-.42.1-.63.15ZM40.51,33.35c-1.84.32-6.06.09-9.49-2.78,1.23-.28,2.32-.51,3.56-.51-.12.28-.15.65-.16.84-.01.49.08,1.09.36,1.3,0,0,0,0,.01,0,.01.01.02.02.04.04.6.42,1.87.07,3.1-.26.46-.13.9-.24,1.25-.3,1.2-.21,2.38-.34,2.9.07.16.13.25.31.27.54-.09.46-.84.9-1.85,1.07ZM42.42,31.59s-.07-.08-.12-.12c-.66-.52-1.98-.34-3.16-.13-.36.06-.81.18-1.28.31-1.05.29-2.35.64-2.82.31-.11-.08-.16-.19-.18-.35,0-.1.02-.15.04-.17.14-.14.62-.11,1.03-.08.58.04,1.17.08,1.47-.24.13-.14.18-.51.2-.85.02-.29.02-.81-.01-1.77,2.28-.52,3.75-.55,4.37-.1.24.17.36.42.39.77.05.6.08,1.65.05,2.4Z"/>
    </g>
  </g>
</svg>