<?xml version="1.0" encoding="utf-8"?>
<!-- Generator: Adobe Illustrator 22.0.0, SVG Export Plug-In . SVG Version: 6.00 Build 0)  -->
<svg version="1.1" id="图层_1" xmlns="http://www.w3.org/2000/svg" xmlns:xlink="http://www.w3.org/1999/xlink" x="0px" y="0px"
	 viewBox="0 0 151.1 32.6" style="enable-background:new 0 0 151.1 32.6;" xml:space="preserve">
<style type="text/css">
	.st0{fill:#FFFFFF;}
	.st1{fill:#574319;}
	.st2{fill:#FFE512;}
	.st3{fill:#EF3E42;}
	.st4{fill:#F78E1E;}
	.st5{fill:#A8996E;}
</style>
<rect class="st0" width="151.1" height="32.6"/>
<path class="st1" d="M42.6,27.3l1-0.1c0.1,0.4,0.2,0.7,0.3,1c0.2,0.3,0.4,0.5,0.8,0.6c0.4,0.1,0.8,0.2,1.2,0.2s0.8-0.1,1.1-0.2
	s0.5-0.3,0.7-0.5c0.1-0.2,0.2-0.4,0.2-0.7c0-0.3-0.1-0.5-0.2-0.7c-0.1-0.2-0.4-0.3-0.7-0.5c-0.2-0.1-0.7-0.2-1.4-0.4
	c-0.7-0.2-1.2-0.3-1.5-0.5c-0.4-0.2-0.7-0.4-0.8-0.7c-0.2-0.3-0.3-0.6-0.3-1s0.1-0.8,0.3-1.1c0.2-0.4,0.5-0.6,1-0.8
	c0.4-0.2,0.9-0.3,1.4-0.3c0.6,0,1.1,0.1,1.5,0.3c0.4,0.2,0.8,0.5,1,0.9s0.4,0.8,0.4,1.3l-1,0.1c-0.1-0.5-0.2-0.9-0.5-1.1
	c-0.3-0.3-0.8-0.4-1.4-0.4c-0.6,0-1.1,0.1-1.4,0.4c-0.3,0.2-0.4,0.5-0.4,0.9c0,0.3,0.1,0.5,0.3,0.7s0.7,0.4,1.6,0.6
	c0.8,0.2,1.4,0.4,1.7,0.5c0.5,0.2,0.8,0.5,1,0.8s0.3,0.7,0.3,1.1s-0.1,0.8-0.4,1.2c-0.2,0.4-0.6,0.7-1,0.9c-0.4,0.2-1,0.3-1.5,0.3
	c-0.7,0-1.3-0.1-1.8-0.3c-0.5-0.2-0.9-0.5-1.1-1C42.8,28.3,42.6,27.9,42.6,27.3L42.6,27.3z"/>
<path class="st1" d="M52.3,29l0.1,0.9C52.1,30,51.9,30,51.7,30c-0.4,0-0.6-0.1-0.8-0.2s-0.3-0.3-0.4-0.4c-0.1-0.2-0.1-0.6-0.1-1.2
	v-3.3h-0.7v-0.8h0.7v-1.4l1-0.6v2h1v0.8h-1v3.4c0,0.3,0,0.5,0.1,0.5c0,0.1,0.1,0.1,0.2,0.2c0.1,0.1,0.2,0.1,0.3,0.1
	C52,29.1,52.1,29,52.3,29L52.3,29z"/>
<path class="st1" d="M53.5,29.9v-1.1h1.1v1.1H53.5z"/>
<path class="st1" d="M59,27.6l0.9-0.1c0,0.6,0.1,1,0.3,1.3c0.2,0.2,0.5,0.3,0.8,0.3c0.3,0,0.5-0.1,0.7-0.2s0.3-0.3,0.4-0.5
	s0.1-0.5,0.1-1v-5.5h1v5.5c0,0.7-0.1,1.2-0.2,1.6c-0.2,0.4-0.4,0.6-0.8,0.8C62,29.9,61.6,30,61.1,30c-0.7,0-1.2-0.2-1.6-0.6
	C59.1,29,59,28.4,59,27.6z"/>
<path class="st1" d="M68.6,29.2c-0.4,0.3-0.7,0.5-1,0.7C67.2,30,66.9,30,66.5,30c-0.6,0-1.1-0.2-1.4-0.5s-0.5-0.7-0.5-1.2
	c0-0.3,0.1-0.5,0.2-0.8c0.1-0.2,0.3-0.4,0.5-0.6c0.2-0.1,0.4-0.3,0.7-0.3c0.2,0,0.5-0.1,0.9-0.1c0.8-0.1,1.4-0.2,1.7-0.3
	c0-0.1,0-0.2,0-0.3c0-0.4-0.1-0.7-0.3-0.8c-0.3-0.2-0.6-0.3-1.1-0.3s-0.8,0.1-1,0.3c-0.2,0.2-0.4,0.4-0.5,0.9l-0.9-0.1
	c0.1-0.4,0.2-0.7,0.4-1c0.2-0.3,0.5-0.4,0.9-0.6c0.4-0.1,0.8-0.2,1.3-0.2s0.9,0.1,1.2,0.2c0.3,0.1,0.5,0.3,0.7,0.4
	c0.2,0.2,0.2,0.4,0.3,0.7c0,0.2,0.1,0.5,0.1,0.9v1.3c0,0.9,0,1.5,0.1,1.7c0,0.2,0.1,0.5,0.3,0.7h-1C68.7,29.7,68.6,29.5,68.6,29.2
	L68.6,29.2z M68.5,27c-0.4,0.2-0.9,0.3-1.6,0.4c-0.4,0.1-0.7,0.1-0.8,0.2c-0.2,0.1-0.3,0.2-0.4,0.3c-0.1,0.1-0.1,0.3-0.1,0.5
	c0,0.3,0.1,0.5,0.3,0.7c0.2,0.2,0.5,0.3,0.9,0.3s0.7-0.1,1-0.3c0.3-0.2,0.5-0.4,0.6-0.7c0.1-0.2,0.2-0.6,0.2-1L68.5,27L68.5,27z"/>
<path class="st1" d="M71,29.9v-5.8h0.9v0.8c0.2-0.3,0.4-0.5,0.7-0.7c0.3-0.2,0.6-0.3,1-0.3s0.8,0.1,1,0.3c0.3,0.2,0.5,0.4,0.6,0.7
	c0.4-0.7,1-1,1.8-1c0.6,0,1,0.2,1.3,0.5s0.5,0.8,0.5,1.5v4h-1v-3.7c0-0.4,0-0.7-0.1-0.9c-0.1-0.2-0.2-0.3-0.3-0.4
	c-0.2-0.1-0.4-0.2-0.6-0.2c-0.4,0-0.7,0.1-1,0.4s-0.4,0.7-0.4,1.3v3.4h-1V26c0-0.4-0.1-0.8-0.2-1c-0.2-0.2-0.4-0.3-0.8-0.3
	c-0.3,0-0.5,0.1-0.8,0.2c-0.2,0.1-0.4,0.4-0.5,0.6c-0.1,0.3-0.2,0.7-0.2,1.2v3L71,29.9L71,29.9z"/>
<path class="st1" d="M84.1,28l1,0.1c-0.2,0.6-0.4,1.1-0.9,1.4c-0.4,0.3-1,0.5-1.6,0.5c-0.8,0-1.5-0.3-2-0.8S79.8,28,79.8,27
	c0-0.9,0.3-1.7,0.7-2.3c0.5-0.5,1.1-0.8,1.9-0.8s1.4,0.3,1.9,0.8c0.6,0.6,0.8,1.3,0.8,2.3c0,0.1,0,0.2,0,0.3h-4.2
	c0,0.6,0.2,1.1,0.5,1.5c0.3,0.3,0.7,0.5,1.2,0.5c0.4,0,0.7-0.1,0.9-0.3C83.7,28.7,83.9,28.4,84.1,28L84.1,28z M80.9,26.4h3.2
	c-0.1-0.5-0.2-0.9-0.4-1.1c-0.3-0.4-0.7-0.6-1.2-0.6c-0.4,0-0.8,0.2-1.1,0.5C81.1,25.5,80.9,25.9,80.9,26.4z"/>
<path class="st1" d="M85.9,28.2l0.9-0.2c0.1,0.4,0.2,0.7,0.5,0.9c0.2,0.2,0.6,0.3,1,0.3s0.8-0.1,1-0.3c0.2-0.2,0.3-0.4,0.3-0.7
	c0-0.2-0.1-0.4-0.3-0.5c-0.1-0.1-0.5-0.2-1-0.3c-0.7-0.2-1.2-0.3-1.5-0.5c-0.3-0.1-0.5-0.3-0.6-0.5c-0.1-0.2-0.1-0.5-0.1-0.8
	s0.1-0.5,0.2-0.7s0.3-0.4,0.5-0.6c0.2-0.1,0.4-0.2,0.6-0.3c0.3-0.1,0.5-0.1,0.8-0.1c0.4,0,0.8,0.1,1.2,0.2c0.3,0.1,0.6,0.3,0.7,0.5
	c0.2,0.2,0.3,0.5,0.3,0.9l-0.9,0.1c0-0.3-0.2-0.5-0.4-0.7c-0.2-0.2-0.5-0.3-0.9-0.3s-0.8,0.1-0.9,0.2c-0.2,0.1-0.3,0.3-0.3,0.5
	c0,0.1,0.1,0.2,0.1,0.3c0.1,0.1,0.2,0.2,0.4,0.3c0.1,0,0.4,0.1,0.8,0.3c0.7,0.2,1.2,0.3,1.4,0.5c0.3,0.1,0.5,0.3,0.6,0.5
	c0.2,0.2,0.2,0.5,0.2,0.8s-0.1,0.6-0.3,0.9c-0.2,0.3-0.5,0.5-0.8,0.7c-0.4,0.2-0.8,0.2-1.2,0.2c-0.7,0-1.3-0.2-1.7-0.5
	C86.3,29.2,86,28.8,85.9,28.2L85.9,28.2z"/>
<path class="st1" d="M91.8,24.7l-0.2-1.5v-1.3h1.1v1.3l-0.3,1.5H91.8L91.8,24.7z"/>
<path class="st1" d="M96.7,27.3l1-0.1c0.1,0.4,0.2,0.7,0.3,1c0.2,0.3,0.4,0.5,0.8,0.6S99.6,29,100,29c0.4,0,0.7-0.1,1.1-0.2
	c0.3-0.1,0.5-0.3,0.7-0.5s0.2-0.4,0.2-0.7c0-0.3-0.1-0.5-0.2-0.7s-0.4-0.3-0.7-0.5c-0.2-0.1-0.7-0.2-1.4-0.4
	c-0.7-0.2-1.2-0.3-1.5-0.5c-0.4-0.2-0.7-0.4-0.8-0.7c-0.2-0.3-0.3-0.6-0.3-1s0.1-0.8,0.3-1.1c0.2-0.4,0.6-0.6,1-0.8
	c0.4-0.2,0.9-0.3,1.4-0.3c0.6,0,1.1,0.1,1.5,0.3c0.5,0.2,0.8,0.5,1,0.9s0.4,0.8,0.4,1.3l-1,0.1c-0.1-0.5-0.2-0.9-0.6-1.1
	c-0.3-0.3-0.8-0.4-1.4-0.4s-1.1,0.1-1.4,0.4c-0.3,0.2-0.4,0.5-0.4,0.9c0,0.3,0.1,0.5,0.3,0.7c0.2,0.2,0.7,0.4,1.6,0.6
	c0.8,0.2,1.4,0.4,1.7,0.5c0.5,0.2,0.8,0.5,1,0.8s0.3,0.7,0.3,1.1s-0.1,0.8-0.4,1.2c-0.2,0.4-0.6,0.7-1,0.9c-0.4,0.2-0.9,0.3-1.5,0.3
	c-0.7,0-1.3-0.1-1.8-0.3c-0.5-0.2-0.9-0.5-1.1-1C96.9,28.3,96.7,27.9,96.7,27.3L96.7,27.3z"/>
<path class="st1" d="M108.2,28l1,0.1c-0.2,0.6-0.4,1.1-0.9,1.4c-0.4,0.3-1,0.5-1.6,0.5c-0.8,0-1.5-0.3-2-0.8S104,27.9,104,27
	c0-0.9,0.2-1.7,0.7-2.3c0.5-0.5,1.1-0.8,1.9-0.8s1.4,0.3,1.9,0.8s0.7,1.3,0.7,2.2v0.3h-4.3c0,0.6,0.2,1.1,0.5,1.5
	c0.3,0.3,0.7,0.5,1.2,0.5c0.3,0,0.7-0.1,0.9-0.3C107.9,28.7,108.1,28.4,108.2,28L108.2,28z M105,26.4h3.2c0-0.5-0.2-0.9-0.4-1.1
	c-0.3-0.4-0.7-0.6-1.2-0.6s-0.8,0.2-1.1,0.5C105.2,25.5,105.1,25.9,105,26.4z"/>
<path class="st1" d="M112.5,29l0.1,0.9c-0.3,0.1-0.5,0.1-0.7,0.1c-0.3,0-0.6-0.1-0.8-0.2c-0.2-0.1-0.3-0.3-0.4-0.4
	c-0.1-0.2-0.1-0.6-0.1-1.2v-3.3h-0.7v-0.8h0.7v-1.4l1-0.6v2h1v0.8h-1v3.4c0,0.3,0,0.5,0.1,0.5c0,0.1,0.1,0.1,0.2,0.2
	s0.2,0.1,0.3,0.1C112.2,29.1,112.4,29,112.5,29z"/>
<path class="st1" d="M115.6,29l0.1,0.9c-0.3,0.1-0.5,0.1-0.7,0.1c-0.3,0-0.6-0.1-0.8-0.2c-0.2-0.1-0.3-0.3-0.4-0.4
	c-0.1-0.2-0.1-0.6-0.1-1.2v-3.3H113v-0.8h0.7v-1.4l1-0.6v2h1v0.8h-1v3.4c0,0.3,0,0.5,0,0.5c0,0.1,0.1,0.1,0.2,0.2s0.2,0.1,0.3,0.1
	C115.3,29.1,115.4,29,115.6,29z"/>
<path class="st1" d="M116.5,29.9v-8h1v8H116.5z"/>
<path class="st1" d="M122.9,28l1,0.1c-0.2,0.6-0.4,1.1-0.9,1.4c-0.4,0.3-1,0.5-1.6,0.5c-0.8,0-1.5-0.3-2-0.8s-0.7-1.3-0.7-2.2
	c0-0.9,0.3-1.7,0.7-2.3c0.5-0.5,1.1-0.8,1.9-0.8s1.4,0.3,1.9,0.8s0.7,1.3,0.7,2.2v0.3h-4.3c0,0.6,0.2,1.1,0.5,1.5
	c0.3,0.3,0.7,0.5,1.2,0.5c0.4,0,0.7-0.1,0.9-0.3C122.6,28.7,122.8,28.4,122.9,28L122.9,28z M119.7,26.4h3.2
	c-0.1-0.5-0.2-0.9-0.4-1.1c-0.3-0.4-0.7-0.6-1.2-0.6c-0.4,0-0.8,0.2-1.1,0.5C119.9,25.5,119.8,25.9,119.7,26.4z"/>
<path class="st1" d="M125.1,29.9v-5.8h0.9v0.8c0.2-0.3,0.4-0.5,0.7-0.7s0.6-0.3,1-0.3c0.4,0,0.8,0.1,1,0.3c0.3,0.2,0.5,0.4,0.6,0.7
	c0.5-0.7,1-1,1.8-1c0.6,0,1,0.2,1.3,0.5s0.4,0.8,0.4,1.5v4h-1v-3.7c0-0.4,0-0.7-0.1-0.9c-0.1-0.2-0.2-0.3-0.3-0.4
	c-0.2-0.1-0.4-0.2-0.6-0.2c-0.4,0-0.7,0.1-1,0.4s-0.4,0.7-0.4,1.3v3.4h-1V26c0-0.4-0.1-0.8-0.2-1c-0.2-0.2-0.4-0.3-0.8-0.3
	c-0.3,0-0.5,0.1-0.8,0.2c-0.2,0.1-0.4,0.4-0.5,0.6c-0.1,0.3-0.2,0.7-0.2,1.2v3L125.1,29.9L125.1,29.9z"/>
<path class="st1" d="M138.2,28l1,0.1c-0.2,0.6-0.4,1.1-0.9,1.4c-0.4,0.3-1,0.5-1.6,0.5c-0.8,0-1.5-0.3-2-0.8S134,27.9,134,27
	c0-0.9,0.3-1.7,0.7-2.3c0.5-0.5,1.1-0.8,1.9-0.8c0.8,0,1.4,0.3,1.9,0.8s0.7,1.3,0.7,2.2v0.3h-4.3c0,0.6,0.2,1.1,0.5,1.5
	c0.3,0.3,0.7,0.5,1.2,0.5c0.4,0,0.7-0.1,0.9-0.3C137.9,28.7,138.1,28.4,138.2,28L138.2,28z M135,26.4h3.2c0-0.5-0.2-0.9-0.4-1.1
	c-0.3-0.4-0.7-0.6-1.2-0.6c-0.4,0-0.8,0.2-1.1,0.5C135.2,25.5,135.1,25.9,135,26.4z"/>
<path class="st1" d="M140.4,29.9v-5.8h0.9v0.8c0.4-0.6,1-1,1.8-1c0.3,0,0.7,0.1,0.9,0.2c0.3,0.1,0.5,0.3,0.7,0.5
	c0.1,0.2,0.2,0.5,0.3,0.7c0,0.2,0,0.5,0,1v3.6h-1v-3.5c0-0.4,0-0.7-0.1-0.9c-0.1-0.2-0.2-0.4-0.4-0.5s-0.4-0.2-0.7-0.2
	c-0.4,0-0.8,0.1-1.1,0.4s-0.4,0.8-0.4,1.5v3.2H140.4L140.4,29.9z"/>
<path class="st1" d="M148.7,29l0.1,0.9c-0.3,0.1-0.5,0.1-0.7,0.1c-0.3,0-0.6-0.1-0.8-0.2s-0.3-0.3-0.4-0.4c-0.1-0.2-0.1-0.6-0.1-1.2
	v-3.3h-0.7v-0.8h0.7v-1.4l1-0.6v2h1v0.8h-1v3.4c0,0.3,0,0.5,0.1,0.5c0,0.1,0.1,0.1,0.2,0.2c0.1,0.1,0.2,0.1,0.3,0.1
	C148.3,29.1,148.5,29,148.7,29L148.7,29z"/>
<path class="st1" d="M53.7,17.6c0.2,0,0.3,0.1,0.2,0.3c-0.4,0.7-0.9,0.9-1.3,0.7c-1-0.5-2.2-0.7-3.5-0.8c-2.5-0.1-4.3,0.1-5.4,0.7
	c-0.4,0.2-0.7,0.1-0.9-0.1s-0.1-0.5,0.1-0.8c0.2-0.3,0.5-0.4,0.7-0.3c0.3,0,0.9,0,1.8-0.1c0.8-0.1,1.5-0.1,2.2-0.1V17
	c0-0.1,0-0.4,0-0.8c-0.6,0-1.2,0.1-1.6,0.1c-0.4,0.1-0.7,0-0.8-0.2c-0.1-0.2,0-0.3,0.1-0.5c0.2-0.1,0.5-0.2,0.9-0.2
	c0.5,0,0.9,0,1.3,0c0-0.3,0-0.6,0-0.7l0,0c-1,0-1.6,0-1.8-0.1s-0.3-0.1-0.2-0.2c0-0.1,0.1-0.1,0.3-0.1c1.9-0.3,2.9-0.4,3-0.5
	c0.2-0.1,0.3-0.2,0.4-0.1c0.1,0,0.2,0.1,0.3,0.3s0.2,0.4,0.1,0.5c0,0.1-0.2,0.2-0.5,0.2s-0.5,0-0.7,0c0,0.1,0,0.3,0,0.7
	c1.2,0,1.9,0.1,2,0.2c0.1,0.1,0.1,0.2,0.1,0.4c-0.1,0.1-0.2,0.2-0.5,0.2c-0.5,0-1.1,0-1.5,0c0,0.4,0,0.7,0,0.8
	C49.6,17,51.2,17.2,53.7,17.6L53.7,17.6z M44.4,12.9c0.1-0.3,0.1-1.2,0-2.5c-0.5,0.1-0.8,0.1-0.9,0c-0.1-0.2-0.1-0.3,0-0.5
	c0.2-0.3,0.4-0.4,0.7-0.4c0,0,2.4,0,7.2,0c0.4,0,0.5,0.1,0.5,0.2c0,0.2-0.2,0.3-0.5,0.5c-0.2,0.1-0.4,0.1-0.8,0.1
	C50,10.1,49.1,10,48,10c-0.1,0.2-0.1,1.2-0.1,3c0,0.3,0,0.6-0.2,0.8c0,0.2,0,0.2-0.1,0.2s-0.2-0.1-0.3-0.2c0-0.1-0.1-0.2-0.1-0.3
	c0,0,0,0-0.1,0c-0.9,0.1-1.9,0.3-2.9,0.6c-0.3,0.1-0.4,0-0.5-0.1s0-0.4,0.3-0.6c0.2-0.1,0.3-0.2,0.5-0.3C44.4,13,44.4,13,44.4,12.9
	L44.4,12.9z M45.3,10.2c0,0.1,0,0.2,0,0.4c0.1,0,0.8,0,1.9,0c0-0.3,0-0.5-0.1-0.6C46.4,10.1,45.8,10.1,45.3,10.2L45.3,10.2z
	 M47.1,11.8c0-0.2,0-0.3,0-0.5c-0.3-0.1-1-0.1-1.9,0c0,0.1,0,0.3,0,0.5c0.2,0,0.5,0,0.9,0H47.1z M47.1,12.9c0-0.1,0-0.3,0-0.5
	c-0.1,0-0.4,0-0.9,0s-0.8,0-0.9,0c0,0.2,0,0.4,0,0.5V13c0.1,0,0.2,0,0.3,0C46.1,12.9,46.6,12.9,47.1,12.9z M49.8,13.4
	c-0.3,0.1-0.5,0.1-0.6,0C49,13.3,49,13.1,49,12.9s0-0.4,0-0.6c-0.1-0.2-0.1-0.4-0.2-0.6c-0.1-0.3-0.1-0.4,0-0.5
	c0.1-0.2,0.3-0.2,0.5-0.2c0.3,0,0.7,0,1,0c0.9-0.1,1.4,0,1.7,0.1c0.1,0.1,0.2,0.2,0.3,0.3c0,0.1,0,0.3-0.1,0.7
	c-0.1,0.2-0.1,0.5-0.2,0.7c0,0.3-0.1,0.4-0.2,0.5c-0.2,0.1-0.4,0.2-0.6,0.1C50.6,13.2,50.2,13.3,49.8,13.4L49.8,13.4z M49.6,11.6
	c0,0,0,0.2,0,0.5c0,0.2,0.1,0.4,0.2,0.4c0,0,0.1,0,0.3,0c0.7-0.1,1.1-0.1,1.1-0.1l0.1-0.1l0.1-0.7c-0.1-0.1-0.5-0.1-1.3-0.1
	C49.8,11.6,49.7,11.6,49.6,11.6L49.6,11.6z"/>
<path class="st1" d="M64.6,13.2c-0.7,0-1.4,0.1-2.1,0.4c-0.3,0.1-0.5,0.1-0.6,0.1c-0.1-0.1-0.2-0.2-0.2-0.3c0-0.2,0.1-0.4,0.5-0.5
	s0.6-0.6,0.4-1.3c-0.1-0.2-0.1-0.4,0-0.5c0-0.1,0.2-0.1,0.4-0.1c0.1,0,0.3,0.1,0.4,0.2c0.1,0.1,0.1,0.3,0.1,0.6
	c-0.1,0.4-0.1,0.6-0.1,0.6c0,0.3,0.2,0.4,0.7,0.3c0.1,0,0.3,0,0.6-0.1c0-0.6,0-1.2,0-1.6c0-0.3,0.1-0.4,0.2-0.4c0.2,0,0.4,0,0.5,0.2
	c0.2,0.2,0.2,0.4,0.2,0.6c0,0.2-0.1,0.6-0.1,1.1c0.3,0,0.4,0,0.5,0s0.2,0,0.2,0c0.4,0,0.5,0.1,0.4,0.4c-0.1,0.2-0.2,0.3-0.5,0.5
	c-0.1,0.1-0.3,0.1-0.5,0h-0.1c0,1.4,0,2.7,0.1,3.8c0.1,0.7,0.1,1.1-0.1,1.2c-0.2,0.2-0.5,0.1-0.6-0.1l-0.1-0.1c0-0.1,0-1.2,0-3.3
	c-0.1,0.1-0.3,0.3-0.4,0.5c-1,1.1-1.7,1.7-2.1,1.7c-0.1,0-0.3-0.1-0.4-0.2c-0.2-0.2-0.2-0.3-0.2-0.4c0.1-0.2,0.3-0.4,0.7-0.5
	c1.2-0.8,2-1.5,2.3-2c0-0.1,0.1-0.2,0.2-0.3C64.6,13.4,64.6,13.3,64.6,13.2L64.6,13.2z M64.5,9.6c1,0,1.6,0.1,1.7,0.2
	c0,0.1,0,0.2,0,0.4c0,0.1-0.1,0.2-0.2,0.3h-0.1c-0.8-0.1-1.5-0.1-2-0.1c-0.5,0.1-0.8,0.1-1,0c-0.1-0.2-0.1-0.3,0-0.5
	c0.1-0.1,0.4-0.2,0.8-0.3C63.8,9.6,64.1,9.6,64.5,9.6L64.5,9.6z M72.8,16.5c0.2,0,0.3,0.1,0.2,0.3c-0.4,0.6-0.8,0.9-1.2,0.7
	c-0.4-0.2-0.9-0.4-1.3-0.4c-1.1-0.2-1.9-0.1-2.5,0.2c-0.1,0-0.2,0.1-0.3,0.1c0,0,0,0,0,0.1c0.1,0.5,0,0.9-0.2,1.1s-0.3,0.1-0.5-0.1
	c-0.1-0.1-0.2-0.4-0.1-0.8c0.1-2.1,0.1-4,0-5.7c0-0.1,0-0.1,0-0.2c-0.2,0.1-0.3,0.1-0.4,0.1c-0.2,0-0.3-0.1-0.4-0.3
	c-0.1-0.1-0.1-0.2,0-0.4s0.3-0.3,0.5-0.3c0.9-0.3,1.5-0.7,1.8-1.3c0.1-0.2,0.2-0.4,0.3-0.4c0.1,0,0.3,0,0.4,0.2
	c0.5,0.3,0.9,0.4,1.2,0.4c0.2,0,0.4,0,0.6,0.1s0.2,0.3,0.2,0.4c0,0.2-0.1,0.5-0.4,0.9c-0.1,0.2-0.2,0.3-0.3,0.4c1,0,1.5,0,1.7,0.1
	c0.1,0.1,0.1,0.2,0.1,0.3c-0.1,0.2-0.1,0.3-0.3,0.4c-0.2,0.1-0.4,0.1-0.6,0.1s-0.5-0.1-0.9-0.1c0,0.1-0.1,0.3-0.1,0.7
	c1.1,0,1.7,0,1.8,0.1c0.1,0.1,0.1,0.2,0.1,0.3c0,0.2-0.1,0.3-0.3,0.4C71.7,14,71.5,14,71.3,14c-0.2-0.1-0.6-0.1-1.1-0.1v0.8
	c1.2,0,1.8,0,1.9,0.1s0.1,0.2,0.1,0.3c0,0.2-0.1,0.3-0.3,0.4c-0.2,0.1-0.4,0.1-0.7,0.1c-0.3-0.1-0.6-0.1-1.1-0.1c0,0.4,0,0.7,0,0.9
	C70.6,16.1,71.4,16.2,72.8,16.5L72.8,16.5z M69.5,11.6c0.3-0.5,0.5-0.8,0.4-1c0-0.1-0.3-0.2-0.9-0.3c-0.3,0-0.6,0.1-0.7,0.3
	c-0.2,0.2-0.5,0.5-0.7,0.7c0.1,0.1,0.1,0.2,0.2,0.4h0.1c0.3,0,0.7,0,1.4,0C69.3,11.6,69.4,11.6,69.5,11.6z M69.5,13.7
	c-0.7,0-1.3,0-1.8,0.1v0.7c0,0,0,0,0.1,0c0.3,0,0.8,0,1.5,0c0.1,0,0.1,0,0.2,0v-0.2C69.5,14.1,69.5,13.9,69.5,13.7L69.5,13.7z
	 M69.5,15.2c-0.7,0-1.3,0-1.8,0.1v0.9c0.5,0,0.8,0,1,0c0.3,0,0.5,0,0.7,0C69.4,16,69.5,15.7,69.5,15.2z M69.4,12.3
	c-0.7,0-1.2,0-1.6,0.1c0,0.2,0,0.4,0,0.7l0,0c0.3,0,0.7,0,1.5,0c0.1,0,0.1,0,0.2,0c0-0.3,0-0.5,0-0.6C69.4,12.4,69.4,12.3,69.4,12.3
	z"/>
<path class="st1" d="M83.5,12.2c-0.5,0.3-0.9,0.4-1.1,0.2s-0.2-0.4,0.2-0.7c1.4-0.8,2.3-1.5,2.7-2.1c0.3-0.4,0.6-0.4,0.9,0
	c0.2,0.2,0.4,0.4,0.6,0.5s0.6,0.2,1.1,0.3c0.4,0.1,0.6,0.3,0.6,0.5s-0.1,0.3-0.2,0.4c-0.2,0.1-0.4,0.3-0.7,0.6
	c-0.3,0.3-0.6,0.6-0.9,0.8c2.5,1.5,4.2,2.3,5,2.4c0.3,0.1,0.4,0.2,0.4,0.3s-0.1,0.2-0.4,0.3c-1.1,0.5-2,0.4-2.4-0.2
	c-0.8-0.9-1.8-1.7-3.1-2.4c-1.3,1.1-2.7,2-4,2.7c-0.6,0.3-1.1,0.3-1.5,0c-0.3-0.3-0.2-0.6,0.2-0.8c1.4-0.5,2.9-1.3,4.5-2.4
	c-0.4-0.2-0.9-0.5-1.3-0.6c-0.2-0.1-0.3-0.2-0.3-0.2C83.6,12.1,83.6,12.1,83.5,12.2L83.5,12.2z M86.9,15.2c0.8,0,1.4,0.1,1.6,0.2
	c0.2,0.1,0.3,0.3,0.4,0.4c0.1,0.1,0.1,0.3-0.1,0.6c-0.1,0.2-0.3,0.6-0.6,1.2c-0.1,0.3-0.3,0.5-0.5,0.6s-0.4,0.1-0.7,0.1
	c-0.3-0.1-0.6-0.1-1-0.1c-0.5,0-0.8,0.1-0.9,0.1c-0.2,0.1-0.4,0.1-0.5,0c-0.2-0.1-0.3-0.4-0.4-0.7c-0.3-0.8-0.4-1.2-0.5-1.4
	c-0.1-0.3-0.1-0.5,0-0.6c0.1-0.2,0.4-0.3,0.8-0.3C85.6,15.3,86.4,15.2,86.9,15.2L86.9,15.2z M85.9,12.4c0.8-0.7,1.2-1.1,1.2-1.3
	c-0.1-0.2-0.2-0.3-0.5-0.3c-0.2-0.1-0.5-0.2-0.7-0.2c-0.1,0-0.1,0-0.1,0c-0.2,0-0.6,0.3-1.3,0.9c0.2,0.1,0.4,0.2,0.7,0.4
	C85.3,12,85.5,12.2,85.9,12.4L85.9,12.4z M86.7,17.4c0.4,0,0.6,0,0.6,0c0.1-0.1,0.2-0.4,0.5-0.9c0-0.1,0-0.3-0.1-0.4
	S87.3,16,86.9,16c-1.4,0-2.1,0.1-2.1,0.2c-0.1,0.1-0.1,0.2-0.1,0.3c0.1,0.5,0.2,0.8,0.4,0.9c0.1,0,0.2,0,0.5,0
	C86,17.4,86.4,17.4,86.7,17.4L86.7,17.4z"/>
<path class="st1" d="M101.6,12.2c-0.4,0-0.8,0.1-1,0.2c-0.5,0.1-0.8,0.1-0.9,0c-0.1-0.2-0.1-0.3,0-0.5s0.2-0.3,0.4-0.3
	c0.1-0.1,1.3-0.1,3.5-0.1c0.3,0,0.5,0.1,0.5,0.2c0,0.1-0.2,0.3-0.5,0.5c-0.2,0.1-0.4,0.1-0.7,0.1c-0.1,0-0.2,0-0.3,0
	c-0.1,0.2-0.1,0.4-0.1,0.7c0,0.9,0,2.5,0,4.7c0,0.3-0.1,0.6-0.2,0.8c-0.1,0.1-0.2,0.2-0.3,0.2c-0.1,0-0.2-0.1-0.3-0.2
	c-0.2-0.4-0.2-0.9-0.2-1.5c0-0.8,0-1.6,0.1-2.5c0,0,0,0.1-0.1,0.1c-0.5,0.8-1,1.3-1.3,1.6c-0.3,0.2-0.5,0.2-0.7,0.2
	c-0.2-0.1-0.3-0.2-0.3-0.4c0-0.2,0.1-0.4,0.3-0.5c1.1-0.9,1.7-1.7,2-2.4c0,0,0-0.1,0.1-0.1C101.7,12.6,101.6,12.3,101.6,12.2
	L101.6,12.2z M102.3,9.7c0.7,0,1,0.1,1.1,0.2c0.1,0.2,0.1,0.3,0,0.4c-0.1,0.1-0.3,0.2-0.6,0.2c-0.7,0-1.2,0-1.5,0.1s-0.6,0-0.7-0.1
	c-0.1-0.2,0-0.3,0.1-0.5c0.3-0.2,0.5-0.3,0.7-0.3C101.8,9.7,102,9.7,102.3,9.7L102.3,9.7z M102.8,13.4c0.2-0.2,0.4-0.2,0.6-0.1
	c0.2,0.1,0.3,0.3,0.4,0.7c0,0.2,0,0.3,0.1,0.5c0,0.2,0.1,0.3,0,0.4c0,0.1-0.1,0.2-0.1,0.1c-0.1,0-0.2-0.1-0.3-0.4
	c-0.2-0.2-0.3-0.4-0.5-0.5C102.7,13.9,102.6,13.6,102.8,13.4L102.8,13.4z M109.2,9.7c0.5,0,0.9,0.1,1.2,0.1c0.2,0,0.3,0.1,0.2,0.3
	c-0.2,0.3-0.3,0.5-0.5,0.6s-0.4,0.1-0.6,0c-0.3-0.1-0.6-0.2-0.8-0.2c-1.2-0.2-2.6-0.1-3.9,0.1c-0.3,0.1-0.6,0-0.7-0.1s0-0.3,0.2-0.5
	s0.5-0.3,0.8-0.3C106.6,9.7,108.1,9.7,109.2,9.7z M107.1,17.9c-0.8,0-1.3,0-1.8,0.1c-0.4,0.1-0.7,0.1-0.8,0
	c-0.2-0.1-0.3-0.4-0.3-0.7c0-0.7,0-1.4-0.1-2.2c0-0.5,0-0.9,0.1-1s0.3-0.1,0.5-0.1c3-0.1,4.7-0.1,4.9,0.1c0.2,0.2,0.3,0.4,0.2,0.7
	c-0.1,0.6-0.1,1.3-0.1,2c0,0.5-0.1,0.7-0.3,0.9c-0.2,0.2-0.5,0.2-0.9,0.2C108.5,18,108,17.9,107.1,17.9L107.1,17.9z M105.9,13.5
	c-0.4,0.1-0.6,0.1-0.8,0c-0.2-0.1-0.3-0.4-0.3-0.7c-0.1-0.8-0.1-1.3,0.1-1.5c0.1-0.1,0.2-0.1,0.5-0.1c2.2-0.1,3.4,0,3.6,0.1
	s0.3,0.4,0.2,0.7c0,0.1-0.1,0.3-0.1,0.4c0,0.4-0.1,0.7-0.2,0.8c-0.2,0.2-0.5,0.2-0.9,0.2C107.2,13.3,106.5,13.3,105.9,13.5
	L105.9,13.5z M106.6,14.6c-1,0-1.5,0.1-1.7,0.2c-0.1,0-0.1,0.3-0.1,0.7c0.3,0,0.9,0.1,1.8,0.1C106.6,15.1,106.6,14.8,106.6,14.6
	L106.6,14.6z M106.7,16.3c-0.9,0-1.5,0-1.8,0.1c0,0.5,0.1,0.8,0.2,0.9s0.2,0.1,0.5,0.1c0.4,0,0.7,0,1,0c0-0.1,0-0.1,0-0.1
	C106.7,17,106.7,16.7,106.7,16.3L106.7,16.3z M105.5,11.9c0,0,0,0.2,0,0.5c0,0.2,0.1,0.3,0.1,0.3c0.1,0,0.2,0,0.3,0l2.3-0.1
	c0.1-0.1,0.1-0.2,0.1-0.4s0-0.3-0.1-0.3c-0.1-0.1-0.6-0.1-1.5-0.1C106,11.7,105.6,11.8,105.5,11.9L105.5,11.9z M107.4,15.5
	c0.8,0,1.4,0,1.6-0.1c0-0.4-0.1-0.7-0.1-0.8c-0.1-0.1-0.6-0.1-1.4-0.1v0.1C107.4,14.8,107.4,15.1,107.4,15.5L107.4,15.5z
	 M107.5,17.2c0.4,0,0.7,0,0.9,0c0.3,0,0.5,0,0.5-0.1c0.1-0.1,0.1-0.4,0.1-0.8l0,0c-0.2,0-0.8-0.1-1.6-0.1
	C107.4,16.8,107.5,17.1,107.5,17.2L107.5,17.2L107.5,17.2z"/>
<path class="st1" d="M121.4,17.4c-0.3,0.1-0.5,0.1-0.6,0c-0.2-0.1-0.2-0.3-0.2-0.5c0-0.3-0.1-0.8-0.2-1.4c-0.8,0.9-1.3,1.4-1.7,1.4
	c-0.2,0-0.3,0-0.4-0.1s-0.2-0.2-0.2-0.4c0-0.1,0.1-0.2,0.3-0.3c1-0.6,1.7-1.3,2.1-2.1c-0.4,0-0.7,0.1-0.9,0.1
	c-0.4,0.1-0.6,0-0.8-0.2c-0.1-0.2-0.1-0.3,0.1-0.5s0.5-0.3,0.9-0.3h0.9c0-0.3,0.1-0.5,0.1-0.8c-0.6,0-1.1,0.1-1.4,0.2
	c-0.5,0.1-0.8,0.1-0.9,0s-0.1-0.3,0-0.5s0.3-0.3,0.6-0.4c0.2,0,0.7,0,1.4,0c0.1,0,0.2,0,0.3,0c0-0.2-0.1-0.4-0.1-0.5s0-0.1-0.1-0.2
	c-0.3,0-0.5,0-0.8,0c-0.4,0.1-0.7,0-0.7-0.2s0-0.3,0.2-0.4c0.3-0.2,0.7-0.2,1-0.2c0.2,0.1,0.9,0.1,2,0.1c0.7,0,1.1,0.1,1.3,0.3
	c0.2,0.2,0.2,0.4,0.1,0.6c-0.1,0.1-0.1,0.3-0.2,0.6c0.1,0,0.2,0,0.4,0c0.3,0,0.5,0.1,0.5,0.2c0,0.1-0.2,0.3-0.4,0.5
	c-0.1,0.1-0.3,0.1-0.5,0.1c-0.1,0.7-0.2,1.1-0.4,1.2c-0.1,0.2-0.3,0.3-0.7,0.2c-0.4-0.1-0.8-0.1-1.1,0c-0.1,0.3-0.2,0.6-0.4,0.9h1.1
	c0.7,0,1.2,0,1.3,0.1c0.1,0.1,0.2,0.2,0.3,0.3c0,0.1,0,0.3-0.1,0.7c-0.1,0.3-0.1,0.6-0.2,0.9c0,0.3-0.1,0.5-0.2,0.5
	c-0.2,0.1-0.4,0.2-0.6,0.1C122.1,17.3,121.7,17.3,121.4,17.4L121.4,17.4z M121.2,15.5c0,0,0,0.2,0,0.6c0,0.3,0.1,0.4,0.2,0.5
	c0,0,0.1,0,0.3,0c0.6-0.1,0.9-0.1,0.9-0.1s0.1-0.1,0.1-0.2c0-0.6,0.1-0.8,0.1-0.9c0-0.1-0.2-0.1-0.4-0.1h-0.7
	C121.4,15.4,121.3,15.4,121.2,15.5L121.2,15.5z M121.4,13.2c0.2,0,0.5,0,0.7,0s0.4-0.1,0.4-0.3c0-0.1,0-0.3,0.1-0.4
	c-0.4,0-0.7,0-1.2,0C121.5,12.7,121.4,12.9,121.4,13.2z M121.5,11.7c0.4,0,0.8,0,1.2,0v-0.4c0-0.1,0-0.2-0.1-0.2
	c-0.3-0.1-0.6-0.2-1.1-0.1c0,0.1,0,0.2,0,0.4V11.7z M126.1,15.9c-0.6,0-1.1,0.1-1.6,0.2c-0.4,0.1-0.6,0-0.7-0.1
	c-0.1-0.2,0-0.4,0.2-0.6c0.3-0.2,0.6-0.3,1.2-0.3h1c0-0.4,0-0.7,0-1.1c-0.2,0-0.7,0-1.4,0.1c-0.3,0-0.5,0-0.5-0.2
	c-0.1-0.1,0-0.3,0.1-0.5c0.2-0.2,0.4-0.3,0.7-0.2c0.2,0,0.4,0.1,0.7,0.1c0.1,0,0.2,0,0.4,0c0-0.4,0-0.8-0.1-1.1c0,0,0,0-0.1,0
	c-0.3,0-0.6,0-0.8,0.1c-0.3,0.1-0.6,0.1-0.7-0.1c-0.1-0.2,0-0.3,0.1-0.5c0.2-0.2,0.5-0.4,0.7-0.3c0.3,0.1,0.9,0.1,1.7,0.1
	c1,0,1.6,0,1.6,0.1c0.1,0.1,0.1,0.3,0,0.4c-0.1,0.2-0.3,0.2-0.6,0.2c-0.3,0-0.6,0-0.8,0c-0.1,0.2-0.2,0.6-0.2,1.1c1,0,1.6,0,1.7,0.1
	c0.1,0.1,0.1,0.2,0.1,0.3c-0.1,0.1-0.3,0.2-0.5,0.2c-0.4,0-0.9,0-1.2,0V15c1.8,0,2.7,0,2.7,0c0.2,0,0.3,0.1,0.2,0.3
	c-0.2,0.2-0.3,0.4-0.5,0.6c-0.3,0.2-0.5,0.2-0.8,0.1c-0.4-0.2-1-0.3-1.6-0.3c0,0.5,0,1.1,0,1.7c0,0.4-0.1,0.6-0.2,0.8
	c-0.1,0.1-0.2,0.2-0.3,0.2s-0.2-0.1-0.3-0.2C126.2,18,126.1,17.1,126.1,15.9L126.1,15.9L126.1,15.9z M126.1,10.6
	c0.1,0.2,0.1,0.4,0,0.5s-0.3,0-0.5-0.1c-0.1-0.1-0.3-0.2-0.5-0.3c-0.3-0.1-0.4-0.3-0.4-0.5c0-0.1,0.1-0.2,0.2-0.3s0.2-0.1,0.4-0.1
	c0.2,0,0.4,0.1,0.5,0.2c0.1,0.1,0.2,0.2,0.2,0.3C126,10.3,126,10.5,126.1,10.6L126.1,10.6z M128.4,9.9c0.2,0.4,0.1,0.6-0.2,0.8
	c-0.1,0-0.2,0.1-0.3,0.1c-0.1,0.1-0.3,0.1-0.4,0.1c-0.3,0.2-0.4,0.2-0.5,0.1c-0.1-0.1,0-0.2,0.2-0.4c0.2-0.3,0.3-0.6,0.4-0.8
	C127.9,9.4,128.2,9.4,128.4,9.9L128.4,9.9z"/>
<path class="st1" d="M141.5,10.8c0.2,0,0.5,0,0.7,0c1.4,0,2.2,0.1,2.3,0.2c0.1,0.1,0.1,0.2,0.1,0.3s-0.2,0.2-0.5,0.2
	c-1.3,0-2.1,0-2.5,0.1s-0.6,0-0.8-0.2c0-0.1-0.1-0.1-0.1-0.2c-1.6,1-2.6,1.4-3.2,1.2c-0.1,0-0.2-0.1-0.4-0.3c-0.1-0.2-0.1-0.4,0-0.4
	c0.1-0.1,0.3-0.2,0.6-0.2c0.2,0,0.7-0.2,1.7-0.5c1.4-0.6,2.3-1.1,2.7-1.5c0.1-0.2,0.3-0.3,0.4-0.3c0.1,0,0.1,0,0.1,0
	c0.1,0,0.2,0,0.2,0.1c0.3,0.3,1,0.7,2.1,1.2c1.4,0.5,2.4,0.8,3.1,0.8c0.5,0,0.6,0.1,0.3,0.4c-0.1,0.1-0.4,0.3-0.9,0.6
	c-0.4,0.2-0.7,0.2-1.1-0.1c-2.2-1.3-3.6-2-4-2h-0.1C142.2,10.3,141.9,10.5,141.5,10.8L141.5,10.8z M144.5,11.9c1,0,1.6,0.2,1.8,0.5
	c0.1,0.1,0.1,0.3-0.1,0.5c-0.2,0.4-0.4,0.7-0.4,1c-0.2,0.5-0.4,0.8-0.6,0.9c-0.2,0.1-0.3,0.1-0.6,0c-0.5-0.2-1.2-0.2-2.1-0.2
	c-1,0-1.6,0.1-1.9,0.3c-0.2,0.1-0.3,0.1-0.5,0c-0.1-0.1-0.2-0.3-0.3-0.6c-0.2-0.8-0.4-1.3-0.4-1.5c-0.1-0.2-0.1-0.4,0-0.5
	c0.1-0.2,0.3-0.2,0.7-0.3C141.6,11.9,143.1,11.9,144.5,11.9L144.5,11.9z M142.5,12.6c-1.3,0-2.1,0-2.1,0.2c0,0.1-0.1,0.1,0,0.3
	c0.1,0.6,0.2,1,0.3,1c0,0,0.6,0,1.8,0V14c0-0.1,0-0.3,0-0.7C142.5,12.9,142.5,12.7,142.5,12.6L142.5,12.6z M142.9,18.5
	c-0.6,0-1,0-1.4,0.1s-0.7,0.1-0.8,0c-0.2-0.1-0.3-0.4-0.3-0.7c0-0.6-0.1-1.1-0.1-1.7c0-0.5,0-0.8,0.2-0.9c0.1-0.1,0.3-0.1,0.5-0.1
	c2.5-0.1,3.9-0.1,4.1,0.1c0.2,0.2,0.3,0.4,0.2,0.7c-0.1,0.4-0.1,0.9-0.1,1.4c0,0.4-0.1,0.7-0.2,0.9c-0.2,0.2-0.5,0.2-0.9,0.2
	C144,18.5,143.6,18.5,142.9,18.5L142.9,18.5z M140.7,13.2c0-0.2,0.1-0.3,0.3-0.3c0.1-0.1,0.2,0,0.4,0c0.1,0.1,0.3,0.1,0.4,0.2
	c0.2,0.1,0.3,0.1,0.3,0.2c0,0.1-0.1,0.2-0.3,0.2c-0.3,0.1-0.4,0.1-0.5,0.1c-0.1,0.1-0.3,0-0.4,0C140.8,13.5,140.7,13.4,140.7,13.2z
	 M141.2,15.9c0,0-0.1,0.2-0.1,0.4c0.6,0.1,1.7,0.1,3.3,0c0-0.3-0.1-0.4-0.1-0.5c-0.1-0.1-0.7-0.1-1.8-0.1
	C141.7,15.8,141.3,15.8,141.2,15.9L141.2,15.9z M144.5,17.2c-0.1,0-0.2,0-0.3,0c-1-0.1-2-0.1-3.1,0c0,0.4,0.1,0.6,0.1,0.6
	c0.1,0.1,0.2,0.1,0.4,0.1c1.1-0.1,1.9-0.1,2.2-0.1c0.2,0,0.4,0,0.4-0.1C144.4,17.6,144.5,17.4,144.5,17.2L144.5,17.2z M143.3,14.1
	L143.3,14.1c0.4,0,0.8,0,1.1,0s0.5,0,0.6,0c0.1-0.1,0.2-0.4,0.4-1c0-0.1,0-0.2-0.1-0.3s-0.8-0.1-2-0.1
	C143.2,13.2,143.2,13.7,143.3,14.1z M144.9,13.2c0,0.1-0.1,0.3-0.2,0.3c-0.1,0.1-0.3,0.1-0.4,0.1c-0.2-0.1-0.3-0.1-0.5-0.1
	s-0.3-0.1-0.3-0.1c0-0.1,0.1-0.2,0.2-0.2c0.3-0.1,0.5-0.2,0.6-0.2c0.2-0.1,0.3-0.1,0.5,0C144.8,13,144.9,13.1,144.9,13.2L144.9,13.2
	z"/>
<path class="st2" d="M24.4,16.8l-1.2,0.3c-0.1-2-1.9-3.5-4-3.4c-1.9,0.1-3.4,1.6-3.5,3.5l-1.2-0.3c0.6-1,0.3-2.3-0.6-3
	c0.4-0.7,1.3-1.6,2-2c3.1-1.9,7.1-1,9,2C24.2,14.6,23.9,15.9,24.4,16.8L24.4,16.8z"/>
<path class="st1" d="M18.1,18.5c-0.5-0.6-0.5-1.6,0-2.2c0.6-0.8,1.8-0.9,2.6-0.3c0.8,0.6,0.9,1.7,0.3,2.5l4.4-1.2
	c-0.1-0.1-0.3-0.3-0.4-0.4c-0.6-0.8-0.4-2,0.4-2.5c0.8-0.6,2-0.4,2.6,0.4c0.6,0.8,0.4,1.9-0.4,2.5l4.1,1.8l1.9-0.6
	c-0.3-0.2-0.7-0.6-0.8-0.9c-0.4-0.9,0.1-2,1.1-2.4s2,0.1,2.4,1c0.1,0,0.2,0,0.3,0c0.4,0.1,0.6,0.4,0.6,0.8c-0.1,0.4-0.4,0.6-0.8,0.5
	c-0.1,0.3-0.4,0.6-0.6,0.8l4.2,1.5l-2.1,3l0.3,1.8h-0.5l1.2,5.9h-2.3L35.2,27l-1.6,3.6h-4.7L27.4,27h-1.6l-1.6,3.6h-2.3l-2.3-5.5
	l-2.3,5.5H15l-2.3-5.5l-2.3,5.5H6.5l-1.9-3.2l-1.4,3.2H0.8l1.6-5.7l-1.2,0.7l-1.1-0.9l2.5-4.1c-0.1-0.1-0.2-0.2-0.3-0.3
	c-0.7-0.8-0.5-1.9,0.3-2.6c0.8-0.6,2-0.5,2.6,0.3c0.8,0.9,0.7,2-0.1,2.6l1,0.7L7.5,19l4-1.5c-0.2-0.1-0.5-0.4-0.7-0.6
	c-0.5-0.9-0.2-2,0.7-2.5s2-0.2,2.6,0.6c0.5,0.9,0.2,2-0.7,2.5L18.1,18.5L18.1,18.5z M37.4,21.3l0.6-0.8l-0.8-0.3L37.4,21.3z
	 M32.2,24.7l0.9-4.3l-0.6,0.2c0.1,0.1,0.2,0.4,0.2,0.5v0.2H32v-0.2c0-0.1-0.1-0.2-0.2-0.2c-0.1,0-0.2,0.1-0.2,0.2v7.1l1.2-3.6
	L32.2,24.7L32.2,24.7z M31,20.6l-2.3-0.9l2.1,9.1v-7.6C30.8,21,30.9,20.8,31,20.6L31,20.6z M23,26l1.5-6.4l-3,1.1L23,26z M16,26.4
	l1.6-5.6l-3.5-1.1L16,26.4L16,26.4z M8.4,28.6l2.5-8.9L10.1,20l-2.2,0.7L7,23.4l-0.9-0.6L8.4,28.6L8.4,28.6z"/>
<path class="st3" d="M35.7,14.9c-0.8-0.5-2.1-0.4-2.8,0.3C31.7,8,24.7,3.2,17.3,4.4C10.6,5.4,5.5,11.6,6,18.2
	c-0.5-1-1.8-1.5-2.8-1.2C3.2,9.5,9.4,2.7,17,1.7C26,0.3,34.3,6.2,35.7,14.9L35.7,14.9z"/>
<path class="st4" d="M32.5,18.2l-0.7,0.2l-2-0.9c0-5.5-4.5-10.1-10.2-10.1S9.3,11.8,9.2,17.3v0.2l-2.1,0.9l-0.5,0.8l0,0
	c-1-7,4-13.4,11.2-14.4C25,3.9,31.6,8.7,32.6,15.7C32,16.4,32,17.5,32.5,18.2L32.5,18.2z"/>
<path class="st5" d="M29.4,17.3L28.7,17c0.6-1.1,0.2-2.5-0.9-3.2c-0.6-0.4-1.6-0.4-2.3,0c-2.1-3.2-6.4-4.1-9.7-2.1
	c-0.7,0.3-1.7,1.3-2.2,2c-1.2-0.6-2.6-0.1-3.2,1c-0.4,0.6-0.3,1.7,0.1,2.3l-0.8,0.3c0-5.2,4.4-9.5,9.7-9.5
	C24.9,7.8,29.3,12,29.4,17.3z"/>
</svg>
